<svg width="102" height="74" viewBox="0 0 102 74" fill="none" xmlns="http://www.w3.org/2000/svg">
<path fill-rule="evenodd" clip-rule="evenodd" d="M47.0124 0L56.7573 0.0287798L56.9125 0.172679C56.9987 0.253262 57.1021 0.385649 57.148 0.477744C57.217 0.604375 57.2285 1.35265 57.2342 9.18075L57.1021 9.38221C57.0274 9.49157 56.878 9.62971 56.7688 9.68152C56.585 9.77937 56.2287 9.78512 51.8676 9.78512C47.2882 9.78512 47.1675 9.78512 46.9435 9.67C46.7826 9.58942 46.6791 9.48581 46.5987 9.31314C46.4895 9.07139 46.4838 8.93324 46.4838 4.88105C46.4838 1.51957 46.501 0.656179 46.5585 0.506524C46.6044 0.402917 46.7194 0.247506 46.8228 0.155411L47.0124 0ZM26.6434 11.6501C31.3493 11.6616 31.3665 11.6616 31.5274 11.7824C31.6193 11.8458 31.74 11.9897 31.8032 12.099C31.9181 12.289 31.9181 12.3983 31.9181 16.5541C31.9181 20.497 31.9123 20.825 31.8204 20.9977C31.763 21.1013 31.6366 21.2452 31.3435 21.4467L21.8629 21.4755L21.6388 21.3431C21.5066 21.2683 21.3687 21.1186 21.2941 20.9862C21.1791 20.756 21.1791 20.6869 21.1734 16.6117C21.1734 13.9064 21.1906 12.3868 21.2309 12.2372C21.2653 12.099 21.363 11.9551 21.4779 11.863C21.5813 11.7824 21.7192 11.7019 21.7939 11.6788C21.8629 11.6558 24.0463 11.6443 26.6434 11.6501ZM39.3992 11.6501C44.105 11.6616 44.1222 11.6616 44.2831 11.7824C44.3751 11.8458 44.4957 11.9897 44.5589 12.099C44.6738 12.289 44.6739 12.3983 44.6739 16.5541C44.6681 20.4509 44.6624 20.825 44.5704 20.9977C44.5187 21.1013 44.3923 21.2452 44.0993 21.4467H39.2957C34.5727 21.4467 34.4807 21.4409 34.3313 21.3316C34.2452 21.2683 34.1188 21.1416 34.0555 21.0495C33.9291 20.8884 33.9291 20.8769 33.9291 16.675C33.9291 14.3611 33.9464 12.3753 33.9694 12.2659C33.9923 12.1451 34.09 11.9897 34.2107 11.8803C34.3199 11.7767 34.4692 11.6846 34.5439 11.6673C34.6186 11.6558 36.8021 11.6501 39.3992 11.6501ZM51.8274 11.6385C54.5912 11.6328 56.4758 11.6558 56.5965 11.6846C56.7114 11.7191 56.8895 11.8342 57.1998 12.1566L57.217 16.4851C57.2285 20.5891 57.2285 20.8193 57.1251 21.015C57.0619 21.1416 56.924 21.2625 56.5103 21.4755L51.7929 21.4582C47.1733 21.4467 47.0641 21.4409 46.9147 21.3316C46.8285 21.2683 46.7021 21.1416 46.6389 21.0495C46.5125 20.8884 46.5125 20.8653 46.4953 16.675C46.4838 14.0273 46.501 12.3926 46.5355 12.2659C46.57 12.1508 46.6676 11.9897 46.7538 11.9033C46.8458 11.8112 46.9952 11.7191 47.0871 11.6903C47.1848 11.6616 49.3165 11.6385 51.8274 11.6385ZM80.3784 14.2287L81.1714 14.695C81.6081 14.9482 82.1079 15.2533 82.2803 15.3742C82.4584 15.4893 82.8319 15.7713 83.1135 15.99C83.4008 16.2088 83.8892 16.6232 84.2052 16.911C84.5212 17.1988 85.0383 17.7226 85.3543 18.0737C85.6704 18.4306 86.1358 18.9947 86.3886 19.3343C86.6414 19.6739 87.0206 20.2322 87.2275 20.5833C87.4401 20.9287 87.7159 21.4237 87.8423 21.6769C87.9687 21.9302 88.187 22.431 88.3307 22.7993C88.4801 23.162 88.6869 23.7548 88.7961 24.1232C88.8995 24.4858 89.0489 25.0787 89.1179 25.4471C89.1926 25.8097 89.25 26.1148 89.2558 26.1205C89.2615 26.1263 89.6235 26.086 90.0659 26.0227C90.5083 25.9651 91.2036 25.8845 91.6058 25.85C92.008 25.8155 92.9101 25.7924 93.6168 25.7924C94.3178 25.7924 95.1682 25.8155 95.4957 25.85C95.829 25.8845 96.3576 25.9478 96.6736 25.9939C96.9896 26.0399 97.5355 26.1435 97.8802 26.2241C98.2307 26.299 98.7881 26.4544 99.1156 26.558C99.4489 26.6673 99.9545 26.8573 100.236 26.9782C100.523 27.099 100.96 27.3178 101.207 27.4617C101.454 27.5998 101.736 27.784 102 28.0085L100.759 31.2318C99.8683 33.5284 99.4718 34.5012 99.3569 34.6163C99.2707 34.7084 98.9605 34.9905 98.6559 35.238C98.3571 35.4912 97.8515 35.8769 97.5355 36.0898C97.2195 36.3086 96.7024 36.6251 96.3863 36.8036C96.0703 36.982 95.5417 37.2468 95.2084 37.3907C94.8809 37.5403 94.2317 37.7821 93.772 37.9375C93.3181 38.0872 92.6458 38.2771 92.2781 38.3577C91.9161 38.4383 91.2438 38.5591 90.7841 38.6282C90.1923 38.7203 89.5373 38.7664 87.0436 38.8297L86.5093 40.1535C86.2162 40.8788 85.7508 41.9954 85.475 42.6286C85.1992 43.2618 84.6074 44.5281 84.1535 45.449C83.7053 46.3642 83.0962 47.5557 82.8032 48.0968C82.5044 48.6321 81.993 49.5242 81.6598 50.0826C81.3265 50.6351 80.8209 51.4525 80.5278 51.8957C80.2406 52.3389 79.7177 53.0987 79.3729 53.5937C79.0224 54.083 78.4938 54.7967 78.2008 55.1766C77.9077 55.5565 77.4193 56.1609 77.1148 56.5292C76.816 56.8919 76.3391 57.4502 76.0518 57.7668C75.7703 58.0833 75.2015 58.6992 74.7878 59.1367C74.3741 59.5799 73.6099 60.3339 73.087 60.8174C72.5699 61.3009 71.8574 61.9398 71.5069 62.2334C71.1621 62.5327 70.5301 63.045 70.0992 63.3846C69.674 63.7184 68.9385 64.271 68.4616 64.6106C67.9904 64.9502 67.1745 65.5028 66.6517 65.8366C66.1345 66.1705 65.3071 66.677 64.813 66.959C64.3246 67.2411 63.2386 67.8109 62.3997 68.2311C61.5666 68.6513 60.3255 69.2326 59.6417 69.5204C58.9637 69.8082 58.2283 70.1133 58.0042 70.1996C57.7858 70.2802 57.1768 70.5047 56.6539 70.6946C56.1368 70.8846 55.206 71.1954 54.5854 71.3854C53.9706 71.5753 52.8214 71.8976 52.0285 72.0991C51.2413 72.3006 50.0749 72.5711 49.4429 72.6977C48.8108 72.8243 47.8168 73.0028 47.2307 73.1006C46.6504 73.1927 45.6909 73.3366 45.1048 73.4172C44.5245 73.4978 43.5247 73.6129 42.8926 73.6762C42.2606 73.7395 41.37 73.8201 40.9103 73.8547C40.4564 73.8892 39.6118 73.9352 39.0429 73.964C38.4741 73.9928 36.7963 74.0043 35.3081 73.9986C33.8257 73.987 32.1939 73.9468 31.6883 73.9122C31.1826 73.8777 30.3322 73.8144 29.7921 73.7626C29.2578 73.7165 28.2867 73.6129 27.6374 73.5323C26.9939 73.4517 25.9941 73.3136 25.4253 73.2157C24.8565 73.1236 23.9544 72.9567 23.4143 72.8474C22.8799 72.738 21.9893 72.5308 21.432 72.3926C20.8804 72.2487 20.0415 72.0185 19.5646 71.8746C19.0934 71.7307 18.4096 71.5062 18.0419 71.3738C17.6799 71.2472 17.0594 71.0055 16.6629 70.8501C16.2722 70.6889 15.5827 70.3781 15.1403 70.1651C14.6978 69.9521 14.1577 69.6758 13.9336 69.5492C13.7153 69.4283 13.2729 69.1636 12.9569 68.9621C12.6408 68.7549 12.072 68.3577 11.6928 68.0699C11.3135 67.7879 10.8137 67.385 10.5723 67.1777C10.3368 66.9763 9.83686 66.5101 9.46339 66.1417C9.08991 65.7791 8.52107 65.1689 8.1993 64.7948C7.87753 64.4206 7.40063 63.822 7.13058 63.4709C6.86627 63.1198 6.42958 62.4924 6.15953 62.0837C5.88948 61.6693 5.45279 60.9556 5.18849 60.5008C4.92418 60.0404 4.50473 59.2518 4.25766 58.7453C4.01059 58.2388 3.61987 57.3811 3.39004 56.8458C3.16595 56.3048 2.79822 55.332 2.57988 54.6873C2.35579 54.0369 2.01104 52.9375 1.81568 52.241C1.61458 51.5446 1.34452 50.5085 1.21237 49.9387C1.08022 49.3688 0.884859 48.4191 0.775688 47.8377C0.672263 47.2506 0.517124 46.3182 0.436682 45.7656C0.361987 45.2073 0.252816 44.3554 0.206849 43.8661C0.160882 43.3711 0.0919321 42.5941 0.063203 42.1393C0.028728 41.6789 0 40.4874 0 39.4916C0 37.9835 0.0172366 37.6209 0.0919324 37.3619C0.143645 37.1835 0.258562 36.9014 0.34475 36.7287C0.430937 36.5503 0.643533 36.2568 0.815908 36.0668C0.988283 35.8769 1.26983 35.6294 1.4422 35.52C1.61458 35.4106 1.92485 35.2552 2.49944 35.0307L71.8516 34.9674L72.7135 34.8408C73.1904 34.7717 73.8627 34.6624 74.2074 34.5933C74.5579 34.53 75.1382 34.3976 75.5002 34.3055C75.868 34.2192 76.4081 34.058 76.7069 33.9601C77.0114 33.8565 77.4768 33.6781 77.7411 33.563C78.0112 33.4479 78.287 33.3155 78.4823 33.1888L78.2812 32.8435C78.1663 32.6535 77.9422 32.2391 77.7871 31.9225C77.6262 31.6059 77.3964 31.0879 77.2757 30.7713C77.155 30.4548 76.9884 29.9713 76.908 29.7065C76.8333 29.436 76.7184 28.9927 76.6552 28.728C76.5919 28.4574 76.4943 27.9394 76.4426 27.5768C76.3621 27.0818 76.3391 26.5752 76.3391 25.5622C76.3449 24.4858 76.3679 24.0484 76.4655 23.4325C76.5287 23.0008 76.6552 22.3446 76.7356 21.9647C76.8218 21.5848 77.0401 20.8193 77.224 20.2667C77.4079 19.7084 77.7066 18.9198 77.8848 18.5112C78.0629 18.0967 78.3444 17.5039 78.5168 17.1873C78.6834 16.8707 78.9592 16.3757 79.1316 16.0937C79.304 15.8059 79.5396 15.4432 79.6487 15.2878C79.7579 15.1266 79.9705 14.8273 80.1141 14.6144L80.3784 14.2287ZM14.1175 23.2771C18.7429 23.2828 18.8406 23.2886 18.9957 23.4037C19.0819 23.467 19.2026 23.5879 19.2715 23.68C19.3922 23.8412 19.3922 23.8469 19.3922 28.1812C19.3922 32.5096 19.3922 32.5154 19.2715 32.6766C19.2026 32.7687 19.0819 32.8953 18.9957 32.9586C18.8406 33.068 18.7486 33.0737 14.0313 33.0737C9.2393 33.0737 9.22206 33.068 9.04969 32.9471C8.95775 32.8838 8.83134 32.7341 8.77963 32.619C8.68195 32.4233 8.67621 32.0895 8.67621 28.1524C8.67621 24.6182 8.69345 23.8642 8.75665 23.7318C8.80262 23.6455 8.88306 23.5303 8.94626 23.4785C9.00372 23.4267 9.13013 23.3577 9.22206 23.3231C9.34272 23.2828 10.8998 23.2656 14.1175 23.2771ZM26.6434 23.2771C31.2688 23.2828 31.3665 23.2886 31.5216 23.4037C31.6078 23.467 31.7285 23.5879 31.7974 23.68C31.9181 23.8412 31.9181 23.8469 31.9181 28.1812C31.9181 32.5096 31.9181 32.5154 31.7974 32.6766C31.7285 32.7687 31.6078 32.8953 31.5216 32.9586C31.3665 33.068 31.2746 33.0737 26.5457 33.0737C21.7365 33.0737 21.7307 33.068 21.5641 32.9471C21.4779 32.8838 21.3515 32.7399 21.2883 32.6305C21.1791 32.4406 21.1734 32.3197 21.1734 28.2675C21.1676 25.9709 21.1906 24.0023 21.2136 23.893C21.2366 23.7779 21.317 23.6167 21.3917 23.5303C21.4664 23.4382 21.6158 23.3462 21.725 23.3174C21.8342 23.2886 24.0118 23.2713 26.6434 23.2771ZM39.3015 23.2656C42.7432 23.2656 43.9786 23.2828 44.1222 23.3346C44.2314 23.3692 44.398 23.5016 44.6739 23.8412V28.1812C44.6739 32.5096 44.6738 32.5154 44.5532 32.6766C44.4842 32.7687 44.3636 32.8953 44.2774 32.9586C44.1222 33.068 44.0188 33.0737 39.3992 33.0852C35.2794 33.1025 34.6474 33.091 34.4463 33.0162C34.3026 32.9586 34.1647 32.8435 33.9291 32.5039V28.2963C33.9234 25.9824 33.9464 24.0023 33.9694 23.893C33.9923 23.7779 34.0728 23.6167 34.1475 23.5303C34.2222 23.4382 34.3716 23.3462 34.4807 23.3174C34.5899 23.2886 36.7561 23.2656 39.3015 23.2656ZM56.5103 23.2541L56.7688 23.3864C56.9412 23.4728 57.0619 23.5879 57.1308 23.7203C57.2227 23.9045 57.2285 24.2383 57.2285 28.2099C57.2285 32.3888 57.2285 32.4981 57.1136 32.6823C57.0504 32.7859 56.8895 32.9183 56.7573 32.9816C56.516 33.091 56.3724 33.0967 51.8734 33.0967C47.8743 33.0967 47.202 33.0852 47.0296 33.0162C46.9205 32.9644 46.7883 32.8895 46.7423 32.8435C46.6964 32.7917 46.6159 32.665 46.57 32.5557C46.4953 32.3772 46.4838 31.7614 46.4838 28.1812C46.4838 24.8542 46.501 23.9678 46.5585 23.8181C46.6044 23.7145 46.6964 23.5706 46.7768 23.5016C46.8515 23.4267 46.9952 23.3462 47.0871 23.3174C47.1848 23.2886 49.3395 23.2656 56.5103 23.2541ZM64.6234 23.2771C69.3235 23.2828 69.3464 23.2886 69.5073 23.4095C69.5935 23.4728 69.7199 23.6167 69.7831 23.726C69.8923 23.916 69.898 24.0369 69.898 28.066C69.9038 30.3454 69.8808 32.3139 69.8578 32.4406C69.8291 32.5672 69.7372 32.7399 69.651 32.8262C69.5648 32.9183 69.4039 33.0162 69.2947 33.0449C69.1683 33.0852 67.4331 33.0967 59.7279 33.0737L59.5441 32.9413C59.4406 32.8723 59.3085 32.7284 59.2568 32.6248C59.1648 32.4521 59.1533 32.1182 59.1361 28.4114C59.1246 26.1954 59.1361 24.2441 59.1533 24.0772C59.1763 23.8642 59.228 23.7145 59.3429 23.5764C59.4406 23.4613 59.59 23.3519 59.7049 23.3174C59.8199 23.2886 61.8826 23.2713 64.6234 23.2771Z" fill="#EAEAEA"/>
</svg>
