<svg width="48" height="72" viewBox="0 0 48 72" fill="none" xmlns="http://www.w3.org/2000/svg">
<path d="M6.13538 25.1676C6.46017 24.9781 7.12779 24.6352 7.624 24.4186C8.1202 24.2021 8.60739 24.0126 8.70663 24.0126C8.80587 24.0126 9.13066 24.0667 9.42839 24.1389C9.87948 24.2472 11.1606 24.2743 16.8715 24.2743C20.6697 24.2743 23.8184 24.3104 23.8815 24.3465C23.9627 24.3916 23.9808 25.6459 23.9808 29.3276C23.9718 32.0348 23.9718 35.0578 23.9627 36.0504C23.9537 37.0431 23.9718 38.0177 23.9988 38.2162C24.0169 38.4147 24.0259 40.7429 23.9988 48.1876L16.8986 48.1605C9.8434 48.1334 9.78024 48.1244 9.0224 47.9259C8.59837 47.8086 8.23749 47.6913 8.21042 47.6552C8.18336 47.6191 7.82248 47.4476 7.39845 47.2852C6.97442 47.1137 6.30679 46.7799 5.90983 46.5362C5.51286 46.3016 4.98959 45.9497 4.73698 45.7602C4.49338 45.5707 4.05131 45.2007 3.75358 44.93C3.46488 44.6592 2.99574 44.1539 2.71606 43.811C2.43638 43.4681 2.00333 42.8545 1.75973 42.4574C1.51614 42.0604 1.15526 41.3745 0.965804 40.9233C0.776343 40.4722 0.496663 39.642 0.34329 39.0735C0.117741 38.1981 0.0636095 37.8101 0.0275217 36.5919C-0.00856609 35.3917 0.0094778 34.9676 0.162851 34.0652C0.271114 33.4696 0.460575 32.6575 0.595904 32.2604C0.722211 31.8634 1.08309 31.0332 1.38984 30.4105C1.69658 29.7879 2.1567 28.9757 2.40931 28.6057C2.67095 28.2358 3.15814 27.6312 3.49195 27.2612C3.82576 26.8912 4.43023 26.3498 4.8272 26.052C5.22416 25.7542 5.81059 25.3571 6.13538 25.1676Z" fill="#EAEAEA"/>
<path d="M8.3453 0.496314C8.58889 0.415099 9.13923 0.270717 9.56326 0.180478C10.267 0.0270717 10.9075 0.00902389 23.7728 0L23.836 0.333884C23.8721 0.523386 23.9082 6.00089 23.9082 24.3194L16.7177 24.2743C11.2594 24.2382 9.42793 24.1931 9.15727 24.1118C8.95879 24.0487 8.67009 23.9404 8.52574 23.8682C8.38139 23.796 7.93029 23.6155 7.53332 23.4621C7.13636 23.3087 6.50482 23.0109 6.13492 22.8034C5.76502 22.5958 5.15153 22.1988 4.78163 21.919C4.41173 21.6393 3.78019 21.0708 3.38323 20.6557C2.97724 20.2406 2.43593 19.5909 2.17429 19.2209C1.91265 18.8509 1.51569 18.1831 1.29014 17.7319C1.06459 17.2808 0.748821 16.5137 0.586426 16.0174C0.415009 15.5211 0.216527 14.727 0.144351 14.2578C0.0631536 13.7885 0 12.9132 0 12.3176C0 11.722 0.0631536 10.8738 0.135329 10.4226C0.207505 9.9714 0.387944 9.20437 0.532295 8.70806C0.676646 8.21174 0.938282 7.49886 1.10068 7.12888C1.27209 6.7589 1.73221 5.96479 2.12918 5.36922C2.60734 4.63828 3.13061 3.99758 3.74411 3.38396C4.24031 2.88765 4.98914 2.24695 5.41317 1.96721C5.8372 1.68747 6.56798 1.27237 7.03712 1.0558C7.50626 0.830198 8.09268 0.577529 8.3453 0.496314Z" fill="#EAEAEA"/>
<path d="M23.9355 24.3284C23.9264 24.3284 23.9084 18.8509 23.8903 12.1552L23.8633 0H30.6117C36.3316 0 37.4594 0.0180478 38.0548 0.135358C38.4337 0.216573 39.0111 0.360956 39.3359 0.469242C39.6607 0.577529 40.2652 0.821174 40.6892 1.01068C41.1132 1.2092 41.8621 1.63332 42.3583 1.96721C42.8635 2.30109 43.6213 2.92374 44.0724 3.38396C44.5686 3.88027 45.1551 4.60218 45.5791 5.23386C45.967 5.80236 46.4181 6.55135 46.5896 6.90328C46.761 7.24619 47.0046 7.85981 47.1309 8.25686C47.2572 8.65391 47.4196 9.22242 47.5008 9.52021C47.573 9.818 47.6722 10.3414 47.7263 10.6933C47.7714 11.0362 47.8165 11.7942 47.8165 12.3627C47.8165 12.9312 47.7534 13.7614 47.6812 14.2126C47.6 14.6548 47.4196 15.4128 47.2752 15.8821C47.1309 16.3513 46.8151 17.1454 46.5715 17.6417C46.3279 18.138 45.8678 18.9051 45.552 19.3472C45.2363 19.7894 44.5867 20.5203 44.1175 20.9715C43.6484 21.4227 42.9176 22.0273 42.4936 22.3071C42.0696 22.5868 41.3839 22.9748 40.9599 23.1734C40.5358 23.3719 40.0306 23.5794 39.8321 23.6426C39.6336 23.7058 39.39 23.805 39.2908 23.8682C39.1916 23.9314 38.8036 24.0396 38.4337 24.1209C38.0187 24.2111 36.9541 24.2923 35.682 24.3284C34.5362 24.3645 31.4327 24.3826 28.7802 24.3735C26.1278 24.3555 23.9445 24.3374 23.9355 24.3284Z" fill="#EAEAEA"/>
<path d="M30.3586 24.8969C30.3134 24.8969 30.4488 24.7976 30.6743 24.6803C31.0262 24.4908 31.1976 24.4637 32.0637 24.4547C32.605 24.4547 33.029 24.4728 33.011 24.4998C32.993 24.5269 32.7313 24.572 32.4336 24.5991C32.1359 24.6262 31.5675 24.7074 31.1705 24.7796C30.7736 24.8427 30.4037 24.9059 30.3586 24.8969Z" fill="#EAEAEA"/>
<path d="M7.17216 48.2778C7.62326 48.0793 8.04729 47.8717 8.11946 47.8266C8.19164 47.7815 8.27284 47.7454 8.2999 47.7454C8.32697 47.7454 8.68785 47.8266 9.11188 47.9259C9.53591 48.0341 10.1043 48.1244 10.375 48.1424C10.6456 48.1515 13.8213 48.1605 23.9981 48.1875L23.971 54.6577C23.944 59.323 23.9079 61.3263 23.8267 61.8136C23.7635 62.1836 23.6372 62.7792 23.547 63.1221C23.4568 63.465 23.2583 64.0786 23.1049 64.4757C22.9425 64.8727 22.6358 65.5224 22.4102 65.9195C22.1847 66.3165 21.7967 66.9302 21.5351 67.2731C21.2735 67.616 20.7412 68.2296 20.3442 68.6267C19.9382 69.0237 19.2525 69.6012 18.8105 69.899C18.3594 70.2058 17.6737 70.6119 17.2767 70.8104C16.8798 71.009 16.2933 71.2616 15.9686 71.3699C15.6438 71.4872 15.0754 71.6587 14.7055 71.758C14.1912 71.8933 13.6319 71.9475 12.3598 71.9836C11.0336 72.0196 10.5283 72.0016 9.87874 71.8753C9.42765 71.794 8.66078 71.5955 8.16457 71.4331C7.66837 71.2616 7.00074 70.9999 6.67595 70.8375C6.35116 70.6751 5.74669 70.3141 5.32266 70.0344C4.89863 69.7547 4.16785 69.1591 3.69871 68.7079C3.22957 68.2567 2.57999 67.5257 2.26422 67.0836C1.95748 66.6414 1.53345 65.9556 1.33496 65.5585C1.12746 65.1615 0.865822 64.5749 0.748537 64.2501C0.622229 63.9252 0.414725 63.2394 0.288417 62.716C0.0718908 61.8587 0.0538469 61.6061 0.0538469 60.054C0.044825 58.7365 0.0899347 58.1499 0.216242 57.5273C0.306461 57.0761 0.541032 56.2459 0.739515 55.6774C0.937997 55.1089 1.26279 54.2967 1.47029 53.8726C1.6778 53.4485 2.07476 52.7627 2.35444 52.3385C2.63412 51.9144 3.13033 51.2918 3.43708 50.9489C3.75284 50.606 4.33927 50.0735 4.73624 49.7667C5.1332 49.4689 5.65647 49.0899 5.90909 48.9275C6.15268 48.7741 6.72106 48.4853 7.17216 48.2778Z" fill="#EAEAEA"/>
<path d="M36.0878 24.2743C37.3058 24.2382 38.4155 24.157 38.5689 24.1118C38.7222 24.0577 38.9027 24.0126 38.9749 24.0126C39.047 24.0035 39.453 24.1389 39.877 24.3013C40.3011 24.4728 40.8243 24.7074 41.0499 24.8157C41.2754 24.933 41.7446 25.2037 42.0874 25.4293C42.4303 25.6549 42.9896 26.052 43.3325 26.3227C43.7926 26.6836 43.9369 26.8551 43.9369 27.0266C43.9369 27.1529 44.0542 27.3785 44.4963 27.8387L44.4331 27.568C44.397 27.4056 44.4061 27.3334 44.4512 27.3875C44.4963 27.4326 44.6948 27.6763 44.8932 27.9289C45.0917 28.1726 45.3895 28.5787 45.5518 28.8313C45.7233 29.075 46.0932 29.7608 46.3819 30.3383C46.6796 30.9249 47.0314 31.7551 47.1848 32.1882C47.3292 32.6304 47.5277 33.4606 47.6359 34.0381C47.7442 34.7059 47.8164 35.5 47.8164 36.1587C47.8164 36.7453 47.7622 37.5665 47.6901 37.9906C47.6269 38.4147 47.4735 39.0825 47.3653 39.4795C47.257 39.8766 46.9863 40.6075 46.7608 41.1038C46.5443 41.6001 46.0932 42.4123 45.7684 42.9086C45.4165 43.432 44.803 44.1719 44.2978 44.6683C43.7926 45.1736 43.0708 45.7782 42.5385 46.1301C42.0423 46.464 41.3296 46.8791 40.9597 47.0506C40.5898 47.222 39.9763 47.4657 39.6064 47.583C39.2365 47.7093 38.605 47.8808 38.208 47.962C37.811 48.0522 36.9359 48.1334 36.2683 48.1605C35.4202 48.1876 34.7796 48.1605 34.1481 48.0612C33.6519 47.9891 32.885 47.8176 32.4339 47.6913C31.9828 47.5649 31.234 47.2762 30.7649 47.0506C30.2957 46.825 29.565 46.4099 29.1409 46.1301C28.7259 45.8504 28.0403 45.2909 27.6162 44.8939C27.2012 44.4968 26.6058 43.829 26.29 43.4049C25.9742 42.9808 25.4961 42.2138 25.2254 41.6904C24.9638 41.167 24.648 40.4812 24.5397 40.1563C24.4315 39.8315 24.242 39.1456 24.1247 38.6223C23.9443 37.8372 23.9082 37.4221 23.9082 36.2309C23.9082 35.4368 23.9533 34.381 24.0165 33.8847C24.0796 33.3884 24.1428 32.9643 24.1698 32.9372C24.2059 32.9101 24.3142 32.5311 24.4315 32.0799C24.5397 31.6287 24.8194 30.8798 25.045 30.4105C25.2705 29.9413 25.5773 29.3457 25.7306 29.102C25.893 28.8494 26.2629 28.326 26.5697 27.9289C26.8764 27.5319 27.4268 26.9453 27.7967 26.6205C28.1666 26.2956 28.7079 25.8625 29.0056 25.6639C29.3033 25.4564 29.7093 25.2128 29.9078 25.1135C30.1063 25.0142 30.6566 24.8608 31.1258 24.7886C31.5949 24.7074 32.1633 24.6262 32.3888 24.5991C32.6144 24.5811 33.0384 24.5179 33.3361 24.4547C33.6339 24.4006 34.8699 24.3194 36.0878 24.2743Z" fill="#EAEAEA"/>
</svg>
