<svg width="54" height="75" viewBox="0 0 54 75" fill="none" xmlns="http://www.w3.org/2000/svg">
<path d="M15.5206 40.4913C6.03872 50.112 3.91987 52.6241 2.11886 55.9913L0 60L14.3022 45.569C28.2867 31.5121 28.6045 31.1378 27.704 30.0689C27.2272 29.4809 26.8035 29 26.8035 29C26.8035 29 21.7183 34.1845 15.5206 40.4913Z" fill="#EAEAEA"/>
<path d="M7.39411 46C6.3035 47.6 5.81881 49 6.06116 49C6.42469 49 7.5153 47.6 8.6059 46C9.69646 44.3 10.1812 43 9.93884 43C9.57531 43 8.48471 44.3 7.39411 46Z" fill="#EAEAEA"/>
<path d="M9.49833 1.07304C9.2317 1.76007 8.5385 5.61798 7.89862 9.68728C7.25875 13.7566 6.40556 19.0943 5.97898 21.5781C5.60572 24.062 4.37928 31.5136 3.36614 38.2253C2.29967 44.8841 1.07322 52.4944 0.646642 55.0839C0.220054 57.6735 -0.0465631 59.8932 0.00676124 59.9988C0.113408 60.0517 1.17988 58.3077 2.40631 56.0352C4.27264 52.5472 -2.86476 61.2769 7 51.5C-3.55704 65.8965 6.77882 50.9959 7.52536 52C8.32522 53.0041 29.228 31.2494 32.534 27.9199L36 24.4848L32.4274 18.0373C30.5078 14.4965 28.588 11.2727 28.2681 10.9557C27.3084 10.0044 25.9752 11.3784 24.1089 15.2364C23.2558 16.9804 22.3493 18.3544 22.0827 18.2487C21.5494 18.0902 21.2295 17.5616 15.8971 7.8376C13.5509 3.60975 11.3113 0.121769 10.8314 0.0160725C10.3515 -0.0896239 9.76495 0.333161 9.49833 1.07304ZM8.64515 45.3598C8.16523 46.2054 7.68533 46.9453 7.52536 46.9453C7.41872 46.9453 7.63201 46.2054 8.11192 45.3598C8.59184 44.4614 9.07173 43.7744 9.2317 43.7744C9.33836 43.7744 9.12506 44.4614 8.64515 45.3598Z" fill="#EAEAEA"/>
<path d="M22.8561 37.3862C10.6218 49.8713 0.469853 59.9757 0.31367 59.817C0.157487 59.6053 0.00130352 59.7111 0.00130352 59.9757C0.00130352 60.6106 -0.415187 60.3459 13.6413 68.2814C21.034 72.5136 25.9798 75 26.9169 75C27.8019 75 33.2163 72.302 41.0775 67.8581C48.1058 63.9434 53.8845 60.6106 53.9886 60.5046C54.0929 60.3988 53.4681 55.8493 52.5831 50.3474C49.6156 31.7786 48.4703 24.4781 47.8976 20.7748C47.1687 15.9608 46.9605 15.3788 45.9714 15.0084C45.3466 14.744 39.2033 20.669 22.8561 37.3862Z" fill="white"/>
<path d="M17.8842 42.3159C8.08023 51.7799 0 59.7879 0 59.9959C0 60.2038 8.1341 52.5079 18.0459 42.8879C34.2063 27.288 36.4687 25 35.9301 25C35.8763 25 27.7421 32.8 17.8842 42.3159Z" fill="#EAEAEA"/>
</svg>
