<svg width="78" height="77" viewBox="0 0 78 77" fill="none" xmlns="http://www.w3.org/2000/svg">
<path d="M32.235 4.21233C34.2425 2.14919 36.195 0.361134 36.5525 0.2511C36.91 0.113557 37.9825 0.00352263 38.9175 0.00352263C39.88 -0.0239859 40.98 0.113557 41.42 0.278608C41.8325 0.416151 49.6975 8.06353 58.8825 17.2514C68.095 26.4393 76.015 34.4442 76.4825 35.0494C77.17 35.9022 77.39 36.4799 77.4725 37.6628C77.5275 38.488 77.5 39.6159 77.39 40.1385C77.2525 40.9638 74.695 43.6321 59.6525 58.7068C49.9725 68.3898 41.695 76.4498 41.2825 76.6424C40.87 76.8349 39.935 76.9725 39.1925 77C38.4775 77 37.57 76.8625 37.13 76.6974C36.7175 76.5324 35.2875 75.322 33.94 74.0291C32.5925 72.7087 24.7825 64.9237 16.56 56.7262C8.3375 48.5011 1.6 41.679 1.6 41.514C1.6 41.3489 1.4625 41.2389 1.325 41.2389C1.16 41.2389 0.9125 40.8262 0.775 40.3311C0.61 39.8634 0.5 39.0107 0.5 38.488C0.5 37.9653 0.5825 37.0851 0.6925 36.5624C0.8575 35.7647 2.9475 33.564 25.1125 11.4746L29.5675 15.9585C33.555 20.0023 33.995 20.5249 33.7475 21.0751C33.61 21.4327 33.5 22.2304 33.5 22.8631C33.5 23.7159 33.7475 24.4861 34.38 25.559C34.985 26.5218 35.645 27.2645 37.35 28.1723V38.8181C37.35 45.7503 37.24 49.4914 37.075 49.4914C36.91 49.4914 36.3875 49.794 35.92 50.1516C35.425 50.5093 34.6825 51.417 34.27 52.1598C33.7475 53.0675 33.5275 53.8928 33.5 54.7731C33.5 55.5983 33.72 56.5336 34.105 57.2488C34.435 57.9091 35.0125 58.7343 35.3975 59.0644C35.7825 59.422 36.5525 59.8897 37.075 60.1097C37.5975 60.3298 38.5875 60.4949 39.275 60.4949C39.9625 60.4949 40.9525 60.3298 41.475 60.1097C41.9975 59.8897 42.795 59.367 43.235 58.9269C43.675 58.5142 44.2525 57.6615 44.5275 57.0563C44.8025 56.4511 45.05 55.5158 45.05 54.9931C45.05 54.4705 44.885 53.5902 44.6925 53.0675C44.5275 52.5449 44.115 51.8022 43.8125 51.4445C43.51 51.0869 43.015 50.5643 42.7125 50.2617C42.41 49.9866 42.08 49.7665 41.97 49.7665C41.8325 49.7665 41.75 45.0626 41.75 39.3133C41.75 33.564 41.8325 28.805 41.97 28.75C42.08 28.6674 43.95 30.373 50.055 36.4249L49.725 37.5252C49.45 38.4055 49.45 38.9006 49.7525 40.111C50.0275 41.2114 50.44 41.9266 51.265 42.7243C51.87 43.357 52.86 44.0172 53.465 44.1823C54.0425 44.3748 54.9775 44.5399 55.5 44.5399C56.0225 44.5399 56.9575 44.2923 57.5625 44.0172C58.1675 43.7421 59.02 43.1645 59.4325 42.7243C59.8725 42.2842 60.395 41.4864 60.615 40.9638C60.835 40.4411 61 39.4508 61 38.7631C61 38.0754 60.835 37.0851 60.615 36.5624C60.395 36.0397 59.9 35.2695 59.515 34.8294C59.13 34.4167 58.2225 33.8116 57.5075 33.509C56.4625 33.0413 55.8575 32.9588 53.1625 33.2339L44.7475 24.8713L44.94 23.6334C45.05 22.8081 44.9675 21.9554 44.6925 21.0201C44.445 20.2498 43.895 19.287 43.4825 18.8469C43.07 18.4343 42.245 17.8291 41.695 17.554C40.98 17.1964 40.045 17.0313 36.9375 17.0038L32.7575 12.8225C30.4475 10.5118 28.55 8.47616 28.55 8.2836C28.55 8.11855 30.2 6.27548 32.235 4.21233Z" fill="#E9E9E9"/>
</svg>
