<svg width="74" height="74" viewBox="0 0 74 74" fill="none" xmlns="http://www.w3.org/2000/svg">
<path d="M1.41092 25.7022C2.2615 23.0395 3.00113 20.7836 3.11207 20.6357C3.18603 20.4508 3.40792 20.3398 3.59283 20.3398C3.81472 20.3398 7.51287 21.4863 11.8027 22.8916C16.1296 24.2969 20.3824 25.6282 21.233 25.8501C22.1206 26.072 22.8232 26.4788 22.8232 26.7376C22.8232 26.9595 23.8957 28.6977 27.6308 33.8381L18.7552 36.7966L9.43591 33.7271C4.29548 32.063 0.042605 30.6577 0.0056235 30.5837C-0.0683395 30.5467 0.597328 28.3648 1.41092 25.7022Z" fill="#E9E9E9"/>
<path d="M45.7148 39.7551L49.7088 38.3868C51.8907 37.6472 54.0356 37.0185 54.4424 37.0185C54.8492 37.0185 59.287 38.3129 64.3165 39.94C70.4184 41.9001 73.4509 43.0465 73.3769 43.3793C73.303 43.6012 72.6003 45.8941 71.7867 48.4088C71.0101 50.9236 70.1965 53.0685 69.9746 53.1424C69.7527 53.2164 66.0176 52.1439 61.6538 50.7017C57.29 49.2964 53.0001 47.965 52.1126 47.7431C51.262 47.5213 50.5593 47.1145 50.5593 46.8926C50.5593 46.6337 49.4869 44.8956 45.7148 39.7551Z" fill="#E9E9E9"/>
<path d="M31.4395 20.1549L31.1806 10.096L30.8848 0H42.0532V2.47776C42.0532 3.88306 42.1641 8.24688 42.497 19.4153L36.6909 27.3663L31.4395 20.1549Z" fill="#E9E9E9"/>
<path d="M31.3285 53.6602L33.9912 49.962C35.4705 47.965 36.8018 46.4118 36.9128 46.5597C37.0539 46.6656 38.2388 48.3203 41.9133 53.4515L42.46 54.2149L42.2381 73.8151L31.3285 74V53.6602Z" fill="#E9E9E9"/>
<path d="M42.2388 19.7851L48.0818 11.7231C51.8539 6.58269 54.1098 3.7721 54.3687 3.95701C54.6276 4.10493 56.5876 5.51023 58.7695 7.10043C60.9884 8.69064 62.7635 10.059 62.7635 10.1699C62.7635 10.2808 60.2487 13.7941 57.2163 18.01C54.1468 22.2629 51.6321 25.8131 51.5581 25.961C51.5211 26.0719 49.4501 26.8116 42.4976 29.0305L42.2388 19.7851Z" fill="#E9E9E9"/>
<path d="M21.825 47.6322C21.8619 47.4842 23.711 46.7816 25.9669 46.0789C28.1858 45.3763 30.3307 44.7846 30.6635 44.7846C31.2552 44.7476 31.3292 45.2284 31.3292 49.7401C31.3292 52.4767 31.1813 54.6956 30.9964 54.6217C30.8115 54.5847 28.3337 57.8021 25.4122 61.7591C22.5276 65.7161 19.9759 69.1924 19.754 69.4513C19.3842 69.7841 18.4966 69.3033 15.4272 67.0844C13.2822 65.5312 11.3222 64.0889 11.0633 63.8301C10.6565 63.4972 11.655 61.87 16.1298 55.6572C19.1993 51.3673 21.751 47.7801 21.825 47.6322Z" fill="#E9E9E9"/>
<path d="M51.0776 26.3678C51.1146 26.3308 55.1825 24.9625 60.175 23.3353C65.1675 21.7082 69.4944 20.4138 69.7902 20.4508C70.1231 20.4878 70.8997 22.2999 71.8982 25.5173C72.7857 28.2539 73.4514 30.5467 73.3774 30.5837C73.3404 30.6577 69.0876 32.063 54.6278 36.7966L45.7153 33.8381L48.4149 30.1399C49.8572 28.106 51.0776 26.4048 51.0776 26.3678Z" fill="#E9E9E9"/>
<path d="M0.0800781 43.0095C0.0800781 42.9725 4.07408 41.6042 8.95564 39.977C13.8372 38.3868 18.164 37.0555 18.5708 37.0185C18.9776 36.9815 21.1965 37.6102 27.6683 39.7551L25.0056 43.4533C23.5264 45.4873 22.306 47.1884 22.306 47.2254C22.269 47.2624 18.0901 48.6307 13.0236 50.2949C7.92016 51.922 3.59332 53.2164 3.40841 53.1424C3.22351 53.0685 2.37293 50.7756 1.55934 48.076C0.745745 45.3763 0.0800781 43.0835 0.0800781 43.0095Z" fill="#E9E9E9"/>
<path d="M11.0632 9.76313C11.3221 9.50426 13.2821 8.06198 15.4271 6.50876C18.4965 4.25289 19.3841 3.77213 19.7539 4.14194C19.9758 4.40081 22.5645 7.87708 25.4121 11.8341C28.2966 15.7911 30.8114 19.0085 30.9963 18.9345C31.1812 18.8976 31.3291 21.0795 31.3291 23.8531C31.3291 28.032 31.2551 28.8456 30.7744 28.8456C30.4785 28.8456 28.3706 28.2539 22.0837 26.2569L16.3146 18.1949C11.6919 11.7601 10.6564 10.096 11.0632 9.76313Z" fill="#E9E9E9"/>
<path d="M42.2387 53.8081L42.3126 49.1484L42.4236 44.4518L51.2991 47.3363L57.0313 55.2874C60.1747 59.6512 62.7634 63.3124 62.7634 63.4233C62.7634 63.5342 60.9883 64.9026 58.8064 66.4928C56.5875 68.083 54.5905 69.4883 54.3686 69.6362C54.0358 69.8211 51.9648 67.2324 42.2387 53.8081Z" fill="#E9E9E9"/>
</svg>
