<svg width="35" height="76" viewBox="0 0 35 76" fill="none" xmlns="http://www.w3.org/2000/svg">
<path d="M18.9442 4.09752C18.8042 3.91083 18.6875 3.60744 18.7109 3.37407C18.7109 3.16403 18.7575 3.04734 18.7809 3.09402C18.8275 3.14069 18.8509 3.23404 18.8509 3.30405C18.8509 3.37407 19.2943 3.91083 19.8311 4.5176C20.3912 5.12437 21.7214 6.57129 22.7949 7.71482C23.8684 8.88169 25.3387 10.6787 26.0855 11.7055C26.8323 12.7324 27.9291 14.4127 28.5359 15.4395C29.1427 16.4663 30.0295 18.1466 30.5196 19.1735C31.0097 20.2003 31.8731 22.394 32.4566 24.0743C33.0167 25.7546 33.7401 28.1584 34.0202 29.4419C34.3469 30.9822 34.5569 33.0126 34.6503 35.393C34.7436 37.61 34.6736 39.9438 34.5103 41.4607C34.3469 42.8143 33.9502 44.9613 33.6235 46.2449C33.2967 47.5284 32.7366 49.3487 32.3632 50.2822C31.9898 51.1924 31.3131 52.7326 30.8463 53.6661C30.3796 54.5763 29.5161 56.0699 28.9326 56.98C28.3725 57.8902 27.8358 58.6603 27.7424 58.7304C27.6724 58.8004 27.299 59.2671 26.9256 59.7805C26.5289 60.294 25.432 61.5308 24.4752 62.5343C23.495 63.5612 22.2115 64.7281 21.5814 65.1715C20.6712 65.8483 20.4145 65.9183 20.0878 65.6849C19.8777 65.5215 19.5043 64.9148 19.2476 64.3313C18.9909 63.7479 18.6408 62.4877 18.4541 61.5308C18.1508 60.0839 18.0808 55.8132 17.9641 36.6765C17.8941 23.9576 17.8474 12.6857 17.8474 11.5888C17.824 10.492 17.9174 8.50829 18.0107 7.15472C18.1274 5.80115 18.3141 4.56427 18.4075 4.42425C18.5242 4.26089 18.7575 4.19087 18.8976 4.28422C19.1309 4.40091 19.1309 4.35424 18.9442 4.09752Z" fill="#EAEAEA"/>
<path d="M16.8918 1.71709C17.0785 1.36703 17.2185 0.806936 17.2419 0.480213C17.2652 0.15349 17.3586 -0.056547 17.4753 0.0134652C17.5919 0.0834774 17.6386 0.246839 17.5686 0.386863C17.4986 0.50355 17.5453 0.666912 17.6853 0.736924C17.8253 0.806936 17.872 0.946961 17.802 1.08699C17.732 1.20367 17.7553 1.32036 17.872 1.32036C17.9653 1.29702 18.1987 1.64708 18.3854 2.06716C18.5721 2.48723 18.7355 2.93064 18.7355 3.02399C18.7355 3.11734 18.8988 3.30404 19.0855 3.44406C19.3889 3.6541 19.3656 3.67744 19.0389 3.56075C18.8055 3.49074 18.6188 3.49074 18.6188 3.58409C18.6188 3.70077 18.7355 3.91081 18.8988 4.09751C19.1322 4.35422 19.1322 4.40089 18.9222 4.26087C18.7588 4.19086 18.5254 4.26087 18.4087 4.40089C18.3154 4.56426 18.1287 5.80114 18.012 7.15471C17.9187 8.50827 17.8253 10.492 17.8486 11.5888C17.8486 12.6857 17.8953 23.9576 17.9653 36.6765C18.082 55.9532 18.152 60.0606 18.4554 61.5308C18.6421 62.4876 18.9688 63.6779 19.1789 64.1446C19.3889 64.6347 19.4589 64.9847 19.3189 64.9147C19.1789 64.8447 18.8988 64.1446 18.6421 63.3278C18.4087 62.5343 18.1287 61.2508 17.8486 59.0804L17.3119 62.2309C17.0085 63.9579 16.6584 65.6149 16.5184 65.8949C16.4017 66.1983 16.1917 66.4083 16.075 66.3617C15.935 66.3383 15.2815 65.8482 14.6048 65.2881C13.928 64.728 12.5277 63.3978 11.5242 62.371C10.4974 61.3208 8.88709 59.4305 7.93026 58.1469C6.97343 56.8633 5.82989 55.1364 5.36315 54.2962C4.8964 53.4561 4.00958 51.6824 3.42614 50.3289C2.81937 48.9753 2.04924 46.8283 1.72251 45.5447C1.39579 44.2612 0.999054 42.3242 0.85903 41.2273C0.695668 40.0137 0.648993 37.68 0.719005 35.2763C0.789018 33.0825 1.02239 30.3521 1.23243 29.2085C1.41913 28.065 1.76919 26.4314 1.95589 25.5912C2.16592 24.7511 2.63267 23.1175 3.00607 21.9739C3.40281 20.8304 4.31296 18.6134 5.05976 17.0731C5.78322 15.5328 7.09011 13.2224 7.93026 11.9389C8.7704 10.6553 10.3107 8.6483 11.3142 7.50477C12.341 6.3379 13.9513 4.72762 14.8848 3.88747C15.8183 3.04733 16.7285 2.09049 16.8918 1.71709Z" fill="white"/>
<path d="M0.577825 38.0768C0.53115 38.8469 0.507812 38.3335 0.507812 36.9099C0.507812 35.4863 0.53115 34.8562 0.577825 35.5096C0.624499 36.1397 0.624499 37.3066 0.577825 38.0768Z" fill="#9BB08D"/>
<path d="M34.8838 38.4268C34.8371 39.1269 34.8138 38.6135 34.8138 37.2599C34.8138 35.9064 34.8371 35.3229 34.8838 35.9764C34.9305 36.6065 34.9305 37.7267 34.8838 38.4268Z" fill="#9BB08D"/>
<path d="M16.4239 66.0816C16.5873 65.8249 16.984 64.1446 17.2641 62.3476C17.7775 59.1738 17.8008 59.1271 17.9875 60.2473C18.0809 60.9007 18.3376 62.0443 18.5243 62.8144C18.711 63.5845 19.131 64.6114 19.4578 65.0781C19.9012 65.7782 20.1346 65.9416 21.0681 65.7316L20.5546 66.245C20.2746 66.5484 19.9245 67.1085 19.7612 67.4819C19.6211 67.8553 19.4344 69.9323 19.3411 72.1027C19.2711 74.2497 19.1544 76 19.0844 76C19.0144 76 18.6643 75.9067 18.2676 75.7666C17.5694 75.5339 17.5675 75.5101 17.3823 73.2886L17.3807 73.2695C17.2641 72.0093 17.0307 70.259 16.8673 69.3489C16.704 68.4387 16.4473 67.4585 16.3306 67.1318C16.1905 66.7117 16.2139 66.4083 16.4239 66.0816Z" fill="#9BB08D"/>
<path d="M22.4683 64.6814L24.1019 62.9777V63.0011C24.9887 62.0676 25.7589 61.2975 25.7822 61.2975C25.8289 61.2975 25.8522 61.3208 25.8522 61.3441C25.8522 61.3908 25.1054 62.1376 22.4683 64.6814Z" fill="#9BB08D"/>
</svg>
