<svg width="70" height="79" viewBox="0 0 70 79" fill="none" xmlns="http://www.w3.org/2000/svg">
<path d="M33.3596 0.435774C33.1161 0.508977 32.5981 0.730873 32.2169 0.923907C30.5695 1.81606 28.7538 2.84288 28.4786 3.05222C28.3257 3.1719 28.1426 3.27608 28.0819 3.27543C28.0213 3.27477 27.5331 3.54248 27.014 3.87052C26.4798 4.18323 25.3812 4.80832 24.5882 5.2244C23.7949 5.65564 23.1084 6.04253 23.0624 6.08753C23.0162 6.14769 22.8178 6.26688 22.6044 6.37073C21.9488 6.69729 21.0334 7.20304 20.3922 7.60559C20.0564 7.79911 19.6139 8.05215 19.4005 8.15601C19.1871 8.25986 18.882 8.42339 18.7141 8.52774C17.7221 9.10848 14.0298 11.1918 13.4503 11.4889C13.2369 11.5927 12.7789 11.8759 12.4277 12.0996C12.0613 12.3231 11.7561 12.5018 11.7106 12.5013C11.6651 12.5008 9.08653 13.9592 8.56739 14.2873C8.44526 14.3618 8.14004 14.5405 7.88096 14.659C7.63704 14.7777 6.73686 15.2836 5.8975 15.775C5.05814 16.2664 4.18861 16.7423 3.96019 16.8308C3.71659 16.9192 3.53317 17.0537 3.53235 17.1295C3.53153 17.2053 3.4399 17.265 3.33376 17.2639C2.90919 17.2593 1.65013 18.7016 1.13815 19.7728L0.610683 20.8741L0.445508 39.0247L0.295333 57.1907L0.696245 57.9836C1.17167 58.8986 2.35584 60.1852 3.07975 60.557C3.36621 60.7117 3.69768 60.9124 3.81784 61.0199C3.938 61.1273 4.55594 61.4828 5.1742 61.8079C5.79246 62.133 6.33506 62.4421 6.3799 62.5033C6.4249 62.5493 6.81653 62.7961 7.26881 63.0436C7.70593 63.291 8.38418 63.6774 8.77598 63.9091C10.1622 64.7429 12.8175 66.0151 13.9206 66.3757C14.8878 66.6895 15.3574 66.74 17.0255 66.7428C19.2242 66.7665 20.4401 66.5066 21.8895 65.7033C22.6675 65.2719 24.1067 63.9984 24.1095 63.7406C24.1103 63.6648 24.2029 63.5142 24.3102 63.4092C24.6321 63.0942 25.3335 61.3274 25.495 60.4193C25.5913 59.9199 25.7288 52.7938 25.8573 42.2708C26.025 26.6982 26.0288 24.9391 25.8036 24.7244C25.6086 24.5252 25.1845 24.4751 23.3953 24.4558C21.4847 24.4352 21.1811 24.4623 20.8751 24.7168L20.5081 25.001L20.2952 41.9531L20.0672 58.8898L19.6813 59.5226C18.9707 60.7281 17.4004 61.4998 16.0984 61.3038C15.1142 61.1567 13.8001 60.6724 12.8359 60.0858C11.3742 59.2208 10.4701 58.6803 9.24941 57.9696C8.60147 57.5835 7.83305 57.1202 7.53175 56.935C7.21528 56.7496 6.68784 56.4406 6.34105 56.2549C5.91893 56.0229 5.64893 55.747 5.54589 55.4578C5.32547 54.8033 5.68688 22.6576 5.92135 22.008C6.01511 21.7512 6.18419 21.5408 6.3055 21.5421C6.4268 21.5434 6.71621 21.4252 6.94545 21.2608C7.17453 21.1116 8.12053 20.5759 9.03603 20.055C9.96654 19.5494 10.8209 19.0733 10.9429 19.014C11.1718 18.88 12.4077 18.1805 15.1387 16.6479C15.9016 16.2164 16.7255 15.7551 16.9697 15.6061C17.2291 15.4573 17.7326 15.1746 18.114 14.9664C18.4953 14.7582 19.1819 14.3713 19.6398 14.1032C20.0976 13.8352 20.7842 13.4483 21.1654 13.2553C21.5466 13.0622 22.2025 12.7053 22.6149 12.4368C23.0422 12.1836 23.7288 11.7967 24.1406 11.5737C24.5677 11.3508 25.4833 10.8147 26.2006 10.3978C26.9178 9.98094 27.94 9.41569 28.4889 9.13347C29.0381 8.83608 29.9229 8.34517 30.4724 8.01746C31.0219 7.68976 31.7389 7.28802 32.0743 7.12483C32.4099 6.94646 32.9285 6.66391 33.2186 6.48506C34.8825 5.47176 35.3537 5.37068 35.955 5.86244C36.0751 5.96989 36.5574 6.24805 37.0095 6.51072C37.4618 6.75823 38.7578 7.51528 39.8729 8.17938C40.9879 8.84348 42.073 9.47692 42.284 9.60052C42.4949 9.72411 43.0372 10.0636 43.4892 10.3414C43.941 10.6344 44.6644 11.0517 45.0715 11.2684C45.4938 11.4852 46.0364 11.7944 46.2772 11.9638C46.744 12.2721 48.266 13.168 49.6675 13.9869C50.1196 14.2496 50.6471 14.5585 50.8277 14.6818C51.2044 14.9133 52.0481 15.4229 52.8319 15.8711C53.6459 16.3196 56.3583 17.926 57.0814 18.3736C57.3677 18.5435 58.5731 19.2692 59.6731 19.918C60.0953 20.15 60.7582 20.5514 61.15 20.7831C61.5568 21.0301 61.9186 21.2312 61.9641 21.2317C62.0095 21.2322 62.341 21.4329 62.7022 21.6946C63.0635 21.9411 63.4706 22.1578 63.5919 22.1591C63.7132 22.1604 63.8937 22.2988 63.9679 22.4513C64.1612 22.8022 63.8345 55.9491 63.6493 56.2504C63.5415 56.4009 61.8466 57.4746 61.695 57.4729C61.6647 57.4726 61.3441 57.6663 60.9774 57.9201C60.5958 58.1587 60.2447 58.3672 60.1689 58.3664C60.1082 58.3657 59.5743 58.6633 58.979 59.0208C58.3837 59.3784 57.6971 59.7653 57.438 59.8838C57.194 60.0176 56.3702 60.4637 55.6074 60.8953C54.8595 61.3422 53.6541 62.0268 52.937 62.4285C52.2199 62.8302 51.2586 63.381 50.8006 63.6642C50.3427 63.9322 49.7936 64.2296 49.5803 64.3183C49.3822 64.4071 49.1687 64.5262 49.1225 64.5863C49.0764 64.6465 48.8016 64.8103 48.5121 64.9437C48.2223 65.0922 47.5357 65.4791 46.9864 65.7917C46.437 66.1194 45.796 66.4916 45.537 66.6101C45.2929 66.744 44.7437 67.0414 44.3166 67.2794C43.9044 67.5328 43.2484 67.8897 42.8669 68.113C42.4855 68.3212 41.9819 68.6191 41.7225 68.768C41.4782 68.917 40.6086 69.408 39.8152 69.8545C38.4573 70.6132 38.0758 70.8366 36.1995 71.8628C35.7878 72.0706 35.4366 72.2943 35.3904 72.3545C35.3444 72.3995 35.1004 72.5334 34.8414 72.6367C34.3084 72.8433 34.0515 72.7647 32.8166 71.9628C32.365 71.6547 31.717 71.2685 31.3854 71.083C31.0538 70.8974 30.7526 70.6971 30.7078 70.6359C30.663 70.5748 30.3618 70.3744 30.0302 70.1888C29.6986 70.0033 29.1863 69.6945 28.8698 69.5091C28.5685 69.3239 27.8754 68.9069 27.3328 68.5978L26.3383 68.0108L25.8349 68.2784C24.6602 68.933 23.746 69.3326 22.6803 69.7154C22.0562 69.9361 21.432 70.1569 21.3099 70.2314C20.8831 70.4391 20.97 70.8192 21.5571 71.2198C22.4752 71.8666 25.4582 73.6882 27.719 74.9864C28.3822 75.3575 29.015 75.7434 29.1351 75.8509C29.3605 76.0504 29.5864 76.1894 31.4707 77.2409C32.4355 77.782 32.6471 77.845 33.9201 77.9193C34.6931 77.958 35.6183 77.9528 35.9827 77.9112C36.5447 77.8263 39.0753 76.5949 40.9678 75.4779C41.2579 75.299 41.7154 75.0613 41.9593 74.9426C42.2185 74.8089 42.6914 74.5562 43.0272 74.3475C43.6837 73.9452 44.1108 73.7071 47.1471 71.9959C48.2455 71.3859 49.6647 70.5671 50.3208 70.1951C50.977 69.8079 51.5415 69.4955 51.5718 69.4958C51.6022 69.4961 51.8922 69.3173 52.2129 69.1084C52.5336 68.8996 52.9305 68.6612 53.0981 68.5872C53.6161 68.3653 55.0504 67.5467 55.7377 67.0991C56.1042 66.8604 56.4702 66.6672 56.5612 66.6682C56.6522 66.6692 56.9419 66.5207 57.2018 66.3263C57.4617 66.132 57.9044 65.8638 58.1788 65.7303C58.438 65.5966 58.8954 65.374 59.17 65.2253C59.4292 65.0916 59.8261 64.8533 60.0401 64.6888C60.2541 64.5394 60.6356 64.316 60.8795 64.1974C61.1384 64.094 61.6571 63.8114 62.0386 63.5881C62.4201 63.3647 63.595 62.6949 64.6172 62.1297C66.8446 60.895 67.9622 59.9061 68.6136 58.5635L69.0635 57.6281L69.2578 39.584L69.4522 21.5398L68.9481 20.4728C68.6664 19.8784 68.2488 19.2218 68.0087 18.9917C67.0932 18.1023 66.8377 17.8872 66.2951 17.5781C65.24 16.9753 63.1003 15.7087 62.4072 15.2918C62.0307 15.0451 61.6086 14.8131 61.4879 14.7511C61.3673 14.6892 60.7947 14.3494 60.2072 13.9791C59.6349 13.609 59.1073 13.3152 59.0315 13.3143C58.9557 13.3135 58.5941 13.0973 58.2176 12.8506C57.8565 12.5889 57.4947 12.3879 57.4037 12.3869C57.3279 12.3861 57.2679 12.3248 57.2685 12.2641C57.2692 12.2035 57.0887 12.065 56.8624 11.9565C56.6209 11.8477 56.3043 11.6775 56.1387 11.5695C55.9728 11.4768 55.1893 11.0134 54.4057 10.55C53.6221 10.0866 52.4015 9.36071 51.6935 8.92846C50.2321 8.03316 50.3074 8.07946 47.64 6.51907C46.5398 5.88546 45.3795 5.20571 45.0477 5.03532C44.7312 4.84993 44.3246 4.58775 44.1594 4.43432C43.9942 4.28089 43.8586 4.20361 43.8579 4.26426C43.8573 4.32491 43.5708 4.17018 43.2094 3.93881C42.4114 3.39944 42.1554 3.22988 41.221 2.68903C40.8143 2.44202 40.2265 2.10206 39.9402 1.93216C37.3483 0.402912 37.4389 0.434224 35.559 0.383639C34.6041 0.343025 33.618 0.3779 33.3596 0.435774Z" fill="#E9E9E9"/>
<path d="M40.3905 23.6684C36.153 24.2749 33.93 25.1002 32.1529 26.7643C31.0346 27.8138 30.5875 28.4914 30.0103 29.9865C29.6359 30.9531 29.5709 31.3618 29.5404 32.787C29.5092 34.2728 29.5664 34.5919 29.9484 35.7334C30.3307 36.8445 30.5246 37.1499 31.3644 38.0234C32.9689 39.7088 35.1879 40.6577 38.9873 41.3053C41.4699 41.7263 41.7576 41.7597 43.2271 41.8969C45.9241 42.1231 50.1891 43.185 51.1069 43.8622C52.6868 45.0166 52.2322 47.802 50.2466 49.1151C48.765 50.1001 44.3015 50.5676 40.788 50.1203C38.0167 49.7568 36.3403 49.117 35.306 47.9988C34.7365 47.3709 34.0271 45.6497 34.0203 44.8762C34.0306 43.9209 33.7889 43.8273 31.2567 43.8C29.1945 43.7778 28.9971 43.806 28.7059 44.091C28.3993 44.391 28.3829 44.5122 28.4753 45.787C28.7486 49.9755 31.0684 52.8363 35.4345 54.3695C39.0151 55.6212 44.5779 55.8783 49.3644 54.9896C50.0329 54.8755 52.1942 54.1405 52.5759 53.902C52.7897 53.7678 53.232 53.53 53.5674 53.3668C53.9028 53.2036 54.6676 52.59 55.2652 52.0202C56.4452 50.8804 57.3258 49.3734 57.6449 47.9058C57.82 47.1343 57.8261 43.7526 57.6514 43.0834C57.3749 42.0038 55.7926 39.6665 55.3225 39.6614C55.2618 39.6608 55.0059 39.4912 54.7655 39.2763C54.5252 39.0614 54.2692 38.8918 54.1783 38.8909C54.1024 38.89 53.8307 38.781 53.5744 38.6417C53.1522 38.4097 51.3542 37.7989 50.1746 37.498C49.1161 37.2137 45.9829 36.6643 44.65 36.5135C40.9388 36.1247 36.84 35.11 36.059 34.404C35.1429 33.5752 35.2253 31.5592 36.2365 30.5995C36.9722 29.8795 37.1706 29.7604 37.9465 29.5261C41.2332 28.4999 46.4925 28.7689 48.738 30.0821C50.0038 30.8236 50.6469 31.6646 51.1301 33.2622C51.6725 34.9968 51.5369 34.9195 54.0691 34.9468C56.1161 34.9688 56.2984 34.9405 56.5896 34.6555C56.8808 34.3705 56.9129 34.204 56.8609 33.3997C56.7812 32.3525 56.4322 30.9687 55.9729 29.9629C55.8102 29.582 55.6621 29.2468 55.6626 29.2013C55.648 29.1556 55.4094 28.774 55.1409 28.3616C54.5739 27.5063 53.3285 26.2645 52.7253 25.9547C52.5141 25.8463 52.0922 25.5991 51.7909 25.4139C51.4746 25.2133 51.2181 25.0892 51.2178 25.1196C51.2173 25.165 50.7944 25.0088 50.2809 24.8062C48.877 24.2148 46.2127 23.7766 43.3475 23.6851C41.968 23.6399 40.6486 23.6409 40.3905 23.6684Z" fill="#E9E9E9"/>
</svg>
