<svg width="76" height="76" viewBox="0 0 76 76" fill="none" xmlns="http://www.w3.org/2000/svg">
<path fill-rule="evenodd" clip-rule="evenodd" d="M38.1603 0C41.0464 0 42.6498 0.064135 42.6498 0.160338C42.6498 0.240506 42.9224 0.320675 43.2591 0.320675C43.5797 0.320675 44.7181 0.464979 45.7764 0.625316C46.8667 0.785654 47.989 1.07426 48.3899 1.26667C48.7586 1.44304 49.3679 1.87595 49.7207 2.19662C50.0895 2.53333 50.5063 3.06245 50.6667 3.36709C50.827 3.67173 51.0034 4.15274 51.0675 4.40928C51.1316 4.66582 51.0996 5.14684 51.0034 5.45148C50.9232 5.75612 50.5865 6.25316 50.2819 6.54177C49.9612 6.81435 49.4321 7.13502 49.0954 7.23122C48.7747 7.32743 48.0692 7.37553 47.5401 7.32743C47.011 7.29536 46.0008 7.15105 45.2954 7.00675C44.5899 6.86245 43.0667 6.67004 41.9283 6.55781C40.6456 6.44557 38.6734 6.39747 36.7975 6.4616C34.665 6.52574 33.27 6.65401 32.1477 6.87848C31.2658 7.05485 29.935 7.37553 29.1814 7.6C28.4278 7.82447 26.9848 8.33755 25.9747 8.7384C24.9646 9.13924 23.4734 9.84473 22.6878 10.2937C21.9021 10.7426 20.6675 11.5122 19.962 11.9932C19.2565 12.4743 17.9738 13.5004 17.092 14.254C16.2262 15.0076 14.9114 16.3224 14.1899 17.1561C13.4523 17.9899 12.2979 19.5131 11.6245 20.5232C10.9511 21.5333 10.0211 23.1527 9.55612 24.1308C9.09114 25.1089 8.48186 26.5038 8.20928 27.2574C7.93671 28.011 7.6 29.0532 7.4557 29.5823C7.31139 30.1114 7.13502 30.9131 7.03882 31.346C6.94262 31.7949 6.76624 32.8371 6.63797 33.6709C6.50971 34.6008 6.4135 36.3485 6.4135 38.1603C6.4135 40.2608 6.5097 41.7679 6.73418 43.2911C6.91055 44.4776 7.19916 46.1131 7.39156 46.8987C7.58397 47.6844 7.87257 48.7747 8.04895 49.3038C8.24135 49.8329 8.52996 50.5544 8.70633 50.9072C8.8827 51.2599 9.15527 51.9494 9.33165 52.4304C9.49198 52.9114 9.62025 53.6489 9.62025 54.0819C9.62025 54.4987 9.49198 55.108 9.31561 55.4287C9.15527 55.7654 8.8827 56.1662 8.72236 56.3266C8.54599 56.4869 8.09705 56.6473 7.6962 56.7114C7.29536 56.7595 6.65401 56.7274 6.25316 56.6152C5.77215 56.4976 5.21097 56.1556 4.56962 55.589C3.99241 55.0599 3.41519 54.3544 3.11055 53.7772C2.82194 53.2641 2.34093 52.0456 2.02025 51.0675C1.69958 50.0895 1.36287 48.903 1.26667 48.4219C1.17046 47.9409 1.02616 47.2515 0.962025 46.8987C0.881857 46.546 0.705485 45.6802 0.577215 44.9747C0.432911 44.2692 0.320675 43.4194 0.320675 43.0827C0.320675 42.762 0.25654 42.4574 0.160338 42.4093C0.064135 42.3612 0 40.7738 0 38.1603C0 35.8675 0.064135 33.8312 0.144304 33.6228C0.224473 33.4304 0.38481 32.7249 0.481013 32.0675C0.593249 31.4101 0.89789 29.9671 1.15443 28.8608C1.427 27.7544 1.79578 26.4236 1.97215 25.8945C2.13249 25.3654 2.5654 24.243 2.93418 23.4093C3.28692 22.5755 3.97637 21.1325 4.45738 20.2025C4.9384 19.2726 5.86835 17.7173 6.54177 16.7553C7.19916 15.7932 8.17722 14.4464 8.72236 13.789C9.26751 13.1316 10.3418 11.9451 11.1435 11.1435C11.9451 10.3578 13.2759 9.15527 14.1097 8.48186C14.9435 7.80844 16.4346 6.73418 17.3966 6.10886C18.3587 5.46751 19.8498 4.60169 20.6835 4.16878C21.5173 3.73586 23.0405 3.06245 24.0506 2.6616C25.0608 2.27679 26.5038 1.76371 27.2574 1.55527C28.011 1.3308 29.5342 0.962025 30.6726 0.737553C31.7949 0.51308 32.9173 0.320675 33.1899 0.320675C33.4624 0.320675 33.6709 0.25654 33.6709 0.160338C33.6709 0.064135 35.2743 0 38.1603 0V0ZM72.1519 26.7283C72.3764 26.7764 72.7772 26.9046 73.0338 27.0169C73.2903 27.1131 73.8034 27.4819 74.1401 27.8346C74.4768 28.1713 74.8937 28.7485 75.054 29.1013C75.2143 29.454 75.4388 30.5122 75.5511 31.4743C75.6633 32.4203 75.8076 33.1899 75.8878 33.1899C75.9519 33.1899 76 35.2422 76 37.7595C76 40.2768 75.9519 42.3291 75.8878 42.3291C75.8076 42.3291 75.6793 42.9544 75.5671 43.7241C75.4548 44.5097 75.1181 46.1131 74.8295 47.2996C74.5249 48.4861 74.0118 50.1857 73.6911 51.0675C73.3705 51.9494 72.6008 53.681 71.9916 54.9156C71.3823 56.1502 70.3722 57.9139 69.7629 58.8439C69.1536 59.7738 68.1595 61.1367 67.5502 61.8903C66.957 62.6278 65.7384 63.9586 64.8565 64.8405C63.9747 65.7224 62.5958 66.957 61.8101 67.5983C61.0245 68.2236 59.6456 69.2177 58.7637 69.811C57.8819 70.4042 56.4067 71.27 55.4768 71.735C54.5468 72.216 53.184 72.8413 52.4304 73.162C51.6768 73.4667 50.4903 73.8996 49.7848 74.124C49.0793 74.3485 48.0371 74.6532 47.4599 74.7975C46.8827 74.9418 45.6962 75.1983 44.8143 75.3747C43.9325 75.535 43.0186 75.6793 42.7781 75.6793C42.5215 75.6793 42.3291 75.7595 42.3291 75.8397C42.3291 75.9359 40.7578 76 37.9198 76C35.0819 76 33.5105 75.9359 33.5105 75.8397C33.5105 75.7595 33.27 75.6793 32.9975 75.6793C32.7089 75.6793 31.6346 75.535 30.6245 75.3587C29.6143 75.1662 28.0911 74.8456 27.2574 74.6211C26.4236 74.3806 25.3975 74.0278 24.9806 73.8194C24.4835 73.5789 24.0506 73.1941 23.7781 72.7612C23.5215 72.3603 23.3131 71.7671 23.265 71.3502C23.2329 70.9494 23.297 70.3401 23.4093 69.9873C23.5215 69.6346 23.7941 69.1376 24.0346 68.881C24.2591 68.6245 24.7401 68.2878 25.0928 68.1274C25.4456 67.9671 26.0068 67.8228 26.3435 67.8228C26.6641 67.8228 27.2734 67.9511 27.7063 68.1274C28.1232 68.2878 29.1173 68.5764 29.903 68.7527C30.6886 68.9451 32.2118 69.2017 33.27 69.346C34.3443 69.4743 36.3966 69.5865 37.9198 69.5865C39.5072 69.5865 41.3831 69.4903 42.4093 69.346C43.3873 69.2017 44.8624 68.9131 45.6962 68.7046C46.53 68.4962 47.7165 68.1435 48.3418 67.935C48.9671 67.7105 50.1215 67.2456 50.9072 66.8928C51.6928 66.5401 52.7831 65.9949 53.3122 65.7063C53.8414 65.4017 54.7713 64.8245 55.3966 64.4236C56.0219 64.0228 57.0641 63.2692 57.7215 62.7401C58.3789 62.211 59.6135 61.1046 60.4473 60.2709C61.281 59.4371 62.5156 58.0422 63.173 57.1603C63.8464 56.2785 64.7122 55.0118 65.097 54.3544C65.4819 53.697 66.0911 52.5747 66.4278 51.8692C66.7806 51.1637 67.3097 49.9451 67.6143 49.1435C67.919 48.3578 68.384 46.8667 68.6405 45.8565C68.9131 44.8464 69.2338 43.227 69.362 42.2489C69.4903 41.2869 69.5865 39.2987 69.5865 37.8397C69.5865 36.3806 69.4743 34.2641 69.33 33.1097C69.2017 31.9713 69.0414 30.6245 68.9932 30.1435C68.9398 29.5556 68.9932 29.0478 69.1536 28.6203C69.2979 28.2675 69.6667 27.7384 69.9713 27.4658C70.292 27.1772 70.7409 26.8886 70.9975 26.8405C71.238 26.7924 71.4945 26.7283 71.5907 26.6962C71.6869 26.6641 71.9274 26.6802 72.1519 26.7283ZM62.5316 5.78819C63.2852 5.77215 64.2633 5.86835 64.6962 5.99662C65.1451 6.10886 65.8186 6.3654 66.2194 6.55781C66.6203 6.75021 67.1173 7.03882 67.7426 7.51983L64.0228 11.2557C61.9705 13.308 60.2869 15.0717 60.2869 15.1519C60.2869 15.2481 61.6017 16.627 66.1392 21.1485L65.5781 21.373C65.2734 21.5013 64.6321 21.6776 64.1831 21.7899C63.7181 21.8861 62.9966 21.9662 62.5797 21.9662C62.1468 21.9662 61.4093 21.9021 60.9283 21.8059C60.4473 21.7257 59.5013 21.373 58.8439 21.0523C58.0582 20.6675 57.3046 20.1224 56.6793 19.497C55.9257 18.7435 55.573 18.2304 55.1561 17.2363C54.6911 16.146 54.611 15.7131 54.5468 14.3502C54.4827 13.0034 54.5308 12.5544 54.8354 11.5443C55.0278 10.8869 55.4287 9.98903 55.7173 9.54008C56.0059 9.10717 56.6312 8.36962 57.1122 7.92068C57.5772 7.47173 58.2827 6.94262 58.6835 6.73418C59.0844 6.52574 59.8059 6.23713 60.2869 6.07679C60.8321 5.90042 61.6819 5.78819 62.5316 5.78819ZM68.5443 8.38565C68.6245 8.41772 68.9772 8.8346 69.3139 9.31561C69.6506 9.79662 70.0675 10.6464 70.2759 11.2236C70.5485 12.0414 70.6287 12.6186 70.6127 13.8692C70.6127 15.2481 70.5485 15.6329 70.1477 16.5949C69.9072 17.2203 69.5063 18.0059 69.2658 18.3587C69.0253 18.7114 68.4481 19.3367 67.9992 19.7696C67.5502 20.1865 67.1333 20.5232 67.0692 20.5232C66.989 20.5232 65.7705 19.3527 64.3435 17.9257C62.9004 16.4827 61.73 15.2481 61.73 15.1519C61.73 15.0717 63.2211 13.5004 65.049 11.6726C66.8768 9.82869 68.4481 8.36962 68.5443 8.38565ZM51.4684 18.1181C51.9494 18.1181 52.6388 18.2143 52.9916 18.3266C53.3443 18.4549 53.9055 18.7274 54.2262 18.9359C54.5629 19.1443 54.7873 19.3688 54.7232 19.4489C54.6751 19.5131 54.4827 19.5612 54.3224 19.5612C54.162 19.5612 53.7291 19.7055 53.3603 19.8979C52.8954 20.1224 49.4321 23.4734 32.308 40.5654L28.043 36.3165L31.4582 32.9654C33.3342 31.1215 36.1722 28.4439 37.7595 27.0329C39.3468 25.6059 41.2228 23.9705 41.9283 23.3932C42.6338 22.816 43.7561 21.9342 44.4135 21.4532C45.0709 20.9722 46.3055 20.1544 47.1392 19.6574C47.973 19.1603 49.0954 18.5992 49.6245 18.4388C50.1536 18.2785 50.9873 18.1342 51.4684 18.1181ZM54.9958 20.6996C55.2203 20.6996 55.6852 20.7958 56.038 20.9401C56.3907 21.0684 56.8076 21.2928 56.984 21.4532C57.1443 21.5975 57.3848 21.9342 57.5131 22.2068C57.6574 22.4633 57.7696 23.0084 57.7696 23.4093C57.7696 23.8903 57.6413 24.3553 57.3848 24.8042C57.1764 25.173 56.2304 26.135 55.3004 26.9688C54.3544 27.7865 52.1578 29.7266 50.4101 31.2658C48.6785 32.8051 46.4498 34.7612 45.4717 35.611C44.4937 36.4608 41.9283 38.7215 39.7637 40.6135C37.5992 42.5215 35.7713 44.0287 35.6751 43.9806C35.5949 43.9325 34.9696 43.3232 33.1097 41.335L43.2911 31.1857C51.2278 23.265 53.6008 21.0042 54.0338 20.8759C54.3384 20.7797 54.7713 20.7156 54.9958 20.6996ZM58.0101 26.2312C58.0422 26.4076 57.9139 26.9688 57.7376 27.4979C57.5451 28.027 57.1122 29.0371 56.7435 29.7426C56.3907 30.4481 55.6371 31.7148 55.076 32.5485C54.5148 33.3823 53.3924 34.8574 52.5907 35.8354C51.773 36.7975 50.3139 38.465 49.3359 39.5072C48.3418 40.5494 47.3958 41.5916 47.2194 41.8C47.043 42.0245 45.4076 43.6278 40.2447 48.5823L38.4008 46.7705C37.3747 45.7924 36.5409 44.9426 36.5409 44.8945C36.5409 44.8464 37.2785 44.157 38.1924 43.3553C39.1063 42.5536 40.8219 41.0464 42.0084 39.9882C43.211 38.946 46.2413 36.2844 48.7426 34.0717C51.2599 31.8751 54.3544 29.1494 55.6371 27.9949C57.465 26.3755 57.9781 25.9907 58.0101 26.2312ZM27.2574 37.038C27.3055 37.038 28.1873 37.9198 29.2135 38.9941C30.4 40.2447 31.0253 40.9983 30.897 41.0785C30.7848 41.1266 28.8287 41.5755 26.5359 42.0726C24.243 42.5696 22.2388 42.9705 22.0945 42.9705C21.9342 42.9705 21.7899 42.8422 21.7738 42.6979C21.7418 42.5215 22.7359 41.4312 24.4515 39.7316C25.9426 38.2405 27.2093 37.038 27.2574 37.038ZM32.3401 42.3291C32.3722 42.3291 32.8051 42.6979 33.3181 43.1468C33.8152 43.6118 34.2802 44.0768 34.3603 44.189C34.4405 44.3654 33.9274 44.5418 32.0034 45.0068C30.6405 45.3435 29.47 45.5519 29.3899 45.4878C29.3257 45.4236 29.9511 44.6861 30.7848 43.8523C31.6186 43.0186 32.3241 42.3291 32.3401 42.3291ZM35.2743 45.3755C35.4025 45.3755 36.3485 46.1932 37.3587 47.2034C38.3688 48.2295 39.2186 49.1274 39.2506 49.2236C39.2667 49.3038 38.8658 49.7207 38.3688 50.1536C37.8557 50.5705 36.3165 51.7409 34.9536 52.7671C33.5907 53.7933 31.5384 55.2684 30.384 56.038C29.2456 56.8076 27.081 58.1865 25.5738 59.0844C24.0827 59.9983 21.4051 61.4734 19.6413 62.3713C17.8776 63.2852 16.3384 64.103 16.2262 64.1992C16.1139 64.2954 16.0177 64.6321 16.0177 64.9367C16.0177 65.2413 16.1941 66.2835 16.4346 67.2616C16.6751 68.2236 16.8194 69.1857 16.7713 69.3781C16.7232 69.5865 16.5468 69.7468 16.4025 69.7468C16.2422 69.7468 14.9755 68.6084 13.5966 67.2295C12.2017 65.8346 10.935 64.5198 10.5021 63.9426L27.4979 46.9949L28.3797 46.8346C28.8608 46.7544 30.4962 46.4177 31.9873 46.097C33.4945 45.7924 34.7932 45.5038 34.8734 45.4717C34.9696 45.4236 35.146 45.3916 35.2743 45.3755ZM9.60422 64.9367C9.65232 64.9367 10.8869 66.1392 14.9916 70.2599L13.308 70.1637C12.3781 70.0996 10.438 69.9873 8.9789 69.9072C7.51983 69.811 6.14093 69.7148 5.90042 69.6667C5.61181 69.6186 5.45148 69.4903 5.45148 69.2979C5.45148 69.1536 6.3654 68.1114 7.47173 66.973C8.59409 65.8506 9.54008 64.9367 9.60422 64.9367Z" fill="#EAEAEA"/>
</svg>
