<svg width="75" height="77" viewBox="0 0 75 77" fill="none" xmlns="http://www.w3.org/2000/svg">
<path d="M47.1683 0.84566C48.3039 0.561723 50.4173 0.21469 51.8999 0.120044C53.3825 0.0253985 55.559 -0.0376985 56.7892 0.0253985C58.0194 0.0884955 60.2906 0.467078 61.8362 0.908757C63.3819 1.35044 65.3691 2.07605 66.2208 2.54928C67.0725 3.02251 68.5551 4.03206 69.5329 4.82077C70.5108 5.60949 71.741 6.90298 72.2773 7.66014C72.8766 8.57505 73.3813 9.86854 73.6336 11.2882C73.9175 12.7395 74.0122 14.4115 73.8544 16.1782C73.7283 17.661 73.2867 20.5004 72.845 22.4879C72.3719 24.4755 71.5517 27.4726 70.984 29.1131C70.3846 30.7537 69.1544 33.8139 68.2396 35.8961C67.2933 37.9783 65.7477 41.07 64.7383 42.7736C63.7604 44.4457 63.0034 45.96 63.098 46.1493C63.1926 46.3386 63.9181 46.5279 64.7383 46.6226C65.59 46.7172 67.6088 46.591 69.249 46.3702C70.984 46.1178 72.6242 46.0547 73.0974 46.2124C73.6336 46.3702 74.0437 46.7487 74.1699 47.1904C74.2645 47.569 74.1383 48.3577 73.8544 48.9256C73.5705 49.4619 72.5296 50.503 71.5517 51.2286C70.5423 51.9227 68.7443 52.8061 67.5141 53.1847C65.8423 53.6894 64.4859 53.8472 58.5241 53.8787L58.3664 55.1407C58.3033 55.8347 57.8617 59.0211 57.4201 62.2391C56.9785 65.457 56.4738 68.6434 56.2845 69.3375C56.0952 70.0316 55.6852 71.1042 55.3697 71.7036C55.0543 72.3031 54.3288 73.2495 53.7295 73.8174C53.1617 74.3852 51.8999 75.174 50.9536 75.6156C50.0073 76.0573 48.0831 76.5936 46.6952 76.7829C44.8341 77.0669 43.8247 77.0669 42.9099 76.8145C42.2159 76.6252 40.9857 76.0258 40.1656 75.4894C38.9669 74.7323 38.4622 74.1329 37.7052 72.587C37.1058 71.2935 36.6642 69.7161 36.475 68.0755C36.3172 66.6874 36.0649 63.2802 35.9387 60.5039C35.8441 57.7276 35.6864 55.393 35.6233 55.2984C35.5602 55.2038 34.6454 55.5508 33.5414 56.0871C31.7749 56.9389 31.2702 57.0336 28.5574 57.0336C26.7279 57.0336 25.1507 56.8758 24.4567 56.5919C23.8574 56.3395 22.9742 55.7716 22.4695 55.3299C21.9963 54.8883 21.5863 54.2257 21.5863 53.8787C21.5863 53.5317 21.8386 52.9323 22.154 52.5221C22.5326 52.0174 23.6051 51.5441 25.5608 51.0078C27.6742 50.4084 28.6521 49.9667 29.4091 49.2095C30.2293 48.3893 30.3554 48.1053 30.04 47.7898C29.8507 47.569 29.4091 47.3797 29.1252 47.4113C28.8098 47.4113 28.0527 47.1904 26.3494 46.4648L22.501 50.7554C20.356 53.1216 18.3372 55.2038 17.9903 55.393C17.6433 55.5508 16.9493 55.8347 16.4131 55.9609C15.8453 56.1187 14.962 56.0871 14.205 55.8978C13.3848 55.6454 12.407 54.9829 11.366 53.9103C10.4197 52.9007 9.15797 51.0393 8.18011 49.1149C7.26534 47.4113 5.9405 44.288 5.21499 42.2058C4.52102 40.1236 3.41699 36.4955 2.81765 34.1609C2.21832 31.8263 1.39818 28.1036 0.956566 25.8952C0.388776 23.0243 0.167969 20.8159 0.167969 18.2289C0.167969 16.1782 0.388776 13.6228 0.641127 12.3293C0.925022 11.0674 1.46127 9.30066 1.87134 8.44885C2.24986 7.56549 3.07 6.30355 3.66934 5.64103C4.26867 4.97852 5.30962 4.03206 6.00358 3.55883C6.69755 3.0856 8.18011 2.39154 9.31569 2.01295C10.609 1.57128 12.6278 1.25579 14.6781 1.1296C17.0755 1.0034 18.8735 1.09805 21.1446 1.47663C22.8796 1.76057 25.4346 2.32844 29.346 3.49574L30.7655 2.61238C31.5541 2.13915 32.879 1.60282 33.7622 1.41353C34.6139 1.22424 35.9072 0.971854 36.6011 0.877208C37.2951 0.751014 39.5032 0.84566 41.4904 1.03495C44.6764 1.35044 45.3703 1.31889 47.1683 0.84566Z" fill="#BDBDBD"/>
<path fill-rule="evenodd" clip-rule="evenodd" d="M54.108 2.29694C55.9375 2.29694 58.3979 2.51778 59.6281 2.77016C60.8584 3.02255 62.8141 3.71662 64.0443 4.28449C65.4322 4.94701 67.0409 6.08276 68.3973 7.37625C69.8799 8.76438 70.7 9.83703 71.047 10.815C71.4571 11.9508 71.5202 12.9288 71.3625 15.8628C71.2678 17.8504 70.8893 20.6266 70.5423 22.0148C70.2269 23.4029 69.5329 25.7375 69.0598 27.2203C68.5866 28.703 67.6403 31.2585 66.9463 32.899C66.2839 34.5395 65.243 36.811 64.6436 37.9468C64.0758 39.0825 63.2241 40.4075 61.9939 41.8903L62.2463 40.9439C62.404 40.4075 62.5302 38.7986 62.5933 37.3158C62.6248 35.833 62.5302 33.4038 62.3409 31.8579C62.057 29.681 62.0886 28.2298 62.4986 24.791C62.8772 21.3838 62.9087 20.1218 62.6248 19.0177C62.4355 18.2289 61.6785 16.4622 60.9845 15.0741C60.2906 13.686 59.0919 11.7615 58.3664 10.815C57.6409 9.86858 56.2529 8.35425 55.3382 7.47089C54.3919 6.61908 52.72 5.2625 51.5845 4.50533C49.6603 3.24339 49.5657 3.1172 50.165 2.73862C50.5751 2.42313 51.8053 2.29694 54.108 2.29694V2.29694ZM15.9399 3.27494C16.8862 3.27494 19.0312 3.46423 20.6715 3.71662C22.3117 3.96901 24.1728 4.31604 24.7722 4.50533C25.3715 4.66307 26.097 4.94701 26.3494 5.10475C26.7594 5.35714 26.6648 5.64108 25.7816 6.77683C25.2138 7.53399 24.2675 9.07987 23.6681 10.2472C23.0688 11.446 22.2802 13.4336 21.9332 14.664C21.6178 15.9259 21.1762 18.1027 21.0184 19.4909C20.8292 20.879 20.6715 25.8637 20.6084 30.5329C20.5137 38.8617 20.5453 39.0825 21.2393 40.6284C21.6493 41.4802 22.4695 42.8052 23.0688 43.5308C23.6681 44.288 24.0782 45.0767 24.0151 45.266C23.9205 45.4869 22.501 47.222 20.8292 49.1465C19.1258 51.0709 17.3594 52.8692 16.8547 53.1531C16.3184 53.5002 15.5929 53.6579 15.0567 53.5633C14.5835 53.5002 13.5741 52.7746 12.754 51.9228C11.8707 51.0078 10.7351 49.2411 9.85192 47.4113C9.06332 45.7708 7.8962 42.9314 7.26532 41.1016C6.63445 39.2718 5.71967 36.2431 5.21497 34.3187C4.74181 32.4258 3.95322 29.0816 3.48006 26.9048C2.94381 24.4124 2.56529 21.5415 2.47066 19.1754C2.34448 16.336 2.43911 14.8532 2.81764 13.2443C3.10153 12.077 3.66932 10.4365 4.11094 9.5531C4.55255 8.66974 5.49887 7.4078 6.22438 6.68218C6.98143 5.98811 8.27473 5.07321 9.15796 4.63153C10.0096 4.2214 11.5237 3.74817 12.4701 3.59043C13.4164 3.43268 14.9936 3.30649 15.9399 3.27494ZM38.6515 3.27494C40.481 3.27494 42.7522 3.46423 43.6985 3.68507C44.6448 3.93746 46.222 4.41069 47.1683 4.75772C48.1146 5.1363 49.7549 6.01966 50.7959 6.74528C51.8368 7.43934 53.3194 8.63819 54.0449 9.33226C54.8019 10.0579 56.0321 11.5091 56.7892 12.5502C57.5147 13.5913 58.5872 15.3265 59.1234 16.4307C59.6597 17.5033 60.0382 18.5444 59.9436 18.7022C59.8489 18.8599 58.9657 19.0177 57.9563 19.0177C56.9785 19.0177 55.5905 19.1754 54.8966 19.3647C54.2026 19.554 53.1301 20.248 52.4992 20.879C51.8053 21.5731 51.2059 22.5826 50.9536 23.4344C50.7328 24.2547 50.6381 25.5482 50.7643 26.5262C50.8589 27.4096 51.2375 29.0501 51.616 30.1227C51.963 31.2269 53.2247 34.0347 54.3919 36.3693C55.559 38.7039 57.1677 41.701 57.9563 42.9945C58.7449 44.288 59.3442 45.4869 59.2812 45.6761C59.2181 45.8654 58.808 46.2125 58.3664 46.4649C57.9248 46.7173 57.357 47.3482 57.1046 47.8845C56.8838 48.4209 56.5368 50.4715 56.316 52.4591C56.1268 54.4466 55.6221 58.6426 55.212 61.7659C54.7704 64.8892 54.2341 68.2018 53.9502 69.1167C53.6979 70.0001 53.0986 71.1989 52.5939 71.7352C52.1207 72.3031 51.2059 72.9972 50.5435 73.3127C49.9126 73.6597 48.4616 74.1329 47.326 74.3853C46.0327 74.6692 44.771 74.7639 43.9193 74.6377C43.1938 74.5115 42.1528 74.1329 41.6481 73.7543C41.1434 73.4073 40.3233 72.3977 39.8501 71.5459C39.2193 70.4102 38.8723 69.1482 38.6515 67.1291C38.4622 65.5833 38.2729 60.9456 38.2729 56.8759C38.2414 50.0298 38.1783 49.3673 37.579 48.2C37.0743 47.2536 36.5065 46.7488 35.2763 46.1494C34.3615 45.7077 33.6045 45.1714 33.6045 44.9505C33.6045 44.7612 34.1722 43.1207 34.8978 41.3225C35.5917 39.5557 36.3803 37.3158 36.6327 36.3693C36.885 35.4229 37.0743 33.2776 37.0743 31.6371C37.0743 29.9965 36.8535 27.4411 36.6011 25.9583C36.3172 24.444 35.781 22.7088 35.3394 21.9201C34.7716 20.9737 34.1407 20.4058 33.0367 19.901C31.838 19.3647 31.1756 19.27 29.5037 19.3962C28.3682 19.4909 26.8225 19.8064 26.0339 20.0903C25.2453 20.3742 24.3621 20.6897 24.0467 20.7528C23.6681 20.879 23.4789 20.6897 23.3527 20.1849C23.2896 19.8064 23.4473 18.4182 23.6997 17.1247C23.9836 15.8313 24.646 13.686 25.1822 12.3925C25.7185 11.099 26.6648 9.39535 27.2641 8.60664C27.8635 7.81793 28.7782 6.83992 29.3145 6.39824C29.8192 5.95656 30.6709 5.32559 31.2071 5.01011C31.7434 4.69462 32.8789 4.1583 33.7622 3.84281C34.8978 3.43268 36.2541 3.27494 38.6515 3.27494ZM60.259 21.3838L60.1959 23.119C60.1644 24.0654 60.1328 26.8417 60.1644 29.2709C60.1644 31.7002 60.1959 34.9812 60.2275 36.5586C60.259 38.7039 60.1328 39.5557 59.7859 39.9659C59.4073 40.4075 59.2496 40.4391 58.9342 40.0921C58.7449 39.8712 57.5778 37.6944 56.3791 35.2651C55.1805 32.8359 54.0449 30.3436 53.8241 29.7441C53.6348 29.1447 53.3509 27.8512 53.1617 26.9048C53.0039 25.8321 53.0039 24.7595 53.1617 24.0654C53.3825 23.2767 53.8556 22.7088 54.8019 22.0779C55.9691 21.3207 56.4422 21.226 60.259 21.3838ZM30.3554 21.6993C31.2702 21.7939 32.2165 22.0463 32.4373 22.2356C32.6581 22.4564 33.1313 23.1505 33.5098 23.7499C33.8568 24.3809 34.33 26.0214 34.5508 27.5358C34.7716 29.0185 34.8662 31.4162 34.8031 32.899C34.7085 34.4449 34.3615 36.3062 33.983 37.3158C33.636 38.2622 32.8159 40.4391 32.2165 42.1112C31.144 45.0136 31.0179 45.2029 30.1977 45.2029C29.7246 45.2029 28.6205 44.8559 27.7688 44.4773C26.8856 44.0672 25.7185 43.1838 25.1192 42.4897C24.5198 41.8272 23.7312 40.6284 23.3842 39.8397C22.9742 38.8932 22.7534 37.789 22.7849 36.5271C22.7849 35.486 22.8795 32.2996 22.9426 29.4287C23.1003 24.3809 23.1319 24.1916 23.8574 23.6553C24.2675 23.3713 25.5292 22.7404 26.6648 22.3302C28.242 21.7308 29.0937 21.5731 30.3554 21.6993ZM61.3631 47.9161C61.6154 48.0423 62.404 48.3262 63.098 48.5786C63.855 48.8625 65.306 49.0203 66.7255 48.9887C68.0188 48.9572 69.3121 48.9256 69.5645 48.9572C69.9114 48.9572 69.943 49.0518 69.6906 49.3673C69.5014 49.5882 68.5551 50.1245 67.6403 50.5346C66.1893 51.1971 65.4322 51.3233 62.6563 51.3233C59.912 51.3549 59.3442 51.2602 59.0288 50.8186C58.7765 50.4084 58.7765 50.0614 59.1234 49.3989C59.3442 48.9256 59.8489 48.3578 60.2275 48.1369C60.5745 47.9161 61.1107 47.8214 61.3631 47.9161ZM34.0461 48.0423C34.2353 48.0423 34.7085 48.3578 35.1186 48.7679C35.4971 49.1465 35.8441 49.809 35.8441 50.2507C35.8441 50.7239 35.3709 51.5126 34.6454 52.2698C33.983 52.9639 32.8159 53.8157 32.0273 54.1312C31.0809 54.5413 29.9138 54.7621 28.5574 54.7621C27.4219 54.7621 26.1916 54.6044 25.7816 54.4151C25.2138 54.0996 25.1507 53.9419 25.4661 53.5633C25.6869 53.2793 26.0024 53.0585 26.1916 53.09C26.3809 53.09 27.2641 52.8692 28.1474 52.6168C29.5037 52.2382 30.1977 51.765 31.7749 50.0929C32.8474 48.9572 33.8568 48.0423 34.0461 48.0423Z" fill="#EAEAEA"/>
<path d="M54.8969 23.0557C55.023 22.7718 55.4331 22.4879 55.8116 22.3933C56.1586 22.3302 56.6949 22.2356 56.9472 22.204C57.1996 22.1725 57.7043 22.3617 58.0512 22.5825C58.6821 23.0242 58.6821 23.0557 57.8304 23.8758C57.3573 24.3175 56.7895 24.696 56.5687 24.696C56.3479 24.7275 55.8116 24.4752 55.4016 24.1597C54.8653 23.7497 54.7076 23.4342 54.8969 23.0557Z" fill="#919191"/>
<path d="M28.8101 23.7812C28.7785 23.4342 28.9678 23.0872 29.2202 22.9926C29.441 22.898 30.2926 22.8664 31.0812 22.9611C31.996 23.0242 32.6584 23.2765 32.9108 23.655C33.2262 24.1282 33.1947 24.3175 32.7531 24.7591C32.4376 25.043 31.8383 25.3899 31.3967 25.4846C30.8604 25.6108 30.3242 25.4846 29.7564 25.043C29.2517 24.6644 28.8416 24.0966 28.8101 23.7812Z" fill="#919191"/>
</svg>
