<svg width="78" height="78" viewBox="0 0 78 78" fill="none" xmlns="http://www.w3.org/2000/svg">
<path fill-rule="evenodd" clip-rule="evenodd" d="M0 0H78V78H0V0ZM3.91866 74.0813H74.0813V3.91866H3.91866V74.0813ZM58.7799 36.6488C60.0115 36.7048 61.355 36.8727 61.9522 37.0407C62.512 37.2273 63.4077 37.5818 63.9115 37.8244C64.434 38.0856 65.3857 38.8694 66.0574 39.5598C66.7292 40.2502 67.4196 41.0713 67.6062 41.4072C67.8675 41.8923 67.8861 42.023 67.6809 42.2096C67.5316 42.3402 66.356 43.1612 62.6986 45.6244L61.523 44.3928C60.4967 43.2919 60.2541 43.1239 59.3397 42.9373C58.5373 42.7694 58.1268 42.7694 57.399 42.956C56.7833 43.1239 56.2981 43.4038 55.9435 43.7957C55.5144 44.2995 55.4211 44.5794 55.4211 45.3818C55.4211 46.0163 55.5517 46.5574 55.7569 46.8746C55.9249 47.1359 56.3354 47.5651 56.634 47.789C56.9325 48.0316 58.5373 48.8526 60.1794 49.599C61.8215 50.3641 63.8368 51.3718 64.6392 51.8569C65.4416 52.3234 66.5799 53.1818 67.1584 53.7416C67.7368 54.3201 68.4273 55.1971 68.7072 55.701C68.9871 56.2234 69.3416 57.1378 69.5096 57.7536C69.6775 58.4067 69.8081 59.6196 69.8081 60.6459C69.8268 61.9895 69.7148 62.7172 69.4163 63.6316C69.1923 64.3034 68.7072 65.2923 68.3153 65.8521C67.9421 66.412 67.2144 67.1957 66.7105 67.5876C66.188 67.9981 65.311 68.5392 64.7512 68.8005C64.1914 69.0617 63.0904 69.4349 62.3254 69.6215C61.3177 69.8828 60.2541 69.9761 58.5933 69.9761C56.8766 69.9761 55.8689 69.8828 54.7679 69.6029C53.9469 69.3976 52.566 68.8751 51.689 68.4646C50.4574 67.8488 49.7856 67.3636 48.7034 66.2627C47.9196 65.479 47.0799 64.4526 46.8373 63.9675C46.5263 63.3828 46.433 63.0282 46.5574 62.9038C46.6694 62.7919 47.9196 62.0455 51.9689 59.7129L52.622 60.4967C52.9766 60.9445 53.611 61.6163 54.0215 62.0081C54.4321 62.4 55.1038 62.9038 55.5144 63.1278C56.0928 63.4263 56.69 63.5383 58.1268 63.5943C59.8249 63.6876 60.0861 63.6502 60.9072 63.2397C61.411 62.9971 62.0268 62.5679 62.2694 62.2694C62.6053 61.8589 62.6986 61.5416 62.6986 60.6459C62.6986 59.6383 62.6426 59.4517 62.0641 58.8172C61.7096 58.444 60.9632 57.9029 60.422 57.623C59.8809 57.3431 58.0522 56.4474 56.3541 55.6636C54.5067 54.7866 52.8086 53.8349 52.0809 53.2751C51.4278 52.7526 50.6254 51.9689 50.2895 51.5024C49.9536 51.0359 49.4498 50.1962 49.1512 49.6364C48.6287 48.6474 48.6101 48.5354 48.6101 42.9933L49.2818 41.6124C49.7483 40.6421 50.2895 39.9144 50.9799 39.2799C51.5397 38.7574 52.4167 38.123 52.9206 37.8431C53.4244 37.5632 54.4694 37.1713 55.2345 36.9474C56.3914 36.6301 57.0072 36.5742 58.7799 36.6488ZM44.7847 36.9474V43.1053L35.7345 43.1986L35.6411 69.6029L28.6435 69.5096L28.5502 43.1053H19.4067L19.3694 40.1569C19.3507 38.5335 19.4067 37.134 19.5 37.078C19.5933 37.0033 25.3034 36.9474 44.7847 36.9474Z" fill="white"/>
</svg>
