<svg width="72" height="75" viewBox="0 0 72 75" fill="none" xmlns="http://www.w3.org/2000/svg">
<path d="M36.0392 0.556147C34.6148 0.353722 33.5568 0.42093 32.4415 0.80407C31.8013 1.01923 31.2355 1.25593 31.1994 1.31972C31.1562 1.39627 30.9759 1.50132 30.7831 1.56715C30.2254 1.75872 28.4876 3.33613 27.566 4.50896C26.2191 6.2206 25.0077 8.18235 24.3166 9.83483C23.9648 10.6414 23.4805 11.7748 23.2522 12.3322C23.0105 12.8827 22.6518 13.9159 22.467 14.6106C22.2687 15.2985 22.0643 15.9667 21.9923 16.0943C21.8698 16.3111 20.9591 16.2399 19.6336 15.9237C19.3159 15.8434 18.6579 15.7534 18.1546 15.7262C17.6513 15.6989 17.1831 15.6403 17.1026 15.5991C16.888 15.4893 14.3778 15.3728 12.0957 15.3729C11.6192 15.3593 11.0995 15.4224 10.948 15.4764C10.7759 15.5363 10.5913 15.557 10.5242 15.5227C10.3096 15.4129 8.34444 15.7396 7.0321 16.1042C5.80223 16.4452 3.88403 17.2398 3.76156 17.4566C3.73275 17.5077 3.37007 17.7825 2.96616 18.0692C2.27683 18.5552 2.17796 18.669 1.37437 20.2146C0.88352 21.1145 0.523581 21.9662 0.546436 22.1095C0.56929 22.2527 0.558362 22.6088 0.51539 22.8992C0.353931 24.1649 0.894979 26.5134 1.82553 28.6007C2.10574 29.2373 2.37551 29.7699 2.42917 29.7974C2.48283 29.8248 2.57996 29.9896 2.64305 30.1534C2.84476 30.6841 3.68464 31.9522 4.7846 33.4027C6.08801 35.1053 6.6601 35.7761 8.16646 37.3029C9.29598 38.4562 9.34144 38.5288 9.11489 38.8075C8.98721 38.9724 8.43625 39.6113 7.87907 40.2306C4.99332 43.4735 2.31551 48.1545 1.68879 51.0402C1.6016 51.4395 1.49752 52.3893 1.46126 53.1271C1.36787 55.2825 2.03187 56.954 3.59388 58.4436C4.32172 59.1447 6.70421 60.314 7.93582 60.5823C10.2845 61.0766 12.0348 61.3142 12.6308 61.208C12.7679 61.1795 13.1494 61.1773 13.4691 61.1929C13.7888 61.2084 14.5045 61.1963 15.0438 61.1598C15.5831 61.1232 16.1492 61.1004 16.2781 61.117C16.4143 61.1209 16.804 61.0736 17.1463 61.0185C17.4752 60.9565 18.1598 60.8463 18.6589 60.7892C19.1445 60.7252 19.6848 60.6563 19.8425 60.6219C20.4663 60.497 21.4199 60.2777 22.388 60.033L23.3839 59.7696L23.8091 61.0066C24.4031 62.7408 26.4903 67.0969 26.8122 67.2616C26.8793 67.2959 26.9702 67.441 27.0137 67.5784C27.1761 68.0561 29.4205 71.0621 29.7559 71.2336C29.8229 71.2679 30.2534 71.669 30.7025 72.1289C31.3964 72.8291 31.77 73.0859 33.1382 73.7858C34.5869 74.5268 34.8902 74.6326 35.9422 74.7597C36.8787 74.877 37.3706 74.8326 38.5592 74.5034C39.3633 74.2734 40.2106 73.9669 40.4466 73.8246C42.8363 72.3175 44.0341 71.0229 45.9568 67.8629C47.4122 65.4998 48.7658 62.4597 49.351 60.2599L49.7114 58.948L50.0292 59.0283C50.6378 59.1752 52.4077 59.4392 53.2915 59.4967C53.7742 59.5298 54.229 59.5816 54.2961 59.6159C54.5912 59.7669 59.8816 59.8586 60.4785 59.72C60.6434 59.6728 60.8476 59.6786 60.9281 59.7198C60.9952 59.7541 61.2756 59.7167 61.5509 59.6273C61.8261 59.5379 62.0931 59.4936 62.1602 59.5279C62.4553 59.6788 65.747 58.7482 66.8261 58.215C68.4452 57.399 69.0478 56.8522 70.0081 55.3046C70.8758 53.8905 70.8984 53.8198 70.9941 52.7013C71.048 52.0548 71.0472 51.4131 71.011 51.263C70.9541 51.1188 70.9528 50.9373 70.9888 50.8736C71.0969 50.6822 70.1798 47.7139 69.7435 46.833C69.512 46.3858 69.2815 45.9061 69.238 45.7688C69.1946 45.6315 69.0634 45.4657 68.9561 45.4108C68.8488 45.3559 68.7971 45.2637 68.8331 45.2C68.9052 45.0724 67.1067 42.4096 66.2847 41.4465C65.1611 40.099 64.3433 39.2204 62.7317 37.5739C61.9986 36.8207 61.9842 36.8462 63.2232 35.5398C64.3778 34.3218 66.3576 31.5199 67.4814 29.5297C70.4494 24.2736 70.8006 20.3756 68.5873 17.4677C68.0967 16.8057 67.8696 16.6567 66.2279 15.7676C64.5057 14.8373 64.3509 14.7746 62.7996 14.4908C61.2689 14.2011 57.8078 13.9928 57.1356 14.1422C56.9707 14.1894 56.7933 14.1973 56.7531 14.1768C56.6055 14.1013 54.8145 14.3032 52.8359 14.623C51.0904 14.8975 50.5212 15.0175 48.7635 15.4667L48.2006 15.6062L48.065 15.1423C47.8362 14.384 47.1764 12.7969 46.5117 11.3717C45.9875 10.2486 45.5545 9.48452 44.543 7.81616C44.1607 7.17667 43.0265 5.51131 42.946 5.47014C42.9057 5.44956 42.6558 5.15731 42.3863 4.83858C41.9143 4.23543 41.3455 3.68138 40.1449 2.62335C39.3087 1.8997 36.887 0.677407 36.0392 0.556147ZM37.6492 5.14492C39.312 6.45586 40.95 8.57621 42.523 11.4854C42.8909 12.1504 43.1907 12.8135 43.1939 12.9302C43.19 13.0597 43.2675 13.198 43.3479 13.2392C43.415 13.2735 43.5514 13.4912 43.6403 13.7011C43.7086 13.9169 43.9849 14.683 44.2559 15.3971L44.7266 16.7067L44.0823 16.8375C43.739 16.9249 43.4081 17.0517 43.3577 17.141C43.3072 17.2303 43.2103 17.2794 43.1433 17.245C43.0896 17.2176 42.3124 17.4613 41.4434 17.806C40.5539 18.1567 39.6231 18.5192 39.3613 18.6154C38.0305 19.135 35.3229 20.3479 35.2581 20.4628C35.2364 20.501 34.6701 20.31 34.0046 20.0189C32.5395 19.3681 29.2898 18.2649 27.141 17.692C26.2694 17.4599 25.541 17.2189 25.508 17.1856C25.4563 17.0934 25.6546 16.4055 26.4447 13.9652C26.8968 12.5522 27.1808 11.9575 28.5855 9.46984C30.1477 6.73384 30.262 6.5621 31.1592 5.73855C32.8342 4.2112 33.9804 3.71228 35.3141 3.98342C36.3167 4.1674 36.5313 4.27718 37.6492 5.14492ZM65.5897 19.4695C66.4458 20.4335 66.5889 21.9865 66.0016 24.2512C65.5222 26.1105 63.4115 29.8485 61.6433 31.9694C59.5147 34.5144 59.3953 34.6341 59.13 34.3998C57.051 32.6622 52.873 29.6209 51.7731 29.0582C51.3572 28.8455 51.0435 28.6357 51.0795 28.5719C51.2452 28.2785 49.9211 21.2545 49.4419 19.7763C49.3282 19.4879 49.3041 19.1632 49.3545 19.0738C49.4121 18.9718 50.011 18.7684 50.6832 18.619C51.342 18.4627 52.0967 18.2897 52.3513 18.2062C52.5987 18.1354 52.8854 18.1176 52.9659 18.1588C53.0463 18.1999 53.2041 18.1655 53.302 18.0841C53.3998 18.0026 53.7359 17.9279 54.0432 17.9042C54.3639 17.8873 55.095 17.8174 55.6961 17.7631C56.2911 17.6893 56.8231 17.6655 56.8768 17.6929C56.9305 17.7204 57.0944 17.7056 57.2325 17.6447C57.7015 17.4571 61.4142 17.679 62.5231 17.9503C63.9229 18.2881 65.0301 18.838 65.5897 19.4695ZM46.3068 22.2667C46.5763 23.4733 46.8615 24.8359 46.9425 25.3049L47.0796 26.1642L43.3237 24.2431L39.5677 22.3219L40.4098 21.9634C41.6653 21.4546 41.9271 21.3583 44.0897 20.5901C44.6886 20.3868 45.2607 20.1697 45.372 20.0951C45.4833 20.0204 45.6338 19.9988 45.7009 20.0331C45.7546 20.0605 46.0301 21.0729 46.3068 22.2667ZM47.528 30.4219C47.7469 30.6161 47.9101 31.7354 47.8482 32.641C47.8279 32.8608 47.8664 33.16 47.9295 33.3238C48.0132 33.4817 48.0278 33.6701 47.9918 33.7339C47.9486 33.8104 47.9531 34.1087 47.9916 34.4079C48.0363 34.7267 48.077 35.1751 48.0763 35.4213C48.0902 35.8559 48.115 36.8223 48.163 38.1457C48.1965 39.4947 48.2142 40.4738 48.2 40.7132C48.196 40.8427 48.1861 41.1665 48.1978 41.452C48.2033 41.7179 48.1824 42.3978 48.1655 42.9482L48.1347 43.9518L47.5937 44.267C47.302 44.4467 47.0238 44.6332 46.9806 44.7098C46.9446 44.7735 46.6385 44.9787 46.2923 45.1633C45.946 45.3479 45.6255 45.5787 45.5607 45.6935C45.5031 45.7955 45.399 45.8574 45.3319 45.8231C45.2649 45.7888 44.9392 45.9675 44.5909 46.2168C44.2355 46.479 43.5409 46.9129 43.0349 47.1967C41.3984 48.1354 41.0789 48.3337 40.6276 48.6125C40.3916 48.7549 39.9618 48.9955 39.6784 49.13C39.395 49.2645 39.1312 49.4256 39.0879 49.5021C39.0519 49.5659 38.8788 49.6582 38.6942 49.6789C38.5159 49.7192 38.2324 49.8537 38.0511 49.9912C37.1526 50.6332 36.2352 51.0025 35.8164 50.887C35.5802 50.8155 32.7818 49.4334 29.6027 47.8073L23.8212 44.85L23.7402 43.4932C23.7012 42.7663 23.621 42.0511 23.5641 41.9069C23.5 41.7755 23.4916 41.6067 23.5276 41.5429C23.5708 41.4664 23.5663 41.1681 23.5278 40.8689C23.4831 40.5501 23.4424 40.1017 23.4431 39.8555C23.4292 39.4209 23.4043 38.4545 23.3564 37.1311C23.3219 35.8145 23.3052 34.803 23.3142 34.5116C23.3253 34.3693 23.3343 34.0779 23.334 33.864C23.34 33.6698 23.3599 33.0223 23.3787 32.4071L23.4187 31.3259L24.3512 30.6849C24.8726 30.3432 25.4497 29.9642 25.6444 29.8337C25.8392 29.7031 26.0896 29.5352 26.2009 29.4606C26.6048 29.1739 30.3043 26.9392 30.9897 26.5828C31.1494 26.4836 31.7935 26.139 32.4026 25.8257C33.0189 25.4997 33.5806 25.1786 33.6568 25.1354C33.7753 25.0481 35.0976 24.3597 35.3254 24.2625C35.5532 24.1652 46.8973 29.8856 47.528 30.4219ZM30.4924 22.8098C30.2285 22.9708 29.6669 23.2919 29.2371 23.5324C28.8146 23.7602 28.1489 24.1432 27.7738 24.3788C27.4121 24.6213 27.0318 24.8049 26.9225 24.8148C26.8338 24.8188 26.6947 24.912 26.6371 25.0141C26.5722 25.1289 26.2734 25.3213 25.9559 25.4549C25.6385 25.5885 25.3324 25.7937 25.2676 25.9085C25.2028 26.0233 25.0636 26.1166 24.9543 26.1265C24.8523 26.1236 24.5266 26.3023 24.2546 26.5084L23.7322 26.8825L23.8097 26.1329C23.8494 25.7257 23.9148 25.1507 23.9577 24.8603C24.0007 24.5699 24.1204 23.7762 24.2228 23.105C24.3117 22.4271 24.4602 21.5823 24.5464 21.2153L24.7096 20.5589L26.8027 21.1691C27.9571 21.513 29.3539 21.9479 29.8924 22.1576C30.4516 22.3614 30.9097 22.53 30.9303 22.5241C30.9571 22.5378 30.749 22.6615 30.4924 22.8098ZM54.8062 35.4437L56.7818 36.9968L56.5398 37.3334C56.3977 37.5238 55.9568 37.9067 55.5663 38.2002C55.1758 38.4937 54.8122 38.801 54.7689 38.8775C54.6897 39.0178 53.5925 39.92 52.4488 40.7819L51.8285 41.2374L51.831 40.7125C51.8399 40.4211 51.8238 39.8374 51.8305 39.3969C51.8166 38.9623 51.8096 38.301 51.8081 37.9056C51.7803 36.1485 51.676 34.2207 51.5923 34.0628C51.5736 34.004 51.5796 33.8097 51.6196 33.6164C51.6697 33.3132 51.7244 33.3083 52.261 33.5828C52.5829 33.7474 53.7224 34.5769 54.8062 35.4437ZM20.8618 21.1886C20.7766 21.5232 20.6936 22.0069 20.6651 22.2718C20.6571 22.5308 20.5764 23.1636 20.4862 23.6601C20.1166 25.9374 20.0736 26.2278 20.1223 26.4171C20.1327 26.5211 20.1022 26.8508 20.0592 27.1412C20.0028 27.4248 19.9437 28.0193 19.937 28.4598C19.9134 29.4508 19.8702 29.5273 19.0139 30.1252C17.9351 30.8723 16.47 31.9973 16.3979 32.1249C16.3619 32.1887 16.0549 32.4262 15.7138 32.6628C15.3934 32.8935 14.9679 33.2185 14.7917 33.4079C14.3911 33.8113 11.9969 35.908 11.9144 35.9316C11.8114 35.9611 10.0924 34.2597 9.58734 33.6232C9.34464 33.3182 9.07412 33.0318 8.99363 32.9907C8.91315 32.9495 8.68287 32.6837 8.48663 32.4189C8.29759 32.1414 7.79356 31.4725 7.38766 30.9361C6.98896 30.3868 6.59747 29.8248 6.54058 29.6807C6.47649 29.5492 6.25019 29.1539 6.02811 28.843C5.79982 28.5125 5.6458 28.2036 5.68182 28.1398C5.71064 28.0887 5.67238 28.0034 5.5919 27.9622C5.36386 27.8456 4.56223 25.7749 4.32375 24.6664C4.07285 23.5186 4.16625 22.251 4.54084 21.5876C4.82179 21.0901 5.82933 20.2243 6.43644 19.9758C6.91264 19.7754 9.15899 19.1651 9.83019 19.0481C11.4737 18.7706 15.2398 18.8062 17.512 19.1299C18.6177 19.2844 19.1261 19.3636 20.2174 19.5436L21.0921 19.6786L21.0441 20.1309C21.0227 20.383 20.947 20.854 20.8618 21.1886ZM60.3805 40.268C62.3968 42.2695 63.4026 43.4581 65.072 45.8904C66.0636 47.3184 67.4398 50.4229 67.2381 50.7801C67.2093 50.8312 67.2312 51.0068 67.3149 51.1647C67.4855 51.5973 67.3315 53.0641 67.0506 53.5616C66.8057 53.9954 65.6178 54.9662 65.0663 55.1774C63.784 55.6725 61.9448 56.1128 60.6198 56.2243C60.2238 56.252 59.8475 56.3061 59.7784 56.3366C59.6063 56.3965 54.8562 56.2358 54.0218 56.1214C52.6717 55.9406 50.6181 55.5971 50.6129 55.5452C50.5756 55.4274 50.8439 53.7889 50.9232 53.6486C50.9664 53.572 51.0277 53.1266 51.0488 52.6606C51.0627 52.2073 51.1313 51.7491 51.1889 51.647C51.2394 51.5577 51.3079 51.0995 51.3352 50.6531C51.3698 50.194 51.445 49.2952 51.4989 48.6487C51.5528 48.0021 51.6353 47.0907 51.6564 46.6246C51.7255 45.7063 51.8181 45.5728 52.8537 44.9023C53.2082 44.6725 53.5287 44.4418 53.5719 44.3653C53.6079 44.3015 53.9706 44.0266 54.3395 43.7714C54.729 43.5102 55.071 43.2412 55.1142 43.1647C55.1575 43.0881 55.3882 42.8938 55.6386 42.7259C56.1951 42.3528 57.9434 40.8794 58.4151 40.3808C58.7251 40.0461 59.4802 39.4129 59.5339 39.4404C59.5339 39.4404 59.9242 39.8209 60.3805 40.268ZM47.7557 49.6443C47.6941 49.8758 47.6481 50.2634 47.633 50.5351C47.6213 51.1375 47.387 52.777 47.1891 53.6788C47.1029 54.0457 47.0219 54.4647 47.0107 54.6069C46.9831 54.8395 46.9079 54.8503 46.6262 54.7062C46.425 54.6033 45.4872 54.3045 44.5145 54.0371C43.5551 53.7766 42.28 53.371 41.6878 53.1339L40.5973 52.7076L40.9321 52.4514C41.1269 52.3208 41.3144 52.203 41.3897 52.1922C41.465 52.1813 41.7422 52.0272 42.0132 51.8534C42.2976 51.6865 42.7418 51.4204 43.0046 51.2918C43.288 51.1572 43.6621 50.954 43.8435 50.8165C44.0382 50.6859 44.4618 50.4258 44.7946 50.2343C45.1141 50.036 45.7736 49.6334 46.2662 49.3428C46.7454 49.0453 47.2102 48.7733 47.3205 48.7311C47.4235 48.7016 47.5708 48.5632 47.6573 48.4101C47.7726 48.206 47.8118 48.2589 47.8391 48.7004C47.857 49.0055 47.8235 49.4323 47.7557 49.6443ZM19.6794 35.7435C19.6715 36.0026 19.6854 36.4372 19.7249 36.704C19.7582 36.9512 19.743 37.223 19.6926 37.3123C19.6494 37.3888 19.6529 37.7195 19.711 38.0452C19.7691 38.3709 19.7798 38.6887 19.7438 38.7525C19.6996 38.8614 19.8151 40.647 19.9095 41.1227C19.9406 41.2208 19.9388 41.4995 19.9112 41.732L19.8777 42.1588L19.015 41.6353C18.1192 41.0784 14.9763 38.7145 14.8007 38.4438C14.6633 38.2584 15.1773 37.7157 16.6588 36.5004C17.1904 36.0488 17.8199 35.5158 18.0506 35.3215C18.2814 35.1271 18.7491 34.758 19.084 34.5018L19.6909 34.0394L19.6926 34.6486C19.6827 34.9724 19.6812 35.4649 19.6794 35.7435ZM46.1614 58.5297C44.8802 62.5439 44.8215 62.6784 43.0678 65.6617C41.4797 68.3516 41.3088 68.593 40.4044 69.4293C39.3598 70.3913 38.4355 70.9872 37.6108 71.2231C36.9304 71.4176 35.6133 71.2701 34.9695 70.9408C34.306 70.5849 32.705 69.2563 32.1194 68.5786C31.4885 67.8284 30.2345 66.0689 30.0887 65.7148C30.039 65.5579 29.9347 65.4059 29.8944 65.3853C29.7469 65.3098 28.3525 62.5742 28.3327 62.3338C28.3294 62.2171 28.2385 62.0719 28.1446 62.0239C28.0373 61.969 27.9422 61.7395 27.9223 61.4991C27.9024 61.2588 27.8341 61.043 27.767 61.0086C27.7134 60.9812 27.4838 60.4692 27.2707 59.8669C26.8434 58.6947 26.8218 58.733 27.8331 58.4117C29.0299 58.0373 31.6027 57.0021 33.6888 56.0632C34.3454 55.7578 35.1741 55.3924 35.5328 55.247C35.878 55.0948 36.2109 54.9033 36.2469 54.8396C36.2974 54.7503 36.6481 54.8639 37.1042 55.0972C37.52 55.3099 38.6848 55.7577 39.6896 56.0908C40.6944 56.4239 42.0294 56.8766 42.6556 57.1147C43.2891 57.34 44.2949 57.6407 44.8767 57.7739C46.2909 58.0862 46.3043 58.0931 46.1614 58.5297ZM13.5209 41.9655C15.8639 43.7559 17.7784 45.0805 19.0838 45.8304C19.8536 46.2735 20.4543 46.6794 20.4183 46.7431C20.3895 46.7942 20.4093 47.0345 20.4632 47.2759C20.5244 47.5044 20.6553 48.3442 20.781 49.1319C20.9067 49.9197 21.0572 50.7859 21.1235 51.0665C21.1827 51.3598 21.2542 51.6923 21.2781 51.8032C21.4057 52.5262 21.7935 54.3194 21.9105 54.7246C21.984 54.9924 22.1053 55.4819 22.183 55.8341L22.3477 56.4609L21.8869 56.6034C21.6323 56.6869 20.7683 56.8698 19.9734 57.0222C19.1785 57.1746 18.3496 57.3261 18.1372 57.3654C17.9248 57.4048 17.6237 57.4481 17.4598 57.4629C17.303 57.4649 16.6813 57.5251 16.0801 57.5793C14.1189 57.7764 12.8309 57.7917 11.0787 57.6189C9.91016 57.5145 9.42949 57.4166 7.84389 56.918C6.66991 56.5476 5.58187 55.5965 5.26937 54.6803C5.15759 54.3272 5.07884 54.0074 5.10765 53.9563C5.13647 53.9053 5.1238 53.6522 5.0843 53.3854C5.0448 53.1185 5.12329 52.3366 5.26066 51.634C5.5026 50.4095 5.56843 50.2623 7.11824 47.4871C8.52297 44.9994 8.90179 44.4204 9.94808 43.1798C11.913 40.8635 12.0387 40.7634 12.3174 41.0046C12.4567 41.1252 12.9883 41.5616 13.5209 41.9655ZM31.8878 53.0374C31.7219 53.1169 31.322 53.2741 31.0117 53.3949C30.6942 53.5285 30.2387 53.7229 29.9903 53.8261C29.7346 53.9419 29.4244 54.0628 29.3069 54.1178C26.8526 55.0657 26.0465 55.3604 25.966 55.3192C25.8453 55.2574 25.1453 52.7619 25.2101 52.6471C25.2317 52.6088 25.1902 52.4067 25.1291 52.1781C25.0608 51.9623 24.8867 51.1991 24.7446 50.5016L24.4977 49.2244L28.2762 51.0749C30.3636 52.0933 32.0888 52.9264 32.13 52.9146C32.1641 52.9156 32.0466 52.9706 31.8878 53.0374Z" fill="#E9E9E9"/>
</svg>
