<svg width="87" height="87" viewBox="0 0 87 87" fill="none" xmlns="http://www.w3.org/2000/svg">
<path d="M38.0635 6.61316C27.3368 8.23919 18.0933 14.1789 12.1184 23.3001C10.9085 25.1392 9.17664 28.7065 8.39395 30.9178C6.94036 35.0615 6.34229 38.667 6.33812 43.2768C6.33266 49.3178 7.44351 54.2074 10.041 59.5445C15.0689 69.921 24.6164 77.2904 36.1015 79.68C39.2236 80.3148 45.1344 80.4875 48.3133 80.0442C52.4218 79.4531 55.8986 78.3968 59.562 76.5971C70.608 71.2538 78.2199 60.7771 80.0154 48.5294C80.4081 45.9275 80.4128 40.7601 80.0248 38.1574C77.6232 21.7236 64.9578 9.0353 48.547 6.62264C46.0937 6.24866 40.4245 6.24354 38.0635 6.61316ZM47.3153 11.9934C50.9209 12.4614 54.4702 13.5427 57.5916 15.1254C59.0965 15.8889 62.4031 18.0852 63.5175 19.0528L64.2604 19.7041L63.5913 19.7221C60.6915 19.738 58.1984 22.3566 58.1399 25.4422C58.1203 26.5574 58.1943 26.8735 58.8066 28.0822C59.1963 28.8447 60.2729 30.5186 61.2011 31.802C63.0762 34.3502 63.7812 35.7821 64.2253 37.9758C64.6324 39.9837 64.6107 43.4224 64.1626 45.6897C63.6957 48.1057 60.0226 60.6492 59.6877 61.0206C59.6318 61.0949 57.0733 53.8434 54.0329 44.9371C50.974 36.0121 48.4527 28.6119 48.3971 28.4818C48.3415 28.3144 48.7876 28.2591 50.2747 28.2604C51.9476 28.2619 52.2822 28.2065 52.71 27.8723C53.3239 27.3895 53.3805 26.4044 52.8234 25.8463C52.4705 25.4928 52.2103 25.474 42.9908 25.4656L33.511 25.4571L33.1202 25.9586C32.6364 26.5716 32.7285 27.4267 33.3229 27.9105C33.6387 28.171 34.0661 28.2457 35.4416 28.247L37.1889 28.2486L37.5412 29.2155C37.7451 29.7547 38.9134 32.8227 40.1373 36.0209L42.3812 41.8409L39.1009 51.6338C37.293 57.0226 35.7833 61.4823 35.7089 61.5566C35.6531 61.6309 34.9113 59.6599 34.0771 57.187C33.2429 54.714 30.7774 47.3324 28.5714 40.7875C26.3839 34.2427 24.5301 28.739 24.4745 28.5531C24.3447 28.2741 24.512 28.2371 26.2964 28.2387C27.9693 28.2402 28.304 28.1848 28.7318 27.8506C29.3456 27.3679 29.4023 26.3827 28.8451 25.8246C28.4923 25.4711 28.2321 25.4523 22.8788 25.4475L17.2839 25.4424L17.8794 24.6437C21.7318 19.4054 27.4048 15.3026 33.5592 13.2821C35.4185 12.689 38.672 11.9856 40.2893 11.8383C42.204 11.6728 45.401 11.7314 47.3153 11.9934ZM15.6029 34.363C17.3273 39.0301 28.3415 68.8735 28.8793 70.3238C29.4356 71.7928 29.4913 71.7928 27.2806 70.4897C15.1678 63.2667 9.23271 48.9301 12.7394 35.4385C13.3362 33.2085 14.1747 30.9416 14.3418 31.1462C14.4161 31.2206 14.991 32.671 15.6029 34.363ZM73.9118 35.531C74.6712 38.5243 74.8372 39.9372 74.8154 43.5246C74.8128 46.3313 74.7375 47.3536 74.4014 49.0634C72.7956 57.0547 68.6446 63.7054 62.2274 68.5696C61.5206 69.0894 60.7952 69.6092 60.6092 69.702C60.3674 69.8318 61.8214 65.3163 65.9217 53.1264C71.2895 37.1086 72.147 34.377 72.4277 32.2768L72.5587 31.3475L73.0223 32.5562C73.2633 33.2255 73.671 34.5642 73.9118 35.531ZM47.4986 56.0095C49.2601 60.8253 51.3924 66.6266 52.2083 68.8765C53.0427 71.1264 53.7101 73.0229 53.7101 73.0787C53.7099 73.2646 50.4934 74.1167 48.5972 74.4496C46.199 74.8749 42.4441 75.0016 40.1395 74.7393C38.2623 74.5146 35.4375 73.9544 34.6199 73.6562C34.2483 73.5072 34.3787 73.1356 37.472 64.588C39.2423 59.6824 41.4411 53.6433 42.3356 51.172C43.435 48.106 44.0125 46.7496 44.1238 46.9356C44.198 47.1029 45.7185 51.175 47.4986 56.0095Z" fill="#E9E9E9"/>
</svg>
