<svg width="621" height="528" viewBox="0 0 621 528" fill="none" xmlns="http://www.w3.org/2000/svg">
<path d="M288.5 2L618.5 22.5V398.5L309.466 525.5L2 384V13.5L288.5 2Z" fill="#191919"/>
<path d="M2 13.5L309.466 48M2 13.5L288.5 2L618.5 22.5M2 13.5V384L309.466 525.5M309.466 48L618.5 22.5M309.466 48V525.5M618.5 22.5V398.5L309.466 525.5" stroke="white" stroke-width="4"/>
<path d="M288.5 2L618.5 22.5V398.5L309.466 525.5L2 384V13.5L288.5 2Z" fill="#191919"/>
<path d="M2 13.5L309.466 48M2 13.5L288.5 2L618.5 22.5M2 13.5V384L309.466 525.5M309.466 48L618.5 22.5M309.466 48V525.5M618.5 22.5V398.5L309.466 525.5" stroke="white" stroke-width="4"/>
<ellipse cx="120.675" cy="361.792" rx="53.8189" ry="23.6144" transform="rotate(12.6072 120.675 361.792)" fill="#D9D9D9"/>
<ellipse cx="397.632" cy="422.405" rx="53.8189" ry="23.6144" transform="rotate(-19.7411 397.632 422.405)" fill="#D9D9D9"/>
<ellipse cx="224.832" cy="247.717" rx="53.8189" ry="23.4764" transform="rotate(9.01112 224.832 247.717)" fill="#D9D9D9"/>
<ellipse cx="76.0318" cy="123.006" rx="53.8189" ry="22.5066" transform="rotate(7.09326 76.0318 123.006)" fill="#D9D9D9"/>
<circle cx="65.01" cy="123.01" r="15.5" transform="rotate(-1.91786 65.01 123.01)" fill="#121212"/>
<circle cx="241.5" cy="248.5" r="15.5" fill="#121212"/>
<circle cx="138.5" cy="363.5" r="15.5" fill="#121212"/>
<ellipse cx="548.698" cy="362.199" rx="53.8189" ry="23.6144" transform="rotate(-20.8165 548.698 362.199)" fill="#D9D9D9"/>
<circle cx="549.474" cy="360.474" r="15.5" transform="rotate(-33.4237 549.474 360.474)" fill="#121212"/>
<ellipse cx="479.014" cy="266.343" rx="56.8554" ry="24.9467" transform="rotate(-18.0597 479.014 266.343)" fill="#D9D9D9"/>
<circle cx="491.238" cy="260.238" r="15.5" transform="rotate(-30.6669 491.238 260.238)" fill="#121212"/>
<ellipse cx="549.488" cy="123.135" rx="53.8189" ry="23.6144" transform="rotate(-14.7811 549.488 123.135)" fill="#D9D9D9"/>
<circle cx="543.238" cy="125.238" r="15.5" transform="rotate(-30.6669 543.238 125.238)" fill="#121212"/>
<circle cx="378.388" cy="426.388" r="15.5" transform="rotate(-32.3483 378.388 426.388)" fill="#121212"/>
</svg>
