<svg width="621" height="528" viewBox="0 0 621 528" fill="none" xmlns="http://www.w3.org/2000/svg">
<path d="M288.5 2L618.5 22.5V398.5L309.466 525.5L2 384V13.5L288.5 2Z" fill="#191919"/>
<path d="M2 13.5L309.466 48M2 13.5L288.5 2L618.5 22.5M2 13.5V384L309.466 525.5M309.466 48L618.5 22.5M309.466 48V525.5M618.5 22.5V398.5L309.466 525.5" stroke="white" stroke-width="4"/>
<path d="M288.5 2L618.5 22.5V398.5L309.466 525.5L2 384V13.5L288.5 2Z" fill="#191919"/>
<path d="M2 13.5L309.466 48M2 13.5L288.5 2L618.5 22.5M2 13.5V384L309.466 525.5M309.466 48L618.5 22.5M309.466 48V525.5M618.5 22.5V398.5L309.466 525.5" stroke="white" stroke-width="4"/>
<ellipse cx="120.675" cy="361.792" rx="53.8189" ry="23.6144" transform="rotate(12.6072 120.675 361.792)" fill="#D9D9D9"/>
<ellipse cx="224.832" cy="247.717" rx="53.8189" ry="23.4764" transform="rotate(9.01112 224.832 247.717)" fill="#D9D9D9"/>
<ellipse cx="59.6568" cy="24.1029" rx="59.6568" ry="24.1029" transform="matrix(0.986796 -0.161971 0.202985 0.979182 319.296 132.061)" fill="#D9D9D9"/>
<ellipse cx="548.737" cy="114.028" rx="54.014" ry="21.2044" transform="rotate(-15.6985 548.737 114.028)" fill="#D9D9D9"/>
<path d="M529.645 247.052C528 259 508.673 274.417 477.49 280.379C446.307 286.34 423.5 278 420 269C419 256 437.692 241.275 468.875 235.313C500.058 229.352 523 238 529.645 247.052Z" fill="#D9D9D9"/>
<path d="M449.297 391.038C453.291 402.698 432.183 420.49 402.151 430.777C372.118 441.063 347.5 437.5 340.541 428.289C340.541 414 357.655 398.836 387.687 388.55C417.72 378.263 445.303 379.377 449.297 391.038Z" fill="#D9D9D9"/>
<ellipse cx="554.211" cy="346.44" rx="51.7574" ry="20.6187" transform="rotate(-17.5541 554.211 346.44)" fill="#D9D9D9"/>
<ellipse cx="76.0318" cy="123.006" rx="53.8189" ry="22.5066" transform="rotate(7.09326 76.0318 123.006)" fill="#D9D9D9"/>
<circle cx="65.01" cy="123.01" r="15.5" transform="rotate(-1.91786 65.01 123.01)" fill="#121212"/>
<circle cx="241.5" cy="248.5" r="15.5" fill="#121212"/>
<ellipse cx="17.2247" cy="15.5249" rx="17.2247" ry="15.5249" transform="matrix(0.994508 -0.104658 0.129205 0.991618 358.124 131.316)" fill="#121212"/>
<circle cx="456.155" cy="261.255" r="15.5" transform="rotate(-11.3437 456.155 261.255)" fill="#121212"/>
<circle cx="382.54" cy="413.539" r="15.5" transform="rotate(-0.145095 382.54 413.539)" fill="#121212"/>
<circle cx="565.366" cy="341.366" r="15.5" transform="rotate(3.29668 565.366 341.366)" fill="#121212"/>
<circle cx="562.183" cy="111.183" r="15.5" transform="rotate(-6.61722 562.183 111.183)" fill="#121212"/>
<circle cx="138.5" cy="363.5" r="15.5" fill="#121212"/>
</svg>
