<svg width="1919" height="237" viewBox="0 0 1919 237" fill="none" xmlns="http://www.w3.org/2000/svg">
<g filter="url(#filter0_d_1276_48)">
<path d="M1888.5 149.569C1904.1 154.369 1914.67 153.267 1919 152.1V162.6V167.6V234.1H0V26.5691C1.33333 26.7358 6.03505 29.2643 10.5 26.5691C29.5 15.1 36.5569 12.0739 44.5 15.0999C55 19.0999 64 12.5999 82 15.0999C100 17.5999 136.892 36.4348 139 38.5691C141.5 41.0999 156 39.0691 168 38.5691C180 38.0691 177 39.0691 183.5 41.5691C190 44.0691 208.5 43.5691 225.5 41.5691C242.5 39.5691 262.5 40.0691 264 41.5691C265.5 43.0691 276 48.5691 284 52.0691C292 55.5691 306.5 60.0691 313 66.5691C319.5 73.0691 332 70.5691 346.5 79.0691C361 87.5691 355.5 84.5691 363.5 85.0691C371.5 85.5691 380 86.5691 392.5 86.5691C405 86.5691 403 88.5691 408 90.5691C413 92.5691 424.5 96.0691 444.5 108.069C451.975 112.554 455.259 114.455 456.572 115.181C456.44 114.949 458.383 116.183 456.572 115.181C456.6 115.231 456.724 115.348 457 115.569C459.5 117.569 464.5 119.069 466.5 119.069C468.5 119.069 499.5 119.069 509 122.069C518.5 125.069 550.5 126.069 552.5 126.069C554.5 126.069 563 123.569 576.5 119.069C590 114.569 586 115.069 598.5 113.569C611 112.069 610.5 115.069 617.5 117.069C624.5 119.069 631 119.569 644.5 119.069C658 118.569 666 113.569 690 108.569C714 103.569 708.5 113.569 725.5 113.569C742.5 113.569 768 113.069 778 121.569C788 130.069 787 129.569 797 134.069C807 138.569 814 142.569 825.5 149.569C837 156.569 831.5 154.569 844 158.569C856.5 162.569 860 175.069 863 176.569C866 178.069 880 187.069 881.5 189.569C883 192.069 902.5 193.569 916.5 191.569C930.5 189.569 940 193.569 948 193.569C956 193.569 954 195.569 961 193.569C966.6 191.969 980 180.569 986 175.069C988.167 175.069 993.439 176.569 998 176.569C1008 176.569 1005.5 175.069 1014 172.569C1022.5 170.069 1027 174.569 1031 175.069C1035 175.569 1043.5 182.569 1056 187.069C1068.5 191.569 1061.5 187.069 1069 182.569C1076.5 178.069 1088.5 182.569 1101 182.569C1113.5 182.569 1116 184.569 1123 187.069C1130 189.569 1132.5 189.069 1137 189.569C1141.5 190.069 1148 188.069 1160 182.569C1172 177.069 1169 182.569 1172 184.569C1175 186.569 1192.5 193.569 1195 195.569C1197 197.169 1203.5 201.902 1206.5 204.069C1210.5 204.902 1223 206.769 1241 207.569C1263.5 208.569 1253 206.569 1259.5 204.069C1266 201.569 1285.5 193.569 1286.5 193.569H1299.5H1305H1315C1316.33 193.236 1327.12 194.284 1330.5 182.569C1331.5 179.1 1345 179.569 1345 179.569C1345 179.569 1358.5 177.069 1365 172.069C1371.5 167.069 1370.5 172.069 1377 172.069C1383.5 172.069 1391 173.569 1400.5 166.069C1410 158.569 1424 146.569 1427 144.569C1430 142.569 1434.5 140.069 1436.5 138.069C1438.5 136.069 1444 138.069 1452 138.069C1460 138.069 1468.5 143.569 1473 144.569C1477.5 145.569 1486.5 142.069 1505.5 140.069C1524.5 138.069 1522.5 140.069 1522.5 140.069C1522.5 140.069 1523 149.1 1538 153.569C1540.33 154.069 1545.7 155.069 1548.5 155.069H1569.5C1578.5 155.069 1581.5 159.569 1587.5 162.069C1593.5 164.569 1596.5 168.069 1607.5 172.069C1618.5 176.069 1628 173.569 1636 173.569C1644 173.569 1644 174.069 1645.5 173.569C1647 173.069 1660 167.569 1662 166.069C1664 164.569 1671 160.069 1683 152.069C1695 144.069 1684 149.569 1695.5 149.569C1704.7 149.569 1709 147.902 1710 147.069C1713.33 145.902 1721.7 142.569 1728.5 138.569C1737 133.569 1737 138.069 1752 138.569C1767 139.069 1761 140.569 1765 141.569C1769 142.569 1771.5 145.569 1781.5 149.569C1791.5 153.569 1792.5 149.569 1804.5 152.069C1814.1 154.069 1813.83 152.902 1812.5 152.069C1815 153.069 1821.6 155.069 1828 155.069H1837C1842.5 155.069 1839.5 154.569 1844.5 152.069C1849.5 149.569 1869 143.569 1888.5 149.569Z" fill="#111827"/>
</g>
<defs>
<filter id="filter0_d_1276_48" x="-8" y="0" width="1935" height="236.1" filterUnits="userSpaceOnUse" color-interpolation-filters="sRGB">
<feFlood flood-opacity="0" result="BackgroundImageFix"/>
<feColorMatrix in="SourceAlpha" type="matrix" values="0 0 0 0 0 0 0 0 0 0 0 0 0 0 0 0 0 0 127 0" result="hardAlpha"/>
<feOffset dy="-6"/>
<feGaussianBlur stdDeviation="4"/>
<feComposite in2="hardAlpha" operator="out"/>
<feColorMatrix type="matrix" values="0 0 0 0 0 0 0 0 0 0 0 0 0 0 0 0 0 0 0.28 0"/>
<feBlend mode="normal" in2="BackgroundImageFix" result="effect1_dropShadow_1276_48"/>
<feBlend mode="normal" in="SourceGraphic" in2="effect1_dropShadow_1276_48" result="shape"/>
</filter>
</defs>
</svg>
