<svg width="1923" height="374" viewBox="0 0 1923 374" fill="none" xmlns="http://www.w3.org/2000/svg">
<path d="M1889.5 133.469C1905.1 138.269 1917.67 137.136 1922 135.969L1921 153.469C1921 153.136 1920.7 152.269 1919.5 151.469C1918 150.469 1916 151.469 1908 149.969C1900 148.469 1902 146.969 1889.5 149.969C1877 152.969 1876 151.469 1861 151.469C1846 151.469 1834 153.469 1833 153.469H1821C1818 154.802 1811.7 157.469 1810.5 157.469C1809 157.469 1801.5 159.469 1794 159.969C1786.5 160.469 1784.5 155.969 1779.5 153.469C1774.5 150.969 1771.5 151.969 1765 153.469C1758.5 154.969 1756 155.969 1734.5 154.469C1713 152.969 1709.5 155.969 1697.5 162.969C1685.5 169.969 1684 171.969 1674 177.469C1664 182.969 1669.5 184.969 1663 189.969C1656.5 194.969 1660 189.969 1655.5 186.469C1651 182.969 1650.5 181.469 1633.5 181.469C1616.5 181.469 1624.5 179.969 1619.5 177.469C1614.5 174.969 1594.5 177.469 1593 177.469C1591.5 177.469 1588.5 181.469 1586 181.469C1583.5 181.469 1580.5 181.469 1573.5 177.469C1566.5 173.469 1570.5 175.469 1566 168.469C1561.5 161.469 1562.5 168.469 1548 166.469C1536.4 164.869 1531.83 163.802 1531 163.469C1527.67 162.802 1520 160.869 1516 158.469C1511 155.469 1512.5 158.969 1506.5 159.969C1500.5 160.969 1499 163.469 1482 166.469C1465 169.469 1475 164.969 1461.5 163.469C1448 161.969 1457 164.469 1450 170.469C1443 176.469 1443 172.469 1432 175.469C1428.57 176.405 1426.85 176.763 1426.17 176.792C1424.09 178.287 1421.28 180.282 1419.5 181.469C1416.5 183.469 1414.5 187.969 1412 191.469C1409.5 194.969 1407 199.469 1402.5 202.469C1398 205.469 1400.5 202.469 1393 199.469C1385.5 196.469 1389.5 196.469 1383 191.469C1376.5 186.469 1381.5 189.969 1372 194.469C1362.5 198.969 1363 198.969 1361.5 199.469C1360 199.969 1356 199.469 1339 205.469C1322 211.469 1332.5 208.969 1327.5 212.969C1322.5 216.969 1319.5 219.969 1314 219.969C1308.5 219.969 1294.5 221.469 1290.5 221.469C1286.5 221.469 1282.5 221.969 1273.5 225.469C1264.5 228.969 1270.5 226.969 1265.5 230.469C1260.5 233.969 1261 235.469 1258.5 239.469C1256 243.469 1257 244.469 1255 249.969C1253 255.469 1250.5 256.969 1249 258.969C1247.5 260.969 1247 263.469 1247 270.969C1247 278.469 1247 277.469 1247.5 284.969C1248 292.469 1245 301.969 1245 306.969C1245 311.969 1245 312.469 1247 316.969C1249 321.469 1248 319.969 1249 324.969C1250 329.969 1249 328.969 1249.5 334.469C1249.9 338.869 1251.33 341.302 1252 341.969C1267.6 349.169 1266.5 365.969 1264 373.469C1264.5 371.469 1264 363.469 1262.5 356.469C1261.3 350.869 1252.33 347.469 1248 346.469L1245 341.969C1244 340.469 1245 339.469 1245 334.469C1245 329.469 1245 331.469 1244 325.469C1243 319.469 1241.5 321.969 1240 317.969C1238.5 313.969 1239.5 314.469 1240 310.469C1240.5 306.469 1241.5 303.969 1241.5 295.469C1241.5 286.969 1242 289.469 1242.5 284.469C1243 279.469 1239.5 271.469 1236.5 266.969C1233.5 262.469 1236 263.969 1232 256.969C1228 249.969 1223.5 247.469 1222 245.469C1220.5 243.469 1217 241.469 1214 238.469C1211 235.469 1207.5 231.469 1201 225.469C1194.5 219.469 1193 223.469 1184 222.969C1175 222.469 1178.5 222.469 1171 219.469C1163.5 216.469 1163.5 215.969 1155 210.469C1150.32 207.439 1149.63 206.29 1150.21 205.977C1144.25 206.049 1133.2 206.613 1128 208.469C1121 210.969 1118.5 208.469 1100 203.969C1081.5 199.469 1092 199.969 1083.5 199.469C1075 198.969 1078.5 203.969 1068.5 203.969C1058.5 203.969 1063 205.969 1058.5 203.969C1054 201.969 1036.5 196.969 1029 191.469C1021.5 185.969 1023 194.469 1012 196.969C1001 199.469 995 194.469 993.5 194.469C992 194.469 982.5 200.969 977.5 205.969C972.5 210.969 960.5 212.469 957.5 213.969C954.5 215.469 950 214.969 945.5 210.469C941 205.969 939.5 207.469 934 208.469C928.5 209.469 915.5 208.469 909 205.969C902.5 203.469 901.5 207.469 882.5 205.969C863.5 204.469 876.5 207.969 873 212.469C869.5 216.969 872 220.469 873 225.469C874 230.469 873 230.469 874.5 238.469C876 246.469 873.5 262.469 873 265.969C872.5 269.469 869 278.469 867.5 279.969C866 281.469 864 282.469 862 292.969C860.4 301.369 859.667 314.802 859.5 320.469C859.5 314.469 860 312.469 859.5 301.969C859 291.469 861.5 283.469 864 280.969C866.5 278.469 868.5 272.469 870.5 260.969C872.5 249.469 869.5 246.469 864 234.469C858.5 222.469 865.5 228.969 864 221.469C862.5 213.969 845 201.469 845 194.469C845 188.869 837 182.802 833 180.469C830.833 180.469 824.8 179.869 818 177.469C809.5 174.469 810 166.469 794 152.469C778 138.469 787 148.469 762.5 145.469C746 145.469 749.5 133.469 744.5 132.469C739.5 131.469 722 127.969 716 124.469C710 120.969 712.5 125.969 706 125.969H691C686.2 125.969 683 124.969 682 124.469C680.167 125.636 675.8 127.969 673 127.969C669.5 127.969 666.5 129.969 655 129.969C645.8 129.969 640.833 127.302 639.5 125.969L628 120.469C620.5 121.469 605.3 123.469 604.5 123.469H594.5C593.5 123.469 589.5 124.469 583.5 127.969C577.5 131.469 577.5 129.969 574 132.469C570.5 134.969 567 132.469 564.5 132.469C562.5 132.469 559 137.469 557.5 139.969C553.667 138.136 545.4 134.069 543 132.469C540.6 130.869 537.667 128.802 536.5 127.969C534.5 127.969 529.4 127.269 525 124.469C519.5 120.969 518.5 120.469 510 123.469C501.5 126.469 494 124.469 493.5 124.469C493 124.469 487 125.469 475.5 124.469C464 123.469 459.5 122.469 458 123.469C456.5 124.469 456 126.469 456.5 132.469C457 138.469 459.5 139.969 460.5 146.469C461.3 151.669 460.167 157.302 459.5 159.469C459.333 157.302 458.8 151.669 458 146.469C457 139.969 446.5 126.969 441.5 120.469C436.5 113.969 436 114.969 427.5 108.469C419 101.969 421 104.469 411.5 104.469C402 104.469 404 103.469 399.5 99.9691C395 96.4691 392.5 93.9691 389 88.9691C385.5 83.9691 383.5 86.4691 375 83.4691C366.5 80.4691 368.5 85.4691 362 83.9691C355.5 82.4691 338 84.4691 336 83.9691C335 83.9691 327.5 74.4691 326 72.4691C324.5 70.4691 310.5 58.9691 303.5 54.9691C296.5 50.9691 299 54.4691 289.5 52.9691C280 51.4691 287.5 48.9691 285 45.4691C282.5 41.9691 279.5 42.4691 272 37.4691C264.5 32.4691 265 33.9691 252 30.9691C239 27.9691 235 30.9691 224 30.9691C213 30.9691 212.5 31.9691 191.5 30.9691C170.5 29.9691 184.5 27.9691 176.5 25.4691C168.5 22.9691 163 25.4691 147.5 25.4691C132 25.4691 136.5 25.4691 134.5 22.4691C132.5 19.4692 119.5 10.4691 116 7.96912C112.5 5.46912 63 -2.53088 35.5 6.46912C13.5 13.6691 3.33333 12.1358 1 10.4691C2.33333 10.6358 6.3 10.8691 11.5 10.4691C18 9.96912 28 7.46914 35.5 3.46914C43 -0.530864 91.5 0.969136 109.5 3.46914C127.5 5.96914 137 22.4691 140 22.4691C143 22.4691 157 22.9691 169 22.4691C181 21.9691 178 22.9691 184.5 25.4691C191 27.9691 209.5 27.4691 226.5 25.4691C243.5 23.4691 263.5 23.9691 265 25.4691C266.5 26.9691 277 32.4691 285 35.9691C293 39.4691 307.5 43.9691 314 50.4691C320.5 56.9691 333 54.4691 347.5 62.9691C362 71.4691 356.5 68.4691 364.5 68.9691C372.5 69.4691 381 70.4691 393.5 70.4691C406 70.4691 404 72.4691 409 74.4691C414 76.4691 425.5 79.9691 445.5 91.9691C452.975 96.454 456.259 98.3548 457.572 99.0809C459.383 100.083 457.44 98.8487 457.572 99.0809C457.6 99.1307 457.724 99.248 458 99.4691C460.5 101.469 465.5 102.969 467.5 102.969C469.5 102.969 500.5 102.969 510 105.969C519.5 108.969 551.5 109.969 553.5 109.969C555.5 109.969 564 107.469 577.5 102.969C591 98.4691 587 98.9691 599.5 97.4691C612 95.969 611.5 98.9691 618.5 100.969C625.5 102.969 632 103.469 645.5 102.969C659 102.469 667 97.4691 691 92.4691C715 87.4691 709.5 97.4691 726.5 97.4691C743.5 97.4691 769 96.9691 779 105.469C789 113.969 788 113.469 798 117.969C808 122.469 815 126.469 826.5 133.469C838 140.469 832.5 138.469 845 142.469C857.5 146.469 861 158.969 864 160.469C867 161.969 881 170.969 882.5 173.469C884 175.969 903.5 177.469 917.5 175.469C931.5 173.469 941 177.469 949 177.469C957 177.469 955 179.469 962 177.469C967.6 175.869 981 164.469 987 158.969C989.167 158.969 994.6 159.269 999 160.469C1004.5 161.969 1006.5 158.969 1015 156.469C1023.5 153.969 1028 158.469 1032 158.969C1036 159.469 1044.5 166.469 1057 170.969C1069.5 175.469 1062.5 170.969 1070 166.469C1077.5 161.969 1089.5 166.469 1102 166.469C1114.5 166.469 1117 168.469 1124 170.969C1131 173.469 1133.5 172.969 1138 173.469C1142.5 173.969 1149 171.969 1161 166.469C1173 160.969 1170 166.469 1173 168.469C1176 170.469 1193.5 177.469 1196 179.469C1198 181.069 1204.5 185.802 1207.5 187.969C1211.5 188.802 1224 190.669 1242 191.469C1264.5 192.469 1254 190.469 1260.5 187.969C1267 185.469 1286.5 177.469 1287.5 177.469H1300.5H1306H1316C1317.33 177.136 1322.3 174.469 1331.5 166.469C1343 156.469 1342.5 163.469 1346 163.469C1349.5 163.469 1359.5 160.969 1366 155.969C1372.5 150.969 1371.5 155.969 1378 155.969C1384.5 155.969 1392 157.469 1401.5 149.969C1411 142.469 1425 130.469 1428 128.469C1431 126.469 1435.5 123.969 1437.5 121.969C1439.5 119.969 1445 121.969 1453 121.969C1461 121.969 1469.5 127.469 1474 128.469C1478.5 129.469 1487.5 125.969 1506.5 123.969C1525.5 121.969 1515 123.469 1523.5 123.969C1530.3 124.369 1536.67 133.136 1539 137.469C1541.33 137.969 1546.7 138.969 1549.5 138.969H1570.5C1579.5 138.969 1582.5 143.469 1588.5 145.969C1594.5 148.469 1597.5 151.969 1608.5 155.969C1619.5 159.969 1629 157.469 1637 157.469C1645 157.469 1645 157.969 1646.5 157.469C1648 156.969 1661 151.469 1663 149.969C1665 148.469 1672 143.969 1684 135.969C1696 127.969 1685 133.469 1696.5 133.469C1705.7 133.469 1710 131.802 1711 130.969C1714.33 129.802 1722.7 126.469 1729.5 122.469C1738 117.469 1738 121.969 1753 122.469C1768 122.969 1762 124.469 1766 125.469C1770 126.469 1772.5 129.469 1782.5 133.469C1792.5 137.469 1793.5 133.469 1805.5 135.969C1815.1 137.969 1814.83 136.802 1813.5 135.969C1816 136.969 1822.6 138.969 1829 138.969H1838C1843.5 138.969 1840.5 138.469 1845.5 135.969C1850.5 133.469 1870 127.469 1889.5 133.469Z" fill="black"/>
<path d="M1922 135.969C1917.67 137.136 1905.1 138.269 1889.5 133.469C1870 127.469 1850.5 133.469 1845.5 135.969C1840.5 138.469 1843.5 138.969 1838 138.969C1832.5 138.969 1837 138.969 1829 138.969C1822.6 138.969 1816 136.969 1813.5 135.969C1814.83 136.802 1815.1 137.969 1805.5 135.969C1793.5 133.469 1792.5 137.469 1782.5 133.469C1772.5 129.469 1770 126.469 1766 125.469C1762 124.469 1768 122.969 1753 122.469C1738 121.969 1738 117.469 1729.5 122.469C1722.7 126.469 1714.33 129.802 1711 130.969C1710 131.802 1705.7 133.469 1696.5 133.469C1685 133.469 1696 127.969 1684 135.969C1672 143.969 1665 148.469 1663 149.969C1661 151.469 1648 156.969 1646.5 157.469C1645 157.969 1645 157.469 1637 157.469C1629 157.469 1619.5 159.969 1608.5 155.969C1597.5 151.969 1594.5 148.469 1588.5 145.969C1582.5 143.469 1579.5 138.969 1570.5 138.969C1561.5 138.969 1553 138.969 1549.5 138.969C1546.7 138.969 1541.33 137.969 1539 137.469C1536.67 133.136 1530.3 124.369 1523.5 123.969C1515 123.469 1525.5 121.969 1506.5 123.969C1487.5 125.969 1478.5 129.469 1474 128.469C1469.5 127.469 1461 121.969 1453 121.969C1445 121.969 1439.5 119.969 1437.5 121.969C1435.5 123.969 1431 126.469 1428 128.469C1425 130.469 1411 142.469 1401.5 149.969C1392 157.469 1384.5 155.969 1378 155.969C1371.5 155.969 1372.5 150.969 1366 155.969C1359.5 160.969 1349.5 163.469 1346 163.469C1342.5 163.469 1343 156.469 1331.5 166.469C1322.3 174.469 1317.33 177.136 1316 177.469H1306C1304.83 177.469 1302.1 177.469 1300.5 177.469C1298.5 177.469 1288.5 177.469 1287.5 177.469C1286.5 177.469 1267 185.469 1260.5 187.969C1254 190.469 1264.5 192.469 1242 191.469C1224 190.669 1211.5 188.802 1207.5 187.969C1204.5 185.802 1198 181.069 1196 179.469C1193.5 177.469 1176 170.469 1173 168.469C1170 166.469 1173 160.969 1161 166.469C1149 171.969 1142.5 173.969 1138 173.469C1133.5 172.969 1131 173.469 1124 170.969C1117 168.469 1114.5 166.469 1102 166.469C1089.5 166.469 1077.5 161.969 1070 166.469C1062.5 170.969 1069.5 175.469 1057 170.969C1044.5 166.469 1036 159.469 1032 158.969C1028 158.469 1023.5 153.969 1015 156.469C1006.5 158.969 1004.5 161.969 999 160.469C994.6 159.269 989.167 158.969 987 158.969C981 164.469 967.6 175.869 962 177.469C955 179.469 957 177.469 949 177.469C941 177.469 931.5 173.469 917.5 175.469C903.5 177.469 884 175.969 882.5 173.469C881 170.969 867 161.969 864 160.469C861 158.969 857.5 146.469 845 142.469C832.5 138.469 838 140.469 826.5 133.469C815 126.469 808 122.469 798 117.969C788 113.469 789 113.969 779 105.469C769 96.9691 743.5 97.4691 726.5 97.4691C709.5 97.4691 715 87.4691 691 92.4691C667 97.4691 659 102.469 645.5 102.969C632 103.469 625.5 102.969 618.5 100.969C611.5 98.9691 612 95.969 599.5 97.4691C587 98.9691 591 98.4691 577.5 102.969C564 107.469 555.5 109.969 553.5 109.969C551.5 109.969 519.5 108.969 510 105.969C500.5 102.969 469.5 102.969 467.5 102.969C465.5 102.969 460.5 101.469 458 99.4691C455.5 97.4691 465.5 103.969 445.5 91.9691C425.5 79.9691 414 76.4691 409 74.4691C404 72.4691 406 70.4691 393.5 70.4691C381 70.4691 372.5 69.4691 364.5 68.9691C356.5 68.4691 362 71.4691 347.5 62.9691C333 54.4691 320.5 56.9691 314 50.4691C307.5 43.9691 293 39.4691 285 35.9691C277 32.4691 266.5 26.9691 265 25.4691C263.5 23.9691 243.5 23.4691 226.5 25.4691C209.5 27.4691 191 27.9691 184.5 25.4691C178 22.9691 181 21.9691 169 22.4691C157 22.9691 143 22.4691 140 22.4691C137 22.4691 127.5 5.96914 109.5 3.46914C91.5 0.969136 43 -0.530864 35.5 3.46914C28 7.46914 18 9.96912 11.5 10.4691C6.3 10.8691 2.33333 10.6358 1 10.4691C3.33333 12.1358 13.5 13.6691 35.5 6.46912C63 -2.53088 112.5 5.46912 116 7.96912C119.5 10.4691 132.5 19.4692 134.5 22.4691C136.5 25.4691 132 25.4691 147.5 25.4691C163 25.4691 168.5 22.9691 176.5 25.4691C184.5 27.9691 170.5 29.9691 191.5 30.9691C212.5 31.9691 213 30.9691 224 30.9691C235 30.9691 239 27.9691 252 30.9691C265 33.9691 264.5 32.4691 272 37.4691C279.5 42.4691 282.5 41.9691 285 45.4691C287.5 48.9691 280 51.4691 289.5 52.9691C299 54.4691 296.5 50.9691 303.5 54.9691C310.5 58.9691 324.5 70.4691 326 72.4691C327.5 74.4691 335 83.9691 336 83.9691C338 84.4691 355.5 82.4691 362 83.9691C368.5 85.4691 366.5 80.4691 375 83.4691C383.5 86.4691 385.5 83.9691 389 88.9691C392.5 93.9691 395 96.4691 399.5 99.9691C404 103.469 402 104.469 411.5 104.469C421 104.469 419 101.969 427.5 108.469C436 114.969 436.5 113.969 441.5 120.469C446.5 126.969 457 139.969 458 146.469C458.8 151.669 459.333 157.302 459.5 159.469C460.167 157.302 461.3 151.669 460.5 146.469C459.5 139.969 457 138.469 456.5 132.469C456 126.469 456.5 124.469 458 123.469C459.5 122.469 464 123.469 475.5 124.469C487 125.469 493 124.469 493.5 124.469C494 124.469 501.5 126.469 510 123.469C518.5 120.469 519.5 120.969 525 124.469C529.4 127.269 534.5 127.969 536.5 127.969C537.667 128.802 540.6 130.869 543 132.469C545.4 134.069 553.667 138.136 557.5 139.969C559 137.469 562.5 132.469 564.5 132.469C567 132.469 570.5 134.969 574 132.469C577.5 129.969 577.5 131.469 583.5 127.969C589.5 124.469 593.5 123.469 594.5 123.469C595.5 123.469 603.5 123.469 604.5 123.469C605.3 123.469 620.5 121.469 628 120.469L639.5 125.969C640.833 127.302 645.8 129.969 655 129.969C666.5 129.969 669.5 127.969 673 127.969C675.8 127.969 680.167 125.636 682 124.469C683 124.969 686.2 125.969 691 125.969C697 125.969 699.5 125.969 706 125.969C712.5 125.969 710 120.969 716 124.469C722 127.969 739.5 131.469 744.5 132.469C749.5 133.469 746 145.469 762.5 145.469C787 148.469 778 138.469 794 152.469C810 166.469 809.5 174.469 818 177.469C824.8 179.869 830.833 180.469 833 180.469C837 182.802 845 188.869 845 194.469C845 201.469 862.5 213.969 864 221.469C865.5 228.969 858.5 222.469 864 234.469C869.5 246.469 872.5 249.469 870.5 260.969C868.5 272.469 866.5 278.469 864 280.969C861.5 283.469 859 291.469 859.5 301.969C860 312.469 859.5 314.469 859.5 320.469C859.667 314.802 860.4 301.369 862 292.969C864 282.469 866 281.469 867.5 279.969C869 278.469 872.5 269.469 873 265.969C873.5 262.469 876 246.469 874.5 238.469C873 230.469 874 230.469 873 225.469C872 220.469 869.5 216.969 873 212.469C876.5 207.969 863.5 204.469 882.5 205.969C901.5 207.469 902.5 203.469 909 205.969C915.5 208.469 928.5 209.469 934 208.469C939.5 207.469 941 205.969 945.5 210.469C950 214.969 954.5 215.469 957.5 213.969C960.5 212.469 972.5 210.969 977.5 205.969C982.5 200.969 992 194.469 993.5 194.469C995 194.469 1001 199.469 1012 196.969C1023 194.469 1021.5 185.969 1029 191.469C1036.5 196.969 1054 201.969 1058.5 203.969C1063 205.969 1058.5 203.969 1068.5 203.969C1078.5 203.969 1075 198.969 1083.5 199.469C1092 199.969 1081.5 199.469 1100 203.969C1118.5 208.469 1121 210.969 1128 208.469C1133.6 206.469 1146 205.969 1151.5 205.969C1149.83 205.636 1148.2 206.069 1155 210.469C1163.5 215.969 1163.5 216.469 1171 219.469C1178.5 222.469 1175 222.469 1184 222.969C1193 223.469 1194.5 219.469 1201 225.469C1207.5 231.469 1211 235.469 1214 238.469C1217 241.469 1220.5 243.469 1222 245.469C1223.5 247.469 1228 249.969 1232 256.969C1236 263.969 1233.5 262.469 1236.5 266.969C1239.5 271.469 1243 279.469 1242.5 284.469C1242 289.469 1241.5 286.969 1241.5 295.469C1241.5 303.969 1240.5 306.469 1240 310.469C1239.5 314.469 1238.5 313.969 1240 317.969C1241.5 321.969 1243 319.469 1244 325.469C1245 331.469 1245 329.469 1245 334.469C1245 339.469 1244 340.469 1245 341.969C1245.8 343.169 1247.33 345.469 1248 346.469C1252.33 347.469 1261.3 350.869 1262.5 356.469C1264 363.469 1264.5 371.469 1264 373.469C1266.5 365.969 1267.6 349.169 1252 341.969C1251.33 341.302 1249.9 338.869 1249.5 334.469C1249 328.969 1250 329.969 1249 324.969C1248 319.969 1249 321.469 1247 316.969C1245 312.469 1245 311.969 1245 306.969C1245 301.969 1248 292.469 1247.5 284.969C1247 277.469 1247 278.469 1247 270.969C1247 263.469 1247.5 260.969 1249 258.969C1250.5 256.969 1253 255.469 1255 249.969C1257 244.469 1256 243.469 1258.5 239.469C1261 235.469 1260.5 233.969 1265.5 230.469C1270.5 226.969 1264.5 228.969 1273.5 225.469C1282.5 221.969 1286.5 221.469 1290.5 221.469C1294.5 221.469 1308.5 219.969 1314 219.969C1319.5 219.969 1322.5 216.969 1327.5 212.969C1332.5 208.969 1322 211.469 1339 205.469C1356 199.469 1360 199.969 1361.5 199.469C1363 198.969 1362.5 198.969 1372 194.469C1381.5 189.969 1376.5 186.469 1383 191.469C1389.5 196.469 1385.5 196.469 1393 199.469C1400.5 202.469 1398 205.469 1402.5 202.469C1407 199.469 1409.5 194.969 1412 191.469C1414.5 187.969 1416.5 183.469 1419.5 181.469C1421.9 179.869 1426.17 176.802 1428 175.469C1425.67 176.469 1423.2 177.869 1432 175.469C1443 172.469 1443 176.469 1450 170.469C1457 164.469 1448 161.969 1461.5 163.469C1475 164.969 1465 169.469 1482 166.469C1499 163.469 1500.5 160.969 1506.5 159.969C1512.5 158.969 1511 155.469 1516 158.469C1520 160.869 1527.67 162.802 1531 163.469C1531.83 163.802 1536.4 164.869 1548 166.469C1562.5 168.469 1561.5 161.469 1566 168.469C1570.5 175.469 1566.5 173.469 1573.5 177.469C1580.5 181.469 1583.5 181.469 1586 181.469C1588.5 181.469 1591.5 177.469 1593 177.469C1594.5 177.469 1614.5 174.969 1619.5 177.469C1624.5 179.969 1616.5 181.469 1633.5 181.469C1650.5 181.469 1651 182.969 1655.5 186.469C1660 189.969 1656.5 194.969 1663 189.969C1669.5 184.969 1664 182.969 1674 177.469C1684 171.969 1685.5 169.969 1697.5 162.969C1709.5 155.969 1713 152.969 1734.5 154.469C1756 155.969 1758.5 154.969 1765 153.469C1771.5 151.969 1774.5 150.969 1779.5 153.469C1784.5 155.969 1786.5 160.469 1794 159.969C1801.5 159.469 1809 157.469 1810.5 157.469C1811.7 157.469 1818 154.802 1821 153.469C1824.67 153.469 1832.2 153.469 1833 153.469C1834 153.469 1846 151.469 1861 151.469C1876 151.469 1877 152.969 1889.5 149.969C1902 146.969 1900 148.469 1908 149.969C1916 151.469 1918 150.469 1919.5 151.469C1920.7 152.269 1921 153.136 1921 153.469L1922 135.969Z" stroke="black"/>
</svg>
