<svg width="1945" height="396" viewBox="0 0 1945 396" fill="none" xmlns="http://www.w3.org/2000/svg">
<g filter="url(#filter0_d_1276_7)">
<path d="M1900.5 134.469C1916.1 139.269 1928.67 138.136 1933 136.969L1932 154.469C1932 154.136 1931.7 153.269 1930.5 152.469C1929 151.469 1927 152.469 1919 150.969C1911 149.469 1913 147.969 1900.5 150.969C1888 153.969 1887 152.469 1872 152.469C1857 152.469 1845 154.469 1844 154.469H1832C1829 155.802 1822.7 158.469 1821.5 158.469C1820 158.469 1812.5 160.469 1805 160.969C1797.5 161.469 1795.5 156.969 1790.5 154.469C1785.5 151.969 1782.5 152.969 1776 154.469C1769.5 155.969 1767 156.969 1745.5 155.469C1724 153.969 1720.5 156.969 1708.5 163.969C1696.5 170.969 1695 172.969 1685 178.469C1675 183.969 1680.5 185.969 1674 190.969C1667.5 195.969 1671 190.969 1666.5 187.469C1662 183.969 1661.5 182.469 1644.5 182.469C1627.5 182.469 1635.5 180.969 1630.5 178.469C1625.5 175.969 1605.5 178.469 1604 178.469C1602.5 178.469 1599.5 182.469 1597 182.469C1594.5 182.469 1591.5 182.469 1584.5 178.469C1577.5 174.469 1581.5 176.469 1577 169.469C1572.5 162.469 1573.5 169.469 1559 167.469C1547.4 165.869 1542.83 164.802 1542 164.469C1538.67 163.802 1531 161.869 1527 159.469C1522 156.469 1523.5 159.969 1517.5 160.969C1511.5 161.969 1510 164.469 1493 167.469C1476 170.469 1486 165.969 1472.5 164.469C1459 162.969 1468 165.469 1461 171.469C1454 177.469 1454 173.469 1443 176.469C1439.57 177.405 1437.85 177.763 1437.17 177.792C1435.09 179.287 1432.28 181.282 1430.5 182.469C1427.5 184.469 1425.5 188.969 1423 192.469C1420.5 195.969 1418 200.469 1413.5 203.469C1409 206.469 1411.5 203.469 1404 200.469C1396.5 197.469 1400.5 197.469 1394 192.469C1387.5 187.469 1392.5 190.969 1383 195.469C1373.5 199.969 1374 199.969 1372.5 200.469C1371 200.969 1367 200.469 1350 206.469C1333 212.469 1343.5 209.969 1338.5 213.969C1333.5 217.969 1330.5 220.969 1325 220.969C1319.5 220.969 1305.5 222.469 1301.5 222.469C1297.5 222.469 1293.5 222.969 1284.5 226.469C1275.5 229.969 1281.5 227.969 1276.5 231.469C1271.5 234.969 1272 236.469 1269.5 240.469C1267 244.469 1268 245.469 1266 250.969C1264 256.469 1261.5 257.969 1260 259.969C1258.5 261.969 1258 264.469 1258 271.969C1258 279.469 1258 278.469 1258.5 285.969C1259 293.469 1256 302.969 1256 307.969C1256 312.969 1256 313.469 1258 317.969C1260 322.469 1259 320.969 1260 325.969C1261 330.969 1260 329.969 1260.5 335.469C1260.9 339.869 1262.33 342.302 1263 342.969C1278.6 350.169 1277.5 366.969 1275 374.469C1275.5 372.469 1275 364.469 1273.5 357.469C1272.3 351.869 1263.33 348.469 1259 347.469L1256 342.969C1255 341.469 1256 340.469 1256 335.469C1256 330.469 1256 332.469 1255 326.469C1254 320.469 1252.5 322.969 1251 318.969C1249.5 314.969 1250.5 315.469 1251 311.469C1251.5 307.469 1252.5 304.969 1252.5 296.469C1252.5 287.969 1253 290.469 1253.5 285.469C1254 280.469 1250.5 272.469 1247.5 267.969C1244.5 263.469 1247 264.969 1243 257.969C1239 250.969 1234.5 248.469 1233 246.469C1231.5 244.469 1228 242.469 1225 239.469C1222 236.469 1218.5 232.469 1212 226.469C1205.5 220.469 1204 224.469 1195 223.969C1186 223.469 1189.5 223.469 1182 220.469C1174.5 217.469 1174.5 216.969 1166 211.469C1161.32 208.439 1160.63 207.29 1161.21 206.977C1155.25 207.049 1144.2 207.613 1139 209.469C1132 211.969 1129.5 209.469 1111 204.969C1092.5 200.469 1103 200.969 1094.5 200.469C1086 199.969 1089.5 204.969 1079.5 204.969C1069.5 204.969 1074 206.969 1069.5 204.969C1065 202.969 1047.5 197.969 1040 192.469C1032.5 186.969 1034 195.469 1023 197.969C1012 200.469 1006 195.469 1004.5 195.469C1003 195.469 993.5 201.969 988.5 206.969C983.5 211.969 971.5 213.469 968.5 214.969C965.5 216.469 961 215.969 956.5 211.469C952 206.969 950.5 208.469 945 209.469C939.5 210.469 926.5 209.469 920 206.969C913.5 204.469 912.5 208.469 893.5 206.969C874.5 205.469 887.5 208.969 884 213.469C880.5 217.969 883 221.469 884 226.469C885 231.469 884 231.469 885.5 239.469C887 247.469 884.5 263.469 884 266.969C883.5 270.469 880 279.469 878.5 280.969C877 282.469 875 283.469 873 293.969C871.4 302.369 870.667 315.802 870.5 321.469C870.5 315.469 871 313.469 870.5 302.969C870 292.469 872.5 284.469 875 281.969C877.5 279.469 879.5 273.469 881.5 261.969C883.5 250.469 880.5 247.469 875 235.469C869.5 223.469 876.5 229.969 875 222.469C873.5 214.969 856 202.469 856 195.469C856 189.869 848 183.802 844 181.469C841.833 181.469 835.8 180.869 829 178.469C820.5 175.469 821 167.469 805 153.469C789 139.469 798 149.469 773.5 146.469C757 146.469 760.5 134.469 755.5 133.469C750.5 132.469 733 128.969 727 125.469C721 121.969 723.5 126.969 717 126.969H702C697.2 126.969 694 125.969 693 125.469C691.167 126.636 686.8 128.969 684 128.969C680.5 128.969 677.5 130.969 666 130.969C656.8 130.969 651.833 128.302 650.5 126.969L639 121.469C631.5 122.469 616.3 124.469 615.5 124.469H605.5C604.5 124.469 600.5 125.469 594.5 128.969C588.5 132.469 588.5 130.969 585 133.469C581.5 135.969 578 133.469 575.5 133.469C573.5 133.469 570 138.469 568.5 140.969C564.667 139.136 556.4 135.069 554 133.469C551.6 131.869 548.667 129.802 547.5 128.969C545.5 128.969 540.4 128.269 536 125.469C530.5 121.969 529.5 121.469 521 124.469C512.5 127.469 505 125.469 504.5 125.469C504 125.469 498 126.469 486.5 125.469C475 124.469 470.5 123.469 469 124.469C467.5 125.469 467 127.469 467.5 133.469C468 139.469 470.5 140.969 471.5 147.469C472.3 152.669 471.167 158.302 470.5 160.469C470.333 158.302 469.8 152.669 469 147.469C468 140.969 457.5 127.969 452.5 121.469C447.5 114.969 447 115.969 438.5 109.469C430 102.969 432 105.469 422.5 105.469C413 105.469 415 104.469 410.5 100.969C406 97.4691 403.5 94.9691 400 89.9691C396.5 84.9691 394.5 87.4691 386 84.4691C377.5 81.4691 379.5 86.4691 373 84.9691C366.5 83.4691 349 85.4691 347 84.9691C346 84.9691 338.5 75.4691 337 73.4691C335.5 71.4691 321.5 59.9691 314.5 55.9691C307.5 51.9691 310 55.4691 300.5 53.9691C291 52.4691 298.5 49.9691 296 46.4691C293.5 42.9691 290.5 43.4691 283 38.4691C275.5 33.4691 276 34.9691 263 31.9691C250 28.9691 246 31.9691 235 31.9691C224 31.9691 223.5 32.9691 202.5 31.9691C181.5 30.9691 195.5 28.9691 187.5 26.4691C179.5 23.9691 174 26.4691 158.5 26.4691C143 26.4691 147.5 26.4691 145.5 23.4691C143.5 20.4692 130.5 11.4691 127 8.96912C123.5 6.46912 74 -1.53088 46.5 7.46912C24.5 14.6691 14.3333 13.1358 12 11.4691C13.3333 11.6358 17.3 11.8691 22.5 11.4691C29 10.9691 39 8.46914 46.5 4.46914C54 0.469136 102.5 1.96914 120.5 4.46914C138.5 6.96914 148 23.4691 151 23.4691C154 23.4691 168 23.9691 180 23.4691C192 22.9691 189 23.9691 195.5 26.4691C202 28.9691 220.5 28.4691 237.5 26.4691C254.5 24.4691 274.5 24.9691 276 26.4691C277.5 27.9691 288 33.4691 296 36.9691C304 40.4691 318.5 44.9691 325 51.4691C331.5 57.9691 344 55.4691 358.5 63.9691C373 72.4691 367.5 69.4691 375.5 69.9691C383.5 70.4691 392 71.4691 404.5 71.4691C417 71.4691 415 73.4691 420 75.4691C425 77.4691 436.5 80.9691 456.5 92.9691C463.975 97.454 467.259 99.3548 468.572 100.081C470.383 101.083 468.44 99.8487 468.572 100.081C468.6 100.131 468.724 100.248 469 100.469C471.5 102.469 476.5 103.969 478.5 103.969C480.5 103.969 511.5 103.969 521 106.969C530.5 109.969 562.5 110.969 564.5 110.969C566.5 110.969 575 108.469 588.5 103.969C602 99.4691 598 99.9691 610.5 98.4691C623 96.969 622.5 99.9691 629.5 101.969C636.5 103.969 643 104.469 656.5 103.969C670 103.469 678 98.4691 702 93.4691C726 88.4691 720.5 98.4691 737.5 98.4691C754.5 98.4691 780 97.9691 790 106.469C800 114.969 799 114.469 809 118.969C819 123.469 826 127.469 837.5 134.469C849 141.469 843.5 139.469 856 143.469C868.5 147.469 872 159.969 875 161.469C878 162.969 892 171.969 893.5 174.469C895 176.969 914.5 178.469 928.5 176.469C942.5 174.469 952 178.469 960 178.469C968 178.469 966 180.469 973 178.469C978.6 176.869 992 165.469 998 159.969C1000.17 159.969 1005.6 160.269 1010 161.469C1015.5 162.969 1017.5 159.969 1026 157.469C1034.5 154.969 1039 159.469 1043 159.969C1047 160.469 1055.5 167.469 1068 171.969C1080.5 176.469 1073.5 171.969 1081 167.469C1088.5 162.969 1100.5 167.469 1113 167.469C1125.5 167.469 1128 169.469 1135 171.969C1142 174.469 1144.5 173.969 1149 174.469C1153.5 174.969 1160 172.969 1172 167.469C1184 161.969 1181 167.469 1184 169.469C1187 171.469 1204.5 178.469 1207 180.469C1209 182.069 1215.5 186.802 1218.5 188.969C1222.5 189.802 1235 191.669 1253 192.469C1275.5 193.469 1265 191.469 1271.5 188.969C1278 186.469 1297.5 178.469 1298.5 178.469H1311.5H1317H1327C1328.33 178.136 1333.3 175.469 1342.5 167.469C1354 157.469 1353.5 164.469 1357 164.469C1360.5 164.469 1370.5 161.969 1377 156.969C1383.5 151.969 1382.5 156.969 1389 156.969C1395.5 156.969 1403 158.469 1412.5 150.969C1422 143.469 1436 131.469 1439 129.469C1442 127.469 1446.5 124.969 1448.5 122.969C1450.5 120.969 1456 122.969 1464 122.969C1472 122.969 1480.5 128.469 1485 129.469C1489.5 130.469 1498.5 126.969 1517.5 124.969C1536.5 122.969 1526 124.469 1534.5 124.969C1541.3 125.369 1547.67 134.136 1550 138.469C1552.33 138.969 1557.7 139.969 1560.5 139.969H1581.5C1590.5 139.969 1593.5 144.469 1599.5 146.969C1605.5 149.469 1608.5 152.969 1619.5 156.969C1630.5 160.969 1640 158.469 1648 158.469C1656 158.469 1656 158.969 1657.5 158.469C1659 157.969 1672 152.469 1674 150.969C1676 149.469 1683 144.969 1695 136.969C1707 128.969 1696 134.469 1707.5 134.469C1716.7 134.469 1721 132.802 1722 131.969C1725.33 130.802 1733.7 127.469 1740.5 123.469C1749 118.469 1749 122.969 1764 123.469C1779 123.969 1773 125.469 1777 126.469C1781 127.469 1783.5 130.469 1793.5 134.469C1803.5 138.469 1804.5 134.469 1816.5 136.969C1826.1 138.969 1825.83 137.802 1824.5 136.969C1827 137.969 1833.6 139.969 1840 139.969H1849C1854.5 139.969 1851.5 139.469 1856.5 136.969C1861.5 134.469 1881 128.469 1900.5 134.469Z" fill="black"/>
<path d="M1933 136.969C1928.67 138.136 1916.1 139.269 1900.5 134.469C1881 128.469 1861.5 134.469 1856.5 136.969C1851.5 139.469 1854.5 139.969 1849 139.969C1843.5 139.969 1848 139.969 1840 139.969C1833.6 139.969 1827 137.969 1824.5 136.969C1825.83 137.802 1826.1 138.969 1816.5 136.969C1804.5 134.469 1803.5 138.469 1793.5 134.469C1783.5 130.469 1781 127.469 1777 126.469C1773 125.469 1779 123.969 1764 123.469C1749 122.969 1749 118.469 1740.5 123.469C1733.7 127.469 1725.33 130.802 1722 131.969C1721 132.802 1716.7 134.469 1707.5 134.469C1696 134.469 1707 128.969 1695 136.969C1683 144.969 1676 149.469 1674 150.969C1672 152.469 1659 157.969 1657.5 158.469C1656 158.969 1656 158.469 1648 158.469C1640 158.469 1630.5 160.969 1619.5 156.969C1608.5 152.969 1605.5 149.469 1599.5 146.969C1593.5 144.469 1590.5 139.969 1581.5 139.969C1572.5 139.969 1564 139.969 1560.5 139.969C1557.7 139.969 1552.33 138.969 1550 138.469C1547.67 134.136 1541.3 125.369 1534.5 124.969C1526 124.469 1536.5 122.969 1517.5 124.969C1498.5 126.969 1489.5 130.469 1485 129.469C1480.5 128.469 1472 122.969 1464 122.969C1456 122.969 1450.5 120.969 1448.5 122.969C1446.5 124.969 1442 127.469 1439 129.469C1436 131.469 1422 143.469 1412.5 150.969C1403 158.469 1395.5 156.969 1389 156.969C1382.5 156.969 1383.5 151.969 1377 156.969C1370.5 161.969 1360.5 164.469 1357 164.469C1353.5 164.469 1354 157.469 1342.5 167.469C1333.3 175.469 1328.33 178.136 1327 178.469H1317C1315.83 178.469 1313.1 178.469 1311.5 178.469C1309.5 178.469 1299.5 178.469 1298.5 178.469C1297.5 178.469 1278 186.469 1271.5 188.969C1265 191.469 1275.5 193.469 1253 192.469C1235 191.669 1222.5 189.802 1218.5 188.969C1215.5 186.802 1209 182.069 1207 180.469C1204.5 178.469 1187 171.469 1184 169.469C1181 167.469 1184 161.969 1172 167.469C1160 172.969 1153.5 174.969 1149 174.469C1144.5 173.969 1142 174.469 1135 171.969C1128 169.469 1125.5 167.469 1113 167.469C1100.5 167.469 1088.5 162.969 1081 167.469C1073.5 171.969 1080.5 176.469 1068 171.969C1055.5 167.469 1047 160.469 1043 159.969C1039 159.469 1034.5 154.969 1026 157.469C1017.5 159.969 1015.5 162.969 1010 161.469C1005.6 160.269 1000.17 159.969 998 159.969C992 165.469 978.6 176.869 973 178.469C966 180.469 968 178.469 960 178.469C952 178.469 942.5 174.469 928.5 176.469C914.5 178.469 895 176.969 893.5 174.469C892 171.969 878 162.969 875 161.469C872 159.969 868.5 147.469 856 143.469C843.5 139.469 849 141.469 837.5 134.469C826 127.469 819 123.469 809 118.969C799 114.469 800 114.969 790 106.469C780 97.9691 754.5 98.4691 737.5 98.4691C720.5 98.4691 726 88.4691 702 93.4691C678 98.4691 670 103.469 656.5 103.969C643 104.469 636.5 103.969 629.5 101.969C622.5 99.9691 623 96.969 610.5 98.4691C598 99.9691 602 99.4691 588.5 103.969C575 108.469 566.5 110.969 564.5 110.969C562.5 110.969 530.5 109.969 521 106.969C511.5 103.969 480.5 103.969 478.5 103.969C476.5 103.969 471.5 102.469 469 100.469C466.5 98.4691 476.5 104.969 456.5 92.9691C436.5 80.9691 425 77.4691 420 75.4691C415 73.4691 417 71.4691 404.5 71.4691C392 71.4691 383.5 70.4691 375.5 69.9691C367.5 69.4691 373 72.4691 358.5 63.9691C344 55.4691 331.5 57.9691 325 51.4691C318.5 44.9691 304 40.4691 296 36.9691C288 33.4691 277.5 27.9691 276 26.4691C274.5 24.9691 254.5 24.4691 237.5 26.4691C220.5 28.4691 202 28.9691 195.5 26.4691C189 23.9691 192 22.9691 180 23.4691C168 23.9691 154 23.4691 151 23.4691C148 23.4691 138.5 6.96914 120.5 4.46914C102.5 1.96914 54 0.469136 46.5 4.46914C39 8.46914 29 10.9691 22.5 11.4691C17.3 11.8691 13.3333 11.6358 12 11.4691C14.3333 13.1358 24.5 14.6691 46.5 7.46912C74 -1.53088 123.5 6.46912 127 8.96912C130.5 11.4691 143.5 20.4692 145.5 23.4691C147.5 26.4691 143 26.4691 158.5 26.4691C174 26.4691 179.5 23.9691 187.5 26.4691C195.5 28.9691 181.5 30.9691 202.5 31.9691C223.5 32.9691 224 31.9691 235 31.9691C246 31.9691 250 28.9691 263 31.9691C276 34.9691 275.5 33.4691 283 38.4691C290.5 43.4691 293.5 42.9691 296 46.4691C298.5 49.9691 291 52.4691 300.5 53.9691C310 55.4691 307.5 51.9691 314.5 55.9691C321.5 59.9691 335.5 71.4691 337 73.4691C338.5 75.4691 346 84.9691 347 84.9691C349 85.4691 366.5 83.4691 373 84.9691C379.5 86.4691 377.5 81.4691 386 84.4691C394.5 87.4691 396.5 84.9691 400 89.9691C403.5 94.9691 406 97.4691 410.5 100.969C415 104.469 413 105.469 422.5 105.469C432 105.469 430 102.969 438.5 109.469C447 115.969 447.5 114.969 452.5 121.469C457.5 127.969 468 140.969 469 147.469C469.8 152.669 470.333 158.302 470.5 160.469C471.167 158.302 472.3 152.669 471.5 147.469C470.5 140.969 468 139.469 467.5 133.469C467 127.469 467.5 125.469 469 124.469C470.5 123.469 475 124.469 486.5 125.469C498 126.469 504 125.469 504.5 125.469C505 125.469 512.5 127.469 521 124.469C529.5 121.469 530.5 121.969 536 125.469C540.4 128.269 545.5 128.969 547.5 128.969C548.667 129.802 551.6 131.869 554 133.469C556.4 135.069 564.667 139.136 568.5 140.969C570 138.469 573.5 133.469 575.5 133.469C578 133.469 581.5 135.969 585 133.469C588.5 130.969 588.5 132.469 594.5 128.969C600.5 125.469 604.5 124.469 605.5 124.469C606.5 124.469 614.5 124.469 615.5 124.469C616.3 124.469 631.5 122.469 639 121.469L650.5 126.969C651.833 128.302 656.8 130.969 666 130.969C677.5 130.969 680.5 128.969 684 128.969C686.8 128.969 691.167 126.636 693 125.469C694 125.969 697.2 126.969 702 126.969C708 126.969 710.5 126.969 717 126.969C723.5 126.969 721 121.969 727 125.469C733 128.969 750.5 132.469 755.5 133.469C760.5 134.469 757 146.469 773.5 146.469C798 149.469 789 139.469 805 153.469C821 167.469 820.5 175.469 829 178.469C835.8 180.869 841.833 181.469 844 181.469C848 183.802 856 189.869 856 195.469C856 202.469 873.5 214.969 875 222.469C876.5 229.969 869.5 223.469 875 235.469C880.5 247.469 883.5 250.469 881.5 261.969C879.5 273.469 877.5 279.469 875 281.969C872.5 284.469 870 292.469 870.5 302.969C871 313.469 870.5 315.469 870.5 321.469C870.667 315.802 871.4 302.369 873 293.969C875 283.469 877 282.469 878.5 280.969C880 279.469 883.5 270.469 884 266.969C884.5 263.469 887 247.469 885.5 239.469C884 231.469 885 231.469 884 226.469C883 221.469 880.5 217.969 884 213.469C887.5 208.969 874.5 205.469 893.5 206.969C912.5 208.469 913.5 204.469 920 206.969C926.5 209.469 939.5 210.469 945 209.469C950.5 208.469 952 206.969 956.5 211.469C961 215.969 965.5 216.469 968.5 214.969C971.5 213.469 983.5 211.969 988.5 206.969C993.5 201.969 1003 195.469 1004.5 195.469C1006 195.469 1012 200.469 1023 197.969C1034 195.469 1032.5 186.969 1040 192.469C1047.5 197.969 1065 202.969 1069.5 204.969C1074 206.969 1069.5 204.969 1079.5 204.969C1089.5 204.969 1086 199.969 1094.5 200.469C1103 200.969 1092.5 200.469 1111 204.969C1129.5 209.469 1132 211.969 1139 209.469C1144.6 207.469 1157 206.969 1162.5 206.969C1160.83 206.636 1159.2 207.069 1166 211.469C1174.5 216.969 1174.5 217.469 1182 220.469C1189.5 223.469 1186 223.469 1195 223.969C1204 224.469 1205.5 220.469 1212 226.469C1218.5 232.469 1222 236.469 1225 239.469C1228 242.469 1231.5 244.469 1233 246.469C1234.5 248.469 1239 250.969 1243 257.969C1247 264.969 1244.5 263.469 1247.5 267.969C1250.5 272.469 1254 280.469 1253.5 285.469C1253 290.469 1252.5 287.969 1252.5 296.469C1252.5 304.969 1251.5 307.469 1251 311.469C1250.5 315.469 1249.5 314.969 1251 318.969C1252.5 322.969 1254 320.469 1255 326.469C1256 332.469 1256 330.469 1256 335.469C1256 340.469 1255 341.469 1256 342.969C1256.8 344.169 1258.33 346.469 1259 347.469C1263.33 348.469 1272.3 351.869 1273.5 357.469C1275 364.469 1275.5 372.469 1275 374.469C1277.5 366.969 1278.6 350.169 1263 342.969C1262.33 342.302 1260.9 339.869 1260.5 335.469C1260 329.969 1261 330.969 1260 325.969C1259 320.969 1260 322.469 1258 317.969C1256 313.469 1256 312.969 1256 307.969C1256 302.969 1259 293.469 1258.5 285.969C1258 278.469 1258 279.469 1258 271.969C1258 264.469 1258.5 261.969 1260 259.969C1261.5 257.969 1264 256.469 1266 250.969C1268 245.469 1267 244.469 1269.5 240.469C1272 236.469 1271.5 234.969 1276.5 231.469C1281.5 227.969 1275.5 229.969 1284.5 226.469C1293.5 222.969 1297.5 222.469 1301.5 222.469C1305.5 222.469 1319.5 220.969 1325 220.969C1330.5 220.969 1333.5 217.969 1338.5 213.969C1343.5 209.969 1333 212.469 1350 206.469C1367 200.469 1371 200.969 1372.5 200.469C1374 199.969 1373.5 199.969 1383 195.469C1392.5 190.969 1387.5 187.469 1394 192.469C1400.5 197.469 1396.5 197.469 1404 200.469C1411.5 203.469 1409 206.469 1413.5 203.469C1418 200.469 1420.5 195.969 1423 192.469C1425.5 188.969 1427.5 184.469 1430.5 182.469C1432.9 180.869 1437.17 177.802 1439 176.469C1436.67 177.469 1434.2 178.869 1443 176.469C1454 173.469 1454 177.469 1461 171.469C1468 165.469 1459 162.969 1472.5 164.469C1486 165.969 1476 170.469 1493 167.469C1510 164.469 1511.5 161.969 1517.5 160.969C1523.5 159.969 1522 156.469 1527 159.469C1531 161.869 1538.67 163.802 1542 164.469C1542.83 164.802 1547.4 165.869 1559 167.469C1573.5 169.469 1572.5 162.469 1577 169.469C1581.5 176.469 1577.5 174.469 1584.5 178.469C1591.5 182.469 1594.5 182.469 1597 182.469C1599.5 182.469 1602.5 178.469 1604 178.469C1605.5 178.469 1625.5 175.969 1630.5 178.469C1635.5 180.969 1627.5 182.469 1644.5 182.469C1661.5 182.469 1662 183.969 1666.5 187.469C1671 190.969 1667.5 195.969 1674 190.969C1680.5 185.969 1675 183.969 1685 178.469C1695 172.969 1696.5 170.969 1708.5 163.969C1720.5 156.969 1724 153.969 1745.5 155.469C1767 156.969 1769.5 155.969 1776 154.469C1782.5 152.969 1785.5 151.969 1790.5 154.469C1795.5 156.969 1797.5 161.469 1805 160.969C1812.5 160.469 1820 158.469 1821.5 158.469C1822.7 158.469 1829 155.802 1832 154.469C1835.67 154.469 1843.2 154.469 1844 154.469C1845 154.469 1857 152.469 1872 152.469C1887 152.469 1888 153.969 1900.5 150.969C1913 147.969 1911 149.469 1919 150.969C1927 152.469 1929 151.469 1930.5 152.469C1931.7 153.269 1932 154.136 1932 154.469L1933 136.969Z" stroke="black"/>
</g>
<defs>
<filter id="filter0_d_1276_7" x="0.709473" y="0.5" width="1943.83" height="395.127" filterUnits="userSpaceOnUse" color-interpolation-filters="sRGB">
<feFlood flood-opacity="0" result="BackgroundImageFix"/>
<feColorMatrix in="SourceAlpha" type="matrix" values="0 0 0 0 0 0 0 0 0 0 0 0 0 0 0 0 0 0 127 0" result="hardAlpha"/>
<feOffset dy="10"/>
<feGaussianBlur stdDeviation="5.5"/>
<feComposite in2="hardAlpha" operator="out"/>
<feColorMatrix type="matrix" values="0 0 0 0 0 0 0 0 0 0 0 0 0 0 0 0 0 0 0.25 0"/>
<feBlend mode="normal" in2="BackgroundImageFix" result="effect1_dropShadow_1276_7"/>
<feBlend mode="normal" in="SourceGraphic" in2="effect1_dropShadow_1276_7" result="shape"/>
</filter>
</defs>
</svg>
