<svg width="644" height="532" viewBox="0 0 644 532" fill="none" xmlns="http://www.w3.org/2000/svg">
<path d="M341.5 2.5L641.5 25.5V423L309.466 529.5L2 388V17.5L341.5 2.5Z" fill="#191919"/>
<path d="M2 17.5L309.466 42.5M2 17.5L341.5 2.5L641.5 25.5M2 17.5V388L309.466 529.5M309.466 42.5L641.5 25.5M309.466 42.5V529.5M641.5 25.5V423L309.466 529.5" stroke="white" stroke-width="4"/>
<ellipse cx="120.675" cy="365.792" rx="53.8189" ry="23.6144" transform="rotate(12.6072 120.675 365.792)" fill="#D9D9D9"/>
<ellipse cx="224.832" cy="251.717" rx="53.8189" ry="23.4764" transform="rotate(9.01112 224.832 251.717)" fill="#D9D9D9"/>
<ellipse cx="76.0318" cy="127.006" rx="53.8189" ry="22.5066" transform="rotate(7.09326 76.0318 127.006)" fill="#D9D9D9"/>
<ellipse cx="397.718" cy="135.796" rx="53.8189" ry="22.5066" transform="rotate(-9.16986 397.718 135.796)" fill="#D9D9D9"/>
<ellipse cx="565.252" cy="166" rx="52.4284" ry="21.9251" transform="rotate(-9.16986 565.252 166)" fill="#D9D9D9"/>
<ellipse cx="429.936" cy="284" rx="55.9236" ry="23.3868" transform="rotate(-9.16986 429.936 284)" fill="#D9D9D9"/>
<ellipse cx="396.744" cy="436.286" rx="53.8189" ry="22.5066" transform="rotate(-14.5258 396.744 436.286)" fill="#D9D9D9"/>
<ellipse cx="565.25" cy="367.258" rx="53.8189" ry="22.5066" transform="rotate(-19.6018 565.25 367.258)" fill="#D9D9D9"/>
<circle cx="65.01" cy="127.01" r="15.5" transform="rotate(-1.91786 65.01 127.01)" fill="#121212"/>
<circle cx="387.138" cy="138.886" r="15.5" transform="rotate(-18.181 387.138 138.886)" fill="#121212"/>
<circle cx="580.688" cy="161.876" r="15.0995" transform="rotate(-18.181 580.688 161.876)" fill="#121212"/>
<circle cx="418.943" cy="287.211" r="16.1062" transform="rotate(-18.181 418.943 287.211)" fill="#121212"/>
<circle cx="410.562" cy="435.562" r="15.5" transform="rotate(-18.181 410.562 435.562)" fill="#121212"/>
<circle cx="556.095" cy="368.024" r="15.5" transform="rotate(-18.181 556.095 368.024)" fill="#121212"/>
<circle cx="241.5" cy="252.5" r="15.5" fill="#121212"/>
<circle cx="138.5" cy="367.5" r="15.5" fill="#121212"/>
</svg>
