<svg width="76" height="80" viewBox="0 0 76 80" fill="none" xmlns="http://www.w3.org/2000/svg">
<path d="M28.5206 44.4913C19.0387 54.112 16.9199 56.6241 15.1189 59.9913L13 64L27.3022 49.569C41.2867 35.5121 41.6045 35.1378 40.704 34.0689C40.2272 33.4809 39.8035 33 39.8035 33C39.8035 33 34.7183 38.1845 28.5206 44.4913Z" fill="#EAEAEA"/>
<path d="M20.3941 50C19.3035 51.6 18.8188 53 19.0612 53C19.4247 53 20.5153 51.6 21.6059 50C22.6965 48.3 23.1812 47 22.9388 47C22.5753 47 21.4847 48.3 20.3941 50Z" fill="#EAEAEA"/>
<path d="M22.4983 5.07304C22.2317 5.76007 21.5385 9.61798 20.8986 13.6873C20.2588 17.7566 19.4056 23.0942 18.979 25.5781C18.6057 28.062 17.3793 35.5136 16.3661 42.2253C15.2997 48.8841 14.0732 56.4944 13.6466 59.0839C13.2201 61.6735 12.9534 63.8932 13.0068 63.9988C13.1134 64.0517 14.1799 62.3077 15.4063 60.0352C17.2726 56.5472 19.1923 54.3804 29.057 44.6035C39.9885 33.7168 40.5216 33.2941 41.2682 34.2981C42.068 35.3022 42.2279 35.2494 45.534 31.9199L49 28.4848L45.4274 22.0373C43.5078 18.4965 41.588 15.2727 41.2682 14.9557C40.3084 14.0044 38.9752 15.3784 37.1089 19.2364C36.2558 20.9804 35.3493 22.3544 35.0827 22.2487C34.5494 22.0902 34.2295 21.5616 28.8971 11.8376C26.5509 7.60975 24.3113 4.12177 23.8314 4.01607C23.3515 3.91038 22.7649 4.33316 22.4983 5.07304ZM21.6451 49.3598C21.1652 50.2054 20.6853 50.9453 20.5254 50.9453C20.4187 50.9453 20.632 50.2054 21.1119 49.3598C21.5918 48.4614 22.0717 47.7744 22.2317 47.7744C22.3384 47.7744 22.1251 48.4614 21.6451 49.3598Z" fill="#EAEAEA"/>
<path d="M35.8561 41.3862C23.6218 53.8713 13.4699 63.9757 13.3137 63.817C13.1575 63.6053 13.0013 63.7111 13.0013 63.9757C13.0013 64.6106 12.5848 64.3459 26.6413 72.2814C34.034 76.5136 38.9798 79 39.9169 79C40.8019 79 46.2163 76.302 54.0775 71.8581C61.1058 67.9434 66.8845 64.6106 66.9886 64.5046C67.0929 64.3988 66.4681 59.8493 65.5831 54.3474C62.6156 35.7786 61.4703 28.4781 60.8976 24.7748C60.1687 19.9608 59.9605 19.3788 58.9714 19.0084C58.3466 18.744 52.2033 24.669 35.8561 41.3862Z" fill="white"/>
<path d="M30.8842 46.3159C21.0802 55.7799 13 63.7879 13 63.9959C13 64.2038 21.1341 56.5079 31.0459 46.8879C47.2063 31.288 49.4687 29 48.9301 29C48.8763 29 40.7421 36.8 30.8842 46.3159Z" fill="#EAEAEA"/>
</svg>
