<svg width="75" height="85" viewBox="0 0 75 85" fill="none" xmlns="http://www.w3.org/2000/svg">
<path d="M35.8042 0.467758C35.543 0.546324 34.987 0.784483 34.5779 0.991666C32.8097 1.94919 30.861 3.05126 30.5656 3.27595C30.4015 3.40439 30.2049 3.51621 30.1398 3.51551C30.0747 3.51481 29.5508 3.80213 28.9936 4.15421C28.4203 4.48983 27.2412 5.16074 26.39 5.60731C25.5387 6.07015 24.8018 6.48539 24.7524 6.53368C24.7029 6.59826 24.49 6.72617 24.2609 6.83764C23.5572 7.18814 22.5748 7.73095 21.8866 8.16299C21.5262 8.3707 21.0513 8.64228 20.8222 8.75375C20.5932 8.86522 20.2658 9.04073 20.0855 9.15272C19.0208 9.77602 15.0579 12.012 14.436 12.3308C14.2069 12.4423 13.7153 12.7463 13.3384 12.9863C12.9452 13.2263 12.6176 13.418 12.5688 13.4175C12.52 13.417 9.75241 14.9822 9.19523 15.3343C9.06416 15.4143 8.73657 15.6061 8.4585 15.7333C8.19671 15.8607 7.23056 16.4037 6.32969 16.9311C5.42881 17.4585 4.49557 17.9693 4.2504 18.0643C3.98896 18.1591 3.79209 18.3035 3.79121 18.3849C3.79033 18.4662 3.69199 18.5303 3.57807 18.5291C3.12238 18.5242 1.77106 20.0721 1.22156 21.2218L0.655436 22.4039L0.478156 41.8846L0.316976 61.3818L0.747268 62.2328C1.25753 63.2149 2.52848 64.5958 3.30544 64.9948C3.6129 65.1609 3.96866 65.3763 4.09762 65.4916C4.22659 65.6069 4.88981 65.9884 5.55338 66.3374C6.21694 66.6863 6.79931 67.0181 6.84743 67.0837C6.89573 67.1331 7.31606 67.398 7.80149 67.6637C8.27064 67.9292 8.9986 68.3439 9.4191 68.5926C10.9069 69.4875 13.7568 70.8529 14.9408 71.24C15.9788 71.5767 16.4828 71.6309 18.2732 71.634C20.633 71.6594 21.9381 71.3805 23.4936 70.5183C24.3287 70.0553 25.8733 68.6884 25.8763 68.4118C25.8772 68.3304 25.9766 68.1687 26.0918 68.056C26.4372 67.7179 27.19 65.8217 27.3633 64.847C27.4667 64.311 27.6142 56.6628 27.7522 45.3685C27.9322 28.6548 27.9362 26.7668 27.6946 26.5363C27.4853 26.3225 27.0301 26.2687 25.1098 26.2481C23.0592 26.226 22.7334 26.255 22.4049 26.5282L22.011 26.8332L21.7825 45.0275L21.5378 63.2055L21.1236 63.8846C20.361 65.1785 18.6756 66.0067 17.2781 65.7963C16.2218 65.6385 14.8114 65.1187 13.7765 64.4891C12.2077 63.5607 11.2374 62.9806 9.92723 62.2178C9.23181 61.8034 8.40708 61.3062 8.0837 61.1074C7.74404 60.9084 7.17794 60.5768 6.80574 60.3775C6.35268 60.1285 6.0629 59.8324 5.95231 59.5219C5.71573 58.8195 6.10363 24.3181 6.35529 23.6209C6.45591 23.3453 6.63738 23.1194 6.76758 23.1208C6.89777 23.1222 7.20839 22.9953 7.45443 22.8189C7.7003 22.6588 8.71562 22.0838 9.69822 21.5247C10.6969 20.9821 11.6139 20.4711 11.7448 20.4074C11.9905 20.2636 13.3169 19.5129 16.2481 17.868C17.0669 17.4048 17.9511 16.9098 18.2133 16.7498C18.4917 16.5901 19.0321 16.2866 19.4414 16.0632C19.8507 15.8397 20.5876 15.4245 21.079 15.1368C21.5704 14.8491 22.3073 14.4339 22.7164 14.2267C23.1256 14.0195 23.8296 13.6365 24.2721 13.3483C24.7308 13.0765 25.4677 12.6613 25.9097 12.4219C26.3681 12.1827 27.3508 11.6073 28.1206 11.1599C28.8904 10.7124 29.9875 10.1057 30.5767 9.80284C31.1661 9.48366 32.1158 8.95677 32.7055 8.60505C33.2952 8.25333 34.0649 7.82216 34.4248 7.647C34.785 7.45556 35.3416 7.15231 35.6529 6.96035C37.4388 5.8728 37.9445 5.76431 38.5899 6.2921C38.7188 6.40742 39.2364 6.70598 39.7217 6.9879C40.2071 7.25354 41.5981 8.06606 42.7949 8.77883C43.9917 9.4916 45.1562 10.1715 45.3827 10.3041C45.6091 10.4368 46.1911 10.8011 46.6762 11.0993C47.1611 11.4138 47.9375 11.8616 48.3745 12.0942C48.8277 12.3269 49.4101 12.6587 49.6685 12.8406C50.1695 13.1715 51.8031 14.1331 53.3073 15.0119C53.7926 15.2938 54.3587 15.6255 54.5525 15.7578C54.9568 16.0063 55.8623 16.5531 56.7035 17.0342C57.5773 17.5156 60.4884 19.2397 61.2645 19.7201C61.5718 19.9024 62.8655 20.6814 64.0462 21.3777C64.4992 21.6267 65.2107 22.0575 65.6312 22.3062C66.0678 22.5713 66.4561 22.7871 66.505 22.7876C66.5538 22.7882 66.9095 23.0036 67.2971 23.2845C67.6849 23.5491 68.1219 23.7816 68.2521 23.783C68.3823 23.7844 68.576 23.933 68.6556 24.0966C68.8631 24.4732 68.5125 60.0493 68.3137 60.3727C68.198 60.5342 66.3789 61.6865 66.2162 61.6847C66.1837 61.6844 65.8396 61.8923 65.446 62.1647C65.0364 62.4207 64.6596 62.6445 64.5782 62.6437C64.5132 62.643 63.94 62.9623 63.3011 63.3461C62.6622 63.7298 61.9253 64.1451 61.6473 64.2723C61.3853 64.4159 60.5012 64.8947 59.6824 65.3579C58.8797 65.8375 57.586 66.5723 56.8163 67.0035C56.0467 67.4346 55.015 68.0258 54.5234 68.3297C54.032 68.6174 53.4426 68.9366 53.2137 69.0318C53.0011 69.1271 52.7719 69.2549 52.7223 69.3194C52.6728 69.384 52.378 69.5599 52.0672 69.703C51.7562 69.8624 51.0193 70.2777 50.4297 70.6131C49.84 70.9648 49.1521 71.3643 48.874 71.4915C48.6121 71.6352 48.0227 71.9544 47.5642 72.2099C47.1218 72.4818 46.4178 72.8648 46.0083 73.1046C45.599 73.328 45.0584 73.6477 44.78 73.8075C44.5179 73.9674 43.5845 74.4945 42.7329 74.9736C41.2756 75.788 40.8661 76.0277 38.8523 77.1291C38.4104 77.3522 38.0334 77.5923 37.9839 77.6569C37.9346 77.7052 37.6726 77.8488 37.3947 77.9598C36.8227 78.1815 36.5469 78.0971 35.2215 77.2365C34.7368 76.9057 34.0414 76.4913 33.6854 76.2922C33.3295 76.0931 33.0063 75.878 32.9582 75.8124C32.91 75.7467 32.5868 75.5317 32.2309 75.3325C31.875 75.1334 31.3251 74.8019 30.9855 74.6029C30.6621 74.4041 29.9182 73.9567 29.3358 73.6249L28.2684 72.9949L27.7282 73.282C26.4674 73.9846 25.4862 74.4135 24.3424 74.8244C23.6725 75.0613 23.0026 75.2982 22.8716 75.3782C22.4134 75.6011 22.5067 76.009 23.1368 76.439C24.1222 77.1332 27.3238 79.0883 29.7503 80.4816C30.4621 80.8799 31.1413 81.2942 31.2702 81.4095C31.5121 81.6237 31.7546 81.7728 33.777 82.9013C34.8124 83.4822 35.0396 83.5497 36.4059 83.6295C37.2355 83.671 38.2285 83.6654 38.6196 83.6208C39.2228 83.5297 41.9389 82.208 43.97 81.0092C44.2813 80.8172 44.7724 80.5621 45.0342 80.4347C45.3124 80.2912 45.8199 80.02 46.1804 79.796C46.8849 79.3641 47.3434 79.1086 50.6022 77.272C51.7811 76.6173 53.3043 75.7385 54.0084 75.3392C54.7128 74.9236 55.3186 74.5883 55.3512 74.5887C55.3837 74.589 55.695 74.3971 56.0392 74.1729C56.3835 73.9488 56.8094 73.6929 56.9893 73.6135C57.5453 73.3753 59.0847 72.4967 59.8223 72.0164C60.2157 71.7602 60.6085 71.5528 60.7062 71.5539C60.8038 71.5549 61.1148 71.3955 61.3937 71.1869C61.6727 70.9784 62.1478 70.6905 62.4423 70.5472C62.7206 70.4037 63.2114 70.1648 63.5061 70.0053C63.7843 69.8618 64.2103 69.6059 64.4401 69.4294C64.6696 69.2691 65.0791 69.0293 65.3409 68.902C65.6188 68.791 66.1755 68.4878 66.585 68.248C66.9944 68.0083 68.2555 67.2895 69.3525 66.6828C71.7431 65.3576 72.9427 64.2963 73.6418 62.8552L74.1247 61.8513L74.3333 42.4848L74.5419 23.1184L74.0008 21.9732C73.6984 21.3352 73.2503 20.6304 72.9925 20.3835C72.0099 19.4289 71.7357 19.1981 71.1534 18.8663C70.021 18.2193 67.7244 16.8599 66.9805 16.4125C66.5765 16.1477 66.1234 15.8987 65.9939 15.8322C65.8644 15.7657 65.2499 15.401 64.6194 15.0036C64.0052 14.6063 63.4389 14.291 63.3575 14.2901C63.2761 14.2892 62.888 14.0572 62.484 13.7924C62.0964 13.5115 61.7081 13.2958 61.6104 13.2947C61.529 13.2938 61.4646 13.228 61.4653 13.1629C61.466 13.0978 61.2723 12.9493 61.0294 12.8327C60.7703 12.716 60.4304 12.5333 60.2526 12.4174C60.0747 12.3179 59.2337 11.8205 58.3927 11.3232C57.5517 10.8258 56.2417 10.0467 55.4817 9.58281C53.9132 8.62189 53.9941 8.6716 51.1312 6.99686C49.9504 6.31681 48.705 5.58724 48.3489 5.40437C48.0092 5.2054 47.5728 4.924 47.3955 4.75933C47.2183 4.59466 47.0727 4.51171 47.072 4.57681C47.0713 4.6419 46.7638 4.47583 46.3759 4.22751C45.5195 3.64861 45.2447 3.46661 44.2418 2.88615C43.8052 2.62102 43.1744 2.25615 42.8671 2.0738C40.0853 0.43249 40.1826 0.466087 38.1649 0.411806C37.14 0.368209 36.0816 0.40564 35.8042 0.467758Z" fill="white"/>
<path d="M43.3518 25.4029C38.8037 26.0538 36.4178 26.9396 34.5106 28.7257C33.3103 29.8521 32.8304 30.5794 32.2109 32.1841C31.8091 33.2214 31.7393 33.6601 31.7065 35.1897C31.6731 36.7844 31.7345 37.1269 32.1445 38.352C32.5548 39.5446 32.7629 39.8724 33.6642 40.8099C35.3863 42.6188 37.7679 43.6373 41.8458 44.3323C44.5102 44.7841 44.8191 44.82 46.3963 44.9672C49.2909 45.21 53.8685 46.3498 54.8535 47.0766C56.5492 48.3155 56.0612 51.3051 53.9301 52.7145C52.34 53.7716 47.5493 54.2734 43.7784 53.7933C40.8041 53.4032 39.0048 52.7165 37.8947 51.5163C37.2834 50.8424 36.5221 48.995 36.5147 48.1649C36.5258 47.1396 36.2664 47.0391 33.5486 47.0098C31.3353 46.986 31.1234 47.0163 30.8109 47.3222C30.4819 47.6441 30.4642 47.7742 30.5634 49.1424C30.8568 53.6378 33.3465 56.7083 38.0326 58.3539C41.8756 59.6973 47.846 59.9732 52.9833 59.0195C53.7008 58.897 56.0205 58.1081 56.4302 57.8521C56.6596 57.7081 57.1343 57.4528 57.4943 57.2777C57.8543 57.1025 58.6752 56.444 59.3165 55.8324C60.583 54.6091 61.5282 52.9916 61.8706 51.4165C62.0586 50.5885 62.0651 46.9589 61.8776 46.2408C61.5808 45.0819 59.8825 42.5734 59.378 42.568C59.3129 42.5673 59.0382 42.3853 58.7803 42.1546C58.5223 41.924 58.2476 41.742 58.1499 41.7409C58.0686 41.74 57.7769 41.623 57.5018 41.4735C57.0487 41.2245 55.1189 40.5689 53.8528 40.246C52.7168 39.9408 49.354 39.3512 47.9234 39.1893C43.9402 38.7721 39.5411 37.683 38.7029 36.9253C37.7196 36.0358 37.808 33.872 38.8934 32.842C39.6829 32.0692 39.8959 31.9413 40.7287 31.6899C44.2562 30.5885 49.901 30.8772 52.311 32.2866C53.6696 33.0825 54.3597 33.9852 54.8784 35.6997C55.4606 37.5615 55.315 37.4786 58.0328 37.5078C60.2298 37.5315 60.4255 37.5011 60.738 37.1952C61.0505 36.8893 61.085 36.7106 61.0292 35.8474C60.9437 34.7234 60.569 33.2382 60.0761 32.1587C59.9015 31.7499 59.7426 31.3901 59.7431 31.3413C59.7274 31.2923 59.4713 30.8826 59.1831 30.4401C58.5745 29.522 57.238 28.1893 56.5905 27.8568C56.3639 27.7404 55.911 27.4751 55.5876 27.2763C55.2481 27.0611 54.9729 26.9279 54.9725 26.9604C54.972 27.0092 54.5181 26.8416 53.967 26.6241C52.4602 25.9893 49.6006 25.5191 46.5255 25.4209C45.0448 25.3724 43.6288 25.3734 43.3518 25.4029Z" fill="white"/>
</svg>
