<svg width="102" height="94" viewBox="0 0 102 94" fill="none" xmlns="http://www.w3.org/2000/svg">
<path d="M51.0685 9.66772C49.6441 9.46529 48.5861 9.5325 47.4708 9.91564C46.8306 10.1308 46.2648 10.3675 46.2287 10.4313C46.1855 10.5078 46.0052 10.6129 45.8124 10.6787C45.2547 10.8703 43.5169 12.4477 42.5953 13.6205C41.2484 15.3322 40.0369 17.2939 39.3459 18.9464C38.9941 19.753 38.5098 20.8864 38.2815 21.4438C38.0398 21.9943 37.6811 23.0275 37.4963 23.7222C37.298 24.41 37.0936 25.0783 37.0216 25.2058C36.8991 25.4227 35.9884 25.3515 34.6629 25.0352C34.3452 24.9549 33.6872 24.865 33.1839 24.8377C32.6806 24.8105 32.2124 24.7519 32.1319 24.7107C31.9173 24.6009 29.4071 24.4843 27.125 24.4844C26.6485 24.4709 26.1288 24.5339 25.9773 24.588C25.8052 24.6479 25.6206 24.6686 25.5535 24.6343C25.3389 24.5245 23.3737 24.8511 22.0614 25.2157C20.8315 25.5567 18.9133 26.3513 18.7909 26.5682C18.762 26.6192 18.3994 26.8941 17.9955 27.1808C17.3061 27.6667 17.2073 27.7806 16.4037 29.3262C15.9128 30.226 15.5529 31.0778 15.5757 31.221C15.5986 31.3643 15.5877 31.7204 15.5447 32.0108C15.3832 33.2765 15.9243 35.625 16.8548 37.7123C17.135 38.3489 17.4048 38.8815 17.4585 38.9089C17.5121 38.9364 17.6093 39.1011 17.6723 39.265C17.8741 39.7956 18.7139 41.0638 19.8139 42.5143C21.1173 44.2169 21.6894 44.8877 23.1958 46.4145C24.3253 47.5677 24.3707 47.6403 24.1442 47.9191C24.0165 48.0839 23.4655 48.7229 22.9084 49.3422C20.0226 52.5851 17.3448 57.2661 16.7181 60.1518C16.6309 60.5511 16.5268 61.5008 16.4906 62.2386C16.3972 64.3941 17.0612 66.0656 18.6232 67.5551C19.351 68.2563 21.7335 69.4256 22.9651 69.6938C25.3138 70.1882 27.0641 70.4258 27.66 70.3196C27.7972 70.291 28.1787 70.2889 28.4984 70.3044C28.8181 70.32 29.5338 70.3079 30.0731 70.2713C30.6124 70.2348 31.1785 70.212 31.3074 70.2286C31.4436 70.2324 31.8333 70.1852 32.1756 70.1301C32.5045 70.0681 33.1891 69.9579 33.6882 69.9008C34.1738 69.8368 34.7141 69.7678 34.8718 69.7334C35.4956 69.6085 36.4492 69.3893 37.4173 69.1446L38.4132 68.8812L38.8384 70.1181C39.4324 71.8524 41.5195 76.2085 41.8415 76.3731C41.9086 76.4074 41.9995 76.5526 42.0429 76.6899C42.2054 77.1676 44.4498 80.1736 44.7852 80.3452C44.8522 80.3795 45.2827 80.7805 45.7318 81.2405C46.4257 81.9406 46.7993 82.1975 48.1675 82.8974C49.6162 83.6384 49.9195 83.7442 50.9715 83.8713C51.908 83.9885 52.3999 83.9442 53.5885 83.615C54.3926 83.385 55.2399 83.0785 55.4759 82.9361C57.8656 81.4291 59.0634 80.1345 60.9861 76.9745C62.4415 74.6113 63.7951 71.5713 64.3803 69.3714L64.7407 68.0595L65.0585 68.1399C65.6671 68.2867 67.437 68.5508 68.3208 68.6083C68.8035 68.6414 69.2583 68.6932 69.3254 68.7275C69.6205 68.8785 74.9108 68.9702 75.5078 68.8316C75.6727 68.7844 75.8769 68.7902 75.9574 68.8314C76.0245 68.8657 76.3049 68.8283 76.5801 68.7388C76.8554 68.6494 77.1224 68.6052 77.1895 68.6395C77.4846 68.7904 80.7763 67.8598 81.8553 67.3266C83.4745 66.5105 84.0771 65.9638 85.0374 64.4162C85.9051 63.002 85.9277 62.9314 86.0234 61.8129C86.0773 61.1663 86.0765 60.5247 86.0402 60.3746C85.9834 60.2304 85.9821 60.0489 86.0181 59.9851C86.1262 59.7938 85.2091 56.8254 84.7728 55.9446C84.5413 55.4973 84.3108 55.0177 84.2673 54.8804C84.2239 54.743 84.0927 54.5773 83.9854 54.5224C83.8781 54.4675 83.8264 54.3753 83.8624 54.3115C83.9345 54.184 82.136 51.5211 81.314 50.5581C80.1904 49.2106 79.3726 48.3319 77.761 46.6854C77.0279 45.9323 77.0135 45.9578 78.2525 44.6514C79.4071 43.4334 81.3869 40.6314 82.5107 38.6413C85.4787 33.3852 85.8299 29.4872 83.6166 26.5793C83.126 25.9173 82.8989 25.7683 81.2572 24.8792C79.535 23.9489 79.3802 23.8862 77.8289 23.6024C76.2982 23.3127 72.8371 23.1044 72.1649 23.2538C72 23.301 71.8226 23.3089 71.7824 23.2883C71.6348 23.2128 69.8438 23.4148 67.8652 23.7346C66.1196 24.0091 65.5505 24.1291 63.7928 24.5782L63.2299 24.7178L63.0943 24.2538C62.8655 23.4956 62.2057 21.9085 61.541 20.4833C61.0168 19.3602 60.5838 18.5961 59.5723 16.9277C59.19 16.2882 58.0558 14.6229 57.9753 14.5817C57.935 14.5611 57.6851 14.2689 57.4156 13.9502C56.9436 13.347 56.3748 12.793 55.1742 11.7349C54.338 11.0113 51.9163 9.78898 51.0685 9.66772ZM52.6784 14.2565C54.3413 15.5674 55.9793 17.6878 57.5523 20.5969C57.9202 21.262 58.22 21.925 58.2232 22.0418C58.2192 22.1713 58.2968 22.3096 58.3772 22.3508C58.4443 22.3851 58.5807 22.6028 58.6696 22.8127C58.7379 23.0285 59.0142 23.7946 59.2852 24.5087L59.7559 25.8182L59.1116 25.949C58.7683 26.0365 58.4374 26.1632 58.3869 26.2525C58.3365 26.3418 58.2396 26.3909 58.1726 26.3566C58.1189 26.3292 57.3416 26.5728 56.4727 26.9176C55.5832 27.2683 54.6524 27.6307 54.3906 27.727C53.0598 28.2466 50.3522 29.4595 50.2874 29.5743C50.2657 29.6126 49.6994 29.4215 49.0339 29.1305C47.5688 28.4797 44.3191 27.3765 42.1703 26.8036C41.2987 26.5715 40.5703 26.3305 40.5373 26.2971C40.4856 26.2049 40.6839 25.5171 41.474 23.0768C41.9261 21.6638 42.21 21.0691 43.6148 18.5814C45.177 15.8454 45.2913 15.6737 46.1885 14.8501C47.8635 13.3228 49.0097 12.8238 50.3434 13.095C51.346 13.279 51.5606 13.3888 52.6784 14.2565ZM80.619 28.5811C81.4751 29.5451 81.6182 31.0981 81.0309 33.3627C80.5515 35.2221 78.4408 38.96 76.6726 41.081C74.544 43.6259 74.4246 43.7457 74.1593 43.5113C72.0803 41.7738 67.9023 38.7324 66.8024 38.1698C66.3865 37.9571 66.0728 37.7473 66.1088 37.6835C66.2745 37.3901 64.9504 30.3661 64.4712 28.8878C64.3575 28.5995 64.3334 28.2747 64.3838 28.1854C64.4414 28.0834 65.0403 27.88 65.7125 27.7306C66.3713 27.5743 67.126 27.4012 67.3806 27.3177C67.628 27.247 67.9147 27.2292 67.9952 27.2704C68.0756 27.3115 68.2334 27.2771 68.3313 27.1956C68.4291 27.1142 68.7652 27.0394 69.0725 27.0158C69.3932 26.9989 70.1243 26.9289 70.7254 26.8747C71.3203 26.8008 71.8524 26.777 71.9061 26.8045C71.9598 26.8319 72.1237 26.8171 72.2618 26.7562C72.7308 26.5686 76.4435 26.7906 77.5524 27.0618C78.9522 27.3997 80.0594 27.9495 80.619 28.5811ZM61.3361 31.3783C61.6056 32.5849 61.8908 33.9475 61.9718 34.4164L62.1089 35.2758L58.353 33.3546L54.597 31.4334L55.4391 31.075C56.6946 30.5662 56.9564 30.4699 59.119 29.7017C59.7179 29.4983 60.29 29.2812 60.4013 29.2066C60.5126 29.132 60.6631 29.1104 60.7302 29.1447C60.7839 29.1721 61.0594 30.1845 61.3361 31.3783ZM62.5573 39.5335C62.7762 39.7277 62.9394 40.847 62.8775 41.7526C62.8572 41.9724 62.8957 42.2716 62.9588 42.4354C63.0425 42.5933 63.0571 42.7817 63.0211 42.8454C62.9779 42.922 62.9824 43.2202 63.0209 43.5195C63.0656 43.8383 63.1063 44.2866 63.1056 44.5329C63.1195 44.9675 63.1443 45.9338 63.1923 47.2573C63.2258 48.6063 63.2435 49.5854 63.2293 49.8248C63.2253 49.9543 63.2154 50.2781 63.2271 50.5636C63.2326 50.8294 63.2117 51.5093 63.1948 52.0597L63.164 53.0634L62.623 53.3786C62.3313 53.5583 62.0531 53.7448 62.0099 53.8213C61.9739 53.8851 61.6678 54.0903 61.3216 54.2749C60.9753 54.4595 60.6548 54.6902 60.59 54.805C60.5324 54.9071 60.4283 54.969 60.3612 54.9346C60.2941 54.9003 59.9685 55.0791 59.6202 55.3284C59.2647 55.5905 58.5702 56.0245 58.0642 56.3083C56.4277 57.2469 56.1082 57.4453 55.6569 57.7241C55.4209 57.8665 54.9911 58.107 54.7077 58.2416C54.4243 58.3761 54.1605 58.5371 54.1172 58.6137C54.0812 58.6775 53.9081 58.7698 53.7235 58.7905C53.5452 58.8308 53.2617 58.9653 53.0804 59.1027C52.1819 59.7448 51.2645 60.1141 50.8457 59.9985C50.6095 59.927 47.8111 58.545 44.632 56.9189L38.8505 53.9616L38.7695 52.6048C38.7305 51.8778 38.6503 51.1627 38.5934 51.0185C38.5293 50.887 38.5209 50.7183 38.5569 50.6545C38.6001 50.5779 38.5956 50.2797 38.5571 49.9805C38.5124 49.6617 38.4717 49.2133 38.4724 48.9671C38.4585 48.5325 38.4336 47.5661 38.3857 46.2426C38.3512 44.926 38.3345 43.9145 38.3435 43.6231C38.3546 43.4809 38.3636 43.1895 38.3633 42.9756C38.3693 42.7814 38.3892 42.1338 38.408 41.5187L38.448 40.4375L39.3805 39.7964C39.9019 39.4548 40.479 39.0758 40.6737 38.9452C40.8685 38.8147 41.1189 38.6468 41.2302 38.5722C41.6341 38.2855 45.3336 36.0508 46.019 35.6944C46.1787 35.5952 46.8228 35.2505 47.4319 34.9373C48.0482 34.6113 48.6099 34.2902 48.6861 34.247C48.8046 34.1596 50.1269 33.4713 50.3547 33.374C50.5825 33.2768 61.9266 38.9972 62.5573 39.5335ZM45.5216 31.9213C45.2578 32.0824 44.6962 32.4034 44.2664 32.644C43.8439 32.8718 43.1782 33.2547 42.8031 33.4904C42.4414 33.7329 42.0611 33.9165 41.9518 33.9264C41.8631 33.9303 41.724 34.0236 41.6664 34.1257C41.6015 34.2405 41.3027 34.4329 40.9852 34.5665C40.6678 34.7001 40.3617 34.9053 40.2969 35.0201C40.2321 35.1349 40.0929 35.2282 39.9836 35.238C39.8816 35.2351 39.5559 35.4138 39.2839 35.62L38.7615 35.994L38.839 35.2444C38.8787 34.8373 38.9441 34.2623 38.987 33.9719C39.03 33.6815 39.1497 32.8877 39.2521 32.2166C39.341 31.5386 39.4895 30.6939 39.5757 30.3269L39.7389 29.6705L41.832 30.2807C42.9864 30.6245 44.3832 31.0595 44.9217 31.2692C45.4809 31.473 45.939 31.6415 45.9596 31.6356C45.9864 31.6494 45.7783 31.7731 45.5216 31.9213ZM69.8355 44.5553L71.8111 46.1084L71.5691 46.445C71.427 46.6354 70.9861 47.0182 70.5956 47.3118C70.2051 47.6053 69.8414 47.9125 69.7982 47.9891C69.719 48.1294 68.6218 49.0315 67.4781 49.8935L66.8578 50.349L66.8603 49.8241C66.8692 49.5327 66.8531 48.949 66.8598 48.5085C66.8459 48.0738 66.8389 47.4126 66.8374 47.0172C66.8096 45.2601 66.7053 43.3323 66.6215 43.1744C66.6029 43.1155 66.6089 42.9213 66.6489 42.728C66.699 42.4248 66.7537 42.4199 67.2903 42.6943C67.6122 42.859 68.7517 43.6885 69.8355 44.5553ZM35.8911 30.3002C35.8059 30.6347 35.7229 31.1185 35.6943 31.3834C35.6864 31.6424 35.6057 32.2752 35.5155 32.7717C35.1459 35.049 35.1029 35.3394 35.1516 35.5287C35.162 35.6327 35.1315 35.9624 35.0885 36.2528C35.0321 36.5363 34.973 37.1309 34.9663 37.5714C34.9427 38.5623 34.8995 38.6389 34.0432 39.2367C32.9644 39.9839 31.4993 41.1089 31.4272 41.2364C31.3912 41.3002 31.0842 41.5378 30.7431 41.7744C30.4227 42.0051 29.9972 42.33 29.821 42.5195C29.4204 42.9229 27.0262 45.0196 26.9437 45.0432C26.8406 45.0727 25.1217 43.3713 24.6166 42.7348C24.3739 42.4298 24.1034 42.1434 24.0229 42.1023C23.9424 42.0611 23.7122 41.7953 23.5159 41.5305C23.3269 41.253 22.8229 40.5841 22.417 40.0476C22.0183 39.4984 21.6268 38.9364 21.5699 38.7922C21.5058 38.6608 21.2795 38.2655 21.0574 37.9546C20.8291 37.6241 20.6751 37.3151 20.7111 37.2513C20.7399 37.2003 20.7017 37.115 20.6212 37.0738C20.3932 36.9572 19.5915 34.8865 19.353 33.7779C19.1022 32.6302 19.1955 31.3626 19.5701 30.6992C19.8511 30.2017 20.8586 29.3359 21.4657 29.0874C21.9419 28.887 24.1883 28.2767 24.8595 28.1596C26.503 27.8822 30.2691 27.9177 32.5413 28.2414C33.6469 28.3959 34.1554 28.4752 35.2467 28.6552L36.1214 28.7902L36.0734 29.2425C36.052 29.4946 35.9763 29.9656 35.8911 30.3002ZM75.4098 49.3796C77.4261 51.3811 78.4319 52.5697 80.1013 55.002C81.0929 56.43 82.4691 59.5345 82.2674 59.8917C82.2386 59.9427 82.2605 60.1183 82.3442 60.2763C82.5148 60.7088 82.3608 62.1756 82.0799 62.6732C81.835 63.1069 80.6471 64.0778 80.0956 64.289C78.8133 64.784 76.9741 65.2244 75.6491 65.3359C75.2531 65.3635 74.8768 65.4177 74.8077 65.4481C74.6356 65.5081 69.8855 65.3474 69.0511 65.233C67.701 65.0521 65.6474 64.7087 65.6422 64.6567C65.6049 64.539 65.8732 62.9005 65.9524 62.7601C65.9957 62.6836 66.057 62.2382 66.0781 61.7721C66.092 61.3189 66.1606 60.8607 66.2182 60.7586C66.2687 60.6693 66.3372 60.2111 66.3645 59.7647C66.3991 59.3055 66.4743 58.4068 66.5282 57.7603C66.5821 57.1137 66.6646 56.2022 66.6857 55.7362C66.7548 54.8179 66.8474 54.6844 67.883 54.0138C68.2375 53.7841 68.558 53.5534 68.6012 53.4768C68.6372 53.4131 68.9999 53.1382 69.3688 52.8829C69.7583 52.6218 70.1003 52.3528 70.1435 52.2763C70.1868 52.1997 70.4175 52.0054 70.6679 51.8375C71.2244 51.4644 72.9727 49.991 73.4444 49.4924C73.7544 49.1577 74.5095 48.5245 74.5632 48.552C74.5632 48.552 74.9535 48.9324 75.4098 49.3796ZM62.785 58.7558C62.7234 58.9874 62.6774 59.375 62.6623 59.6467C62.6506 60.2491 62.4163 61.8886 62.2184 62.7903C62.1322 63.1573 62.0512 63.5763 62.04 63.7185C62.0124 63.951 61.9372 63.9619 61.6555 63.8178C61.4543 63.7149 60.5165 63.4161 59.5438 63.1487C58.5844 62.8882 57.3093 62.4826 56.7171 62.2454L55.6266 61.8192L55.9614 61.563C56.1562 61.4324 56.3437 61.3146 56.419 61.3037C56.4943 61.2929 56.7715 61.1387 57.0425 60.965C57.3269 60.7981 57.7711 60.532 58.0339 60.4033C58.3173 60.2688 58.6914 60.0655 58.8728 59.9281C59.0675 59.7975 59.4911 59.5373 59.8239 59.3459C60.1434 59.1475 60.8029 58.745 61.2955 58.4544C61.7747 58.1569 62.2395 57.8849 62.3497 57.8426C62.4528 57.8132 62.6001 57.6748 62.6866 57.5217C62.8018 57.3176 62.8411 57.3705 62.8684 57.812C62.8863 58.1171 62.8528 58.5439 62.785 58.7558ZM34.7087 44.8551C34.7008 45.1141 34.7147 45.5487 34.7542 45.8156C34.7875 46.0628 34.7723 46.3346 34.7219 46.4239C34.6787 46.5004 34.6822 46.831 34.7403 47.1567C34.7984 47.4824 34.8091 47.8003 34.7731 47.8641C34.7289 47.973 34.8444 49.7585 34.9388 50.2343C34.9699 50.3324 34.9681 50.611 34.9405 50.8436L34.907 51.2704L34.0443 50.7469C33.1485 50.19 30.0056 47.8261 29.83 47.5554C29.6926 47.37 30.2066 46.8272 31.6881 45.612C32.2197 45.1604 32.8492 44.6274 33.0799 44.433C33.3107 44.2387 33.7784 43.8696 34.1133 43.6133L34.7202 43.151L34.7219 43.7602C34.712 44.084 34.7105 44.5765 34.7087 44.8551ZM61.1907 67.6413C59.9095 71.6555 59.8508 71.79 58.0971 74.7733C56.509 77.4632 56.3381 77.7046 55.4337 78.5409C54.3891 79.5028 53.4648 80.0988 52.6401 80.3346C51.9597 80.5292 50.6426 80.3817 49.9988 80.0523C49.3352 79.6965 47.7342 78.3679 47.1487 77.6902C46.5178 76.94 45.2638 75.1805 45.118 74.8264C45.0683 74.6694 44.964 74.5174 44.9237 74.4968C44.7762 74.4214 43.3818 71.6858 43.362 71.4454C43.3587 71.3287 43.2678 71.1835 43.1739 71.1355C43.0666 71.0806 42.9715 70.851 42.9516 70.6107C42.9317 70.3703 42.8634 70.1545 42.7963 70.1202C42.7427 70.0928 42.5131 69.5808 42.3 68.9785C41.8727 67.8063 41.8511 67.8445 42.8624 67.5233C44.0592 67.1489 46.632 66.1136 48.7181 65.1748C49.3747 64.8693 50.2033 64.504 50.5621 64.3586C50.9073 64.2064 51.2402 64.0149 51.2762 63.9511C51.3267 63.8618 51.6774 63.9755 52.1335 64.2088C52.5493 64.4215 53.7141 64.8693 54.7189 65.2024C55.7237 65.5355 57.0587 65.9881 57.6849 66.2262C58.3184 66.4516 59.3242 66.7523 59.906 66.8855C61.3202 67.1978 61.3336 67.2046 61.1907 67.6413ZM28.5502 51.0771C30.8932 52.8675 32.8077 54.192 34.1131 54.9419C34.8829 55.385 35.4836 55.7909 35.4476 55.8547C35.4188 55.9057 35.4386 56.1461 35.4925 56.3874C35.5537 56.616 35.6846 57.4557 35.8103 58.2435C35.936 59.0312 36.0865 59.8975 36.1528 60.178C36.212 60.4714 36.2835 60.8039 36.3073 60.9148C36.435 61.6378 36.8228 63.431 36.9398 63.8361C37.0133 64.1039 37.1346 64.5935 37.2123 64.9456L37.377 65.5725L36.9162 65.7149C36.6616 65.7984 35.7976 65.9813 35.0027 66.1338C34.2078 66.2862 33.3789 66.4377 33.1665 66.477C32.9541 66.5164 32.653 66.5597 32.4891 66.5745C32.3323 66.5765 31.7106 66.6366 31.1094 66.6909C29.1482 66.888 27.8602 66.9033 26.108 66.7305C24.9395 66.626 24.4588 66.5282 22.8732 66.0295C21.6992 65.6592 20.6112 64.7081 20.2987 63.7919C20.1869 63.4387 20.1081 63.1189 20.137 63.0679C20.1658 63.0169 20.1531 62.7638 20.1136 62.4969C20.0741 62.2301 20.1526 61.4481 20.29 60.7456C20.5319 59.5211 20.5977 59.3739 22.1475 56.5987C23.5523 54.111 23.9311 53.532 24.9774 52.2914C26.9423 49.9751 27.068 49.875 27.3467 50.1162C27.486 50.2368 28.0176 50.6731 28.5502 51.0771ZM46.9171 62.1489C46.7512 62.2285 46.3513 62.3856 46.041 62.5065C45.7235 62.64 45.268 62.8345 45.0195 62.9376C44.7639 63.0535 44.4537 63.1743 44.3362 63.2293C41.8819 64.1772 41.0758 64.4719 40.9953 64.4308C40.8746 64.369 40.1746 61.8734 40.2394 61.7586C40.261 61.7204 40.2195 61.5183 40.1584 61.2897C40.0901 61.0739 39.916 60.3107 39.7739 59.6132L39.527 58.336L43.3055 60.1865C45.3929 61.2049 47.1181 62.038 47.1593 62.0262C47.1934 62.0272 47.0759 62.0822 46.9171 62.1489Z" fill="#E9E9E9"/>
<path d="M49.2283 40.0758C48.4053 40.2011 46.7104 40.9728 46.5104 41.3047C46.4487 41.4202 46.3112 41.5062 46.2046 41.5056C45.7477 41.5172 44.4113 43.392 44.0231 44.6064C43.1851 47.1362 44.0049 49.9661 46.0649 51.7027C47.5644 52.9578 49.1143 53.4745 51.1704 53.3859C52.4345 53.3359 52.7549 53.2365 54.3734 52.5223C54.9382 52.2795 56.332 50.97 56.7932 50.2631C57.9923 48.4309 58.1318 45.5925 57.1091 43.5581C56.9586 43.2675 56.7927 43.0202 56.7166 43.0197C56.6557 43.0193 56.5953 42.932 56.5959 42.8306C56.5965 42.7437 56.3548 42.4235 56.0673 42.1465C54.6144 40.7323 53.3238 40.1448 51.3603 40.0312C50.5993 39.983 49.6551 40.0061 49.2283 40.0758Z" fill="#E9E9E9"/>
</svg>
