<svg width="80" height="80" viewBox="0 0 80 80" fill="none" xmlns="http://www.w3.org/2000/svg">
<path d="M35.654 7.00845C25.8843 8.48941 17.4654 13.8992 12.0236 22.2067C10.9216 23.8817 9.34425 27.1308 8.63139 29.1447C7.30747 32.9188 6.76276 36.2027 6.75897 40.4012C6.75399 45.9033 7.76574 50.3566 10.1315 55.2175C14.7108 64.6683 23.4065 71.3803 33.867 73.5567C36.7106 74.1349 42.0941 74.2921 44.9894 73.8884C48.7313 73.3501 51.898 72.388 55.2346 70.7488C65.2951 65.8822 72.2279 56.3402 73.8632 45.1852C74.2209 42.8154 74.2251 38.109 73.8718 35.7385C71.6845 20.7708 60.149 9.2145 45.2022 7.01708C42.9678 6.67647 37.8043 6.6718 35.654 7.00845ZM44.0804 11.9087C47.3644 12.3349 50.597 13.3197 53.4399 14.7613C54.8105 15.4567 57.8222 17.4571 58.8372 18.3383L59.5138 18.9315L58.9043 18.9478C56.2633 18.9624 53.9926 21.3474 53.9393 24.1576C53.9214 25.1734 53.9889 25.4613 54.5466 26.5622C54.9014 27.2566 55.882 28.7811 56.7274 29.95C58.4352 32.2709 59.0773 33.5751 59.4818 35.5731C59.8526 37.4019 59.8329 40.5338 59.4247 42.5988C58.9995 44.7993 55.654 56.2237 55.349 56.562C55.2981 56.6297 52.9678 50.025 50.1987 41.9133C47.4127 33.7846 45.1164 27.0446 45.0657 26.9261C45.015 26.7736 45.4214 26.7232 46.7758 26.7244C48.2994 26.7258 48.6042 26.6753 48.9938 26.3709C49.5529 25.9313 49.6045 25.0341 49.0971 24.5257C48.7757 24.2038 48.5387 24.1866 40.1417 24.179L31.5077 24.1712L31.1517 24.628C30.711 25.1863 30.795 25.9651 31.3363 26.4058C31.6239 26.643 32.0132 26.7111 33.266 26.7122L34.8574 26.7137L35.1783 27.5943C35.364 28.0854 36.4281 30.8797 37.5428 33.7926L39.5865 39.0934L36.5988 48.0126C34.9522 52.9206 33.5772 56.9825 33.5095 57.0501C33.4586 57.1178 32.7831 55.3227 32.0233 53.0704C31.2635 50.818 29.0179 44.095 27.0087 38.134C25.0164 32.173 23.328 27.1603 23.2774 26.991C23.1591 26.737 23.3115 26.7032 24.9367 26.7047C26.4604 26.7061 26.7651 26.6556 27.1548 26.3512C27.7139 25.9115 27.7655 25.0143 27.258 24.506C26.9367 24.184 26.6997 24.1669 21.824 24.1625L16.7282 24.1579L17.2706 23.4304C20.7793 18.6594 25.9462 14.9227 31.5515 13.0824C33.245 12.5422 36.2082 11.9016 37.6812 11.7675C39.4251 11.6167 42.3369 11.6701 44.0804 11.9087ZM15.1972 32.2826C16.7678 36.5334 26.7994 63.7143 27.2891 65.0352C27.7958 66.3731 27.8466 66.3732 25.833 65.1863C14.801 58.6077 9.39531 45.5501 12.5892 33.2622C13.1328 31.2311 13.8964 29.1664 14.0486 29.3528C14.1163 29.4206 14.6399 30.7415 15.1972 32.2826ZM68.3041 33.3464C68.9958 36.0727 69.147 37.3595 69.1271 40.6268C69.1248 43.1832 69.0562 44.1143 68.7501 45.6715C67.2876 52.9499 63.5068 59.0072 57.6621 63.4375C57.0184 63.9109 56.3577 64.3843 56.1883 64.4688C55.9681 64.5871 57.2923 60.4745 61.0269 49.3721C65.9158 34.7833 66.6968 32.2953 66.9524 30.3825L67.0717 29.5362L67.4939 30.637C67.7135 31.2466 68.0848 32.4659 68.3041 33.3464ZM44.2473 51.9979C45.8517 56.3841 47.7938 61.6679 48.5368 63.717C49.2968 65.7662 49.9047 67.4935 49.9047 67.5443C49.9045 67.7136 46.975 68.4897 45.2479 68.7929C43.0637 69.1803 39.6438 69.2957 37.5448 69.0568C35.8351 68.8521 33.2622 68.3419 32.5176 68.0703C32.1791 67.9346 32.2979 67.5961 35.1153 59.8111C36.7276 55.3432 38.7303 49.8429 39.5449 47.592C40.5463 44.7995 41.0722 43.5641 41.1736 43.7335C41.2412 43.886 42.6261 47.5948 44.2473 51.9979Z" fill="#E9E9E9"/>
</svg>
