<svg id="Layer_1" data-name="Layer 1" xmlns="http://www.w3.org/2000/svg" viewBox="0 0 91.03 91.03"><defs><style>.cls-1{fill:#212121;}.cls-2{fill:#fff;}</style></defs><rect class="cls-1" width="91.03" height="91.03" rx="8.71"/><path class="cls-2" d="M21.6,28.33l27-9.25L26.38,71.65,20.7,65.59a2.29,2.29,0,0,0-.36-.4c-2-1.35-1.78-2.87-.86-4.91,3.29-7.36,6.34-14.81,9.53-22.22a1.54,1.54,0,0,0-.34-2c-2.22-2.32-4.35-4.72-6.51-7.09C22,28.82,21.84,28.62,21.6,28.33Z"/><path class="cls-2" d="M40,46.52,55.44,33.24l-9.95-4,4-9.87L77.13,30.5l-4.95,4.17q-11,9.15-22,18.32c-.41.34-.71.62-1.28.19-2.9-2.14-5.82-4.25-8.74-6.38A1.43,1.43,0,0,1,40,46.52Z"/><path class="cls-2" d="M67.82,70.4c-1.79,0-3.59-.05-5.38,0-4,.12-8,.3-12,.42a1.91,1.91,0,0,1-1.14-.41q-6.46-5.25-12.9-10.55c-.3-.25-.64-.79-.56-1.1.88-3.56,1.83-7.1,2.81-10.81L67.91,69.9Z"/></svg>